<?xml version="1.0" encoding="UTF-8" standalone="no"?>
<!-- Created with Inkscape (http://www.inkscape.org/) -->

<svg
   xmlns:dc="http://purl.org/dc/elements/1.1/"
   xmlns:cc="http://creativecommons.org/ns#"
   xmlns:rdf="http://www.w3.org/1999/02/22-rdf-syntax-ns#"
   xmlns:svg="http://www.w3.org/2000/svg"
   xmlns="http://www.w3.org/2000/svg"
   xmlns:sodipodi="http://sodipodi.sourceforge.net/DTD/sodipodi-0.dtd"
   xmlns:inkscape="http://www.inkscape.org/namespaces/inkscape"
   id="svg3390"
   version="1.1"
   inkscape:version="0.91 r"
   width="236"
   height="329"
   viewBox="0 0 236 329"
   sodipodi:docname="convert.svg">
  <metadata
     id="metadata3396">
    <rdf:RDF>
      <cc:Work
         rdf:about="">
        <dc:format>image/svg+xml</dc:format>
        <dc:type
           rdf:resource="http://purl.org/dc/dcmitype/StillImage" />
        <dc:title></dc:title>
      </cc:Work>
    </rdf:RDF>
  </metadata>
  <defs
     id="defs3394" />
  <sodipodi:namedview
     pagecolor="#ffffff"
     bordercolor="#666666"
     borderopacity="1"
     objecttolerance="10"
     gridtolerance="10"
     guidetolerance="10"
     inkscape:pageopacity="0"
     inkscape:pageshadow="2"
     inkscape:window-width="1920"
     inkscape:window-height="1043"
     id="namedview3392"
     showgrid="false"
     inkscape:zoom="0.98328268"
     inkscape:cx="-111.982"
     inkscape:cy="36.329758"
     inkscape:window-x="1600"
     inkscape:window-y="0"
     inkscape:window-maximized="1"
     inkscape:current-layer="svg3390" />
  <path
     style="fill:#c8c8c8;fill-opacity:1;fill-rule:evenodd;stroke:#c8c8c8;stroke-width:0.46750531px;stroke-linecap:butt;stroke-linejoin:miter;stroke-opacity:1"
     d="m 127.06162,174.12259 7.25067,9.39021 6.41862,-8.91475 -6.41862,-7.84498 z"
     id="path3400"
     inkscape:connector-curvature="0" />
  <path
     style="fill:#c8c8c8;fill-opacity:1;fill-rule:evenodd;stroke:#c8c8c8;stroke-width:0.46750531px;stroke-linecap:butt;stroke-linejoin:miter;stroke-opacity:1"
     d="m 115.88846,166.75307 7.36953,7.72611 -6.53749,8.67703 -7.72612,-8.67703 z"
     id="path3402"
     inkscape:connector-curvature="0" />
  <path
     style="fill:#c8c8c8;fill-opacity:1;fill-rule:evenodd;stroke:#c8c8c8;stroke-width:0.46750531px;stroke-linecap:butt;stroke-linejoin:miter;stroke-opacity:1"
     d="m 96.15713,174.59805 c 0,0 3.68477,9.03362 4.27909,8.4393 0.59431,-0.59431 5.11112,-9.62793 5.11112,-9.62793 l -4.63567,-6.53749 z"
     id="path3404"
     inkscape:connector-curvature="0" />
  <path
     style="fill:#c8c8c8;fill-opacity:1;fill-rule:evenodd;stroke:#c8c8c8;stroke-width:0.46750531px;stroke-linecap:butt;stroke-linejoin:miter;stroke-opacity:1"
     d="m 144.05908,174.24146 5.34886,9.03362 4.99226,-8.67703 -5.34885,-8.08271 z"
     id="path3406"
     inkscape:connector-curvature="0" />
  <path
     style="fill:#c8c8c8;fill-opacity:1;fill-rule:evenodd;stroke:#c8c8c8;stroke-width:0.46750531px;stroke-linecap:butt;stroke-linejoin:miter;stroke-opacity:1"
     d="m 93.05828,169.99691 c 0,0.21012 1.00858,4.53864 1.00858,4.53864 l -1.8911,8.3629 -1.38681,-6.72393 z"
     id="path3408"
     inkscape:connector-curvature="0" />
  <path
     style="fill:#c8c8c8;fill-opacity:1;fill-rule:evenodd;stroke:#c8c8c8;stroke-width:0.46750531px;stroke-linecap:butt;stroke-linejoin:miter;stroke-opacity:1"
     d="m 95.07546,178.61194 4.4546,6.97608 -2.43743,7.48037 -3.95031,-7.14418 z"
     id="path3410"
     inkscape:connector-curvature="0" />
  <path
     style="fill:#c8c8c8;fill-opacity:1;fill-rule:evenodd;stroke:#c8c8c8;stroke-width:0.46750531px;stroke-linecap:butt;stroke-linejoin:miter;stroke-opacity:1"
     d="m 102.47177,186.26042 c 0,0 5.21105,6.80797 5.42117,6.84999 0.21012,0.042 6.09357,-7.31226 6.09357,-7.31226 0,0 -6.34572,-7.6905 -6.51381,-7.5224 -0.1681,0.1681 -5.00093,7.98467 -5.00093,7.98467 z"
     id="path3412"
     inkscape:connector-curvature="0" />
  <path
     style="fill:#c8c8c8;fill-opacity:1;fill-rule:evenodd;stroke:#c8c8c8;stroke-width:0.46750531px;stroke-linecap:butt;stroke-linejoin:miter;stroke-opacity:1"
     d="m 117.97884,186.00827 c 0.25215,0.16809 7.27025,7.14417 7.27025,7.14417 l 7.39632,-7.10215 -7.31227,-7.77454 z"
     id="path3414"
     inkscape:connector-curvature="0" />
  <path
     style="fill:#c8c8c8;fill-opacity:1;fill-rule:evenodd;stroke:#c8c8c8;stroke-width:0.46750531px;stroke-linecap:butt;stroke-linejoin:miter;stroke-opacity:1"
     d="m 136.17547,186.17636 5.58927,6.68191 6.00951,-6.97608 -4.79079,-7.5224 z"
     id="path3416"
     inkscape:connector-curvature="0" />
  <path
     style="fill:#c8c8c8;fill-opacity:1;fill-rule:evenodd;stroke:#c8c8c8;stroke-width:0.46750531px;stroke-linecap:butt;stroke-linejoin:miter;stroke-opacity:1"
     d="m 150.758,185.84017 2.35337,7.0181 c 0,0 3.82424,-6.76596 3.82424,-6.93406 0,-0.16809 -1.93313,-8.02669 -1.93313,-8.02669 z"
     id="path3418"
     inkscape:connector-curvature="0" />
  <path
     style="fill:#c8c8c8;fill-opacity:1;fill-rule:evenodd;stroke:#c8c8c8;stroke-width:0.46750531px;stroke-linecap:butt;stroke-linejoin:miter;stroke-opacity:1"
     d="m 93.42327,189.6937 c 0,0 3.26875,5.34886 3.20931,5.58658 -0.0594,0.23773 0.1783,6.06204 0.1783,6.06204 l -2.97158,-4.27909 z"
     id="path3420"
     inkscape:connector-curvature="0" />
  <path
     style="fill:#c8c8c8;fill-opacity:1;fill-rule:evenodd;stroke:#c8c8c8;stroke-width:0.46750531px;stroke-linecap:butt;stroke-linejoin:miter;stroke-opacity:1"
     d="m 98.77213,195.69631 c 0.11886,0.23772 4.8734,5.70544 4.8734,5.70544 l 3.68476,-6.29976 -5.82431,-6.1809 z"
     id="path3422"
     inkscape:connector-curvature="0" />
  <path
     style="fill:#c8c8c8;fill-opacity:1;fill-rule:evenodd;stroke:#c8c8c8;stroke-width:0.46750531px;stroke-linecap:butt;stroke-linejoin:miter;stroke-opacity:1"
     d="m 110.48018,195.39915 6.9535,5.8243 5.94318,-5.94317 -7.13181,-7.01293 z"
     id="path3424"
     inkscape:connector-curvature="0" />
  <path
     style="fill:#c8c8c8;fill-opacity:1;fill-rule:evenodd;stroke:#c8c8c8;stroke-width:0.46750531px;stroke-linecap:butt;stroke-linejoin:miter;stroke-opacity:1"
     d="m 126.82389,195.28028 5.76488,5.88374 7.25067,-6.24033 -5.64601,-6.41862 z"
     id="path3426"
     inkscape:connector-curvature="0" />
  <path
     style="fill:#c8c8c8;fill-opacity:1;fill-rule:evenodd;stroke:#c8c8c8;stroke-width:0.46750531px;stroke-linecap:butt;stroke-linejoin:miter;stroke-opacity:1"
     d="m 142.92988,195.81517 2.85273,5.58658 6.18089,-6.12147 -2.85272,-6.41862 z"
     id="path3428"
     inkscape:connector-curvature="0" />
  <path
     style="fill:#c8c8c8;fill-opacity:1;fill-rule:evenodd;stroke:#c8c8c8;stroke-width:0.46750531px;stroke-linecap:butt;stroke-linejoin:miter;stroke-opacity:1"
     d="m 153.80588,195.45858 c 0,0.23773 -0.47545,5.28942 -0.47545,5.28942 l 3.5659,-4.69511 0.41602,-6.59692 z"
     id="path3430"
     inkscape:connector-curvature="0" />
  <path
     style="fill:#c8c8c8;fill-opacity:1;fill-rule:evenodd;stroke:#c8c8c8;stroke-width:0.46750531px;stroke-linecap:butt;stroke-linejoin:miter;stroke-opacity:1"
     d="m 146.49578,203.1847 0.47546,4.51681 4.99226,-4.63567 c 0,0 0.41603,-5.17056 -0.29716,-4.69511 -0.71318,0.47545 -5.17056,4.81397 -5.17056,4.81397 z"
     id="path3432"
     inkscape:connector-curvature="0" />
  <path
     style="fill:#c8c8c8;fill-opacity:1;fill-rule:evenodd;stroke:#c8c8c8;stroke-width:0.46750531px;stroke-linecap:butt;stroke-linejoin:miter;stroke-opacity:1"
     d="m 134.13399,202.94698 c 0,0.41601 3.44704,4.51681 3.44704,4.51681 l 6.83464,-4.63569 -3.92249,-5.34884 z"
     id="path3434"
     inkscape:connector-curvature="0" />
  <path
     style="fill:#c8c8c8;fill-opacity:1;fill-rule:evenodd;stroke:#c8c8c8;stroke-width:0.46750531px;stroke-linecap:butt;stroke-linejoin:miter;stroke-opacity:1"
     d="m 109.05381,198.01414 6.71579,4.99226 -3.56591,4.45739 -6.06203,-4.51681 z"
     id="path3438"
     inkscape:connector-curvature="0" />
  <path
     style="fill:#c8c8c8;fill-opacity:1;fill-rule:evenodd;stroke:#c8c8c8;stroke-width:0.46750531px;stroke-linecap:butt;stroke-linejoin:miter;stroke-opacity:1"
     d="m 98.95042,198.3113 4.16022,4.57624 -0.53488,4.69511 -4.33852,-4.21966 z"
     id="path3440"
     inkscape:connector-curvature="0" />
  <path
     style="fill:#c8c8c8;fill-opacity:1;fill-rule:evenodd;stroke:#c8c8c8;stroke-width:0.46750531px;stroke-linecap:butt;stroke-linejoin:miter;stroke-opacity:1"
     d="m 105.74969,205.00337 c 0,0 5.92546,4.20245 5.67331,4.2865 -0.25214,0.084 -1.30276,3.31994 -1.30276,3.31994 l -5.33711,-3.44601 z"
     id="path3442"
     inkscape:connector-curvature="0" />
  <path
     style="fill:#c8c8c8;fill-opacity:1;fill-rule:evenodd;stroke:#c8c8c8;stroke-width:0.46750531px;stroke-linecap:butt;stroke-linejoin:miter;stroke-opacity:1"
     d="m 113.23006,210.67668 c 0,0 5.67332,3.02577 5.42118,3.23589 -0.25215,0.21013 -1.26075,0.96657 -1.26075,0.96657 l -4.41258,-0.92455 -1.00858,-1.47086 z"
     id="path3444"
     inkscape:connector-curvature="0" />
  <path
     style="fill:#c8c8c8;fill-opacity:1;fill-rule:evenodd;stroke:#c8c8c8;stroke-width:0.46750531px;stroke-linecap:butt;stroke-linejoin:miter;stroke-opacity:1"
     d="m 132.01504,213.7865 c 0,0 0.92455,1.63896 1.00859,1.42884 0.084,-0.21013 5.71535,-2.14326 5.71535,-2.14326 l -1.34479,-2.77362 z"
     id="path3452"
     inkscape:connector-curvature="0" />
  <path
     style="fill:#c8c8c8;fill-opacity:1;fill-rule:evenodd;stroke:#c8c8c8;stroke-width:0.46750531px;stroke-linecap:butt;stroke-linejoin:miter;stroke-opacity:1"
     d="m 139.41137,209.20582 c 0.084,0.42025 0.88252,3.23589 0.88252,3.23589 l 5.63128,-3.53006 -0.42025,-3.65614 -0.79846,-0.12607 z"
     id="path3454"
     inkscape:connector-curvature="0" />
  <path
     style="fill:#c8c8c8;fill-opacity:1;fill-rule:evenodd;stroke:#c8c8c8;stroke-width:0.46750531px;stroke-linecap:butt;stroke-linejoin:miter;stroke-opacity:1"
     d="m 155.71689,175.16593 1.89111,7.3543 c 0,0 2.10123,-7.14417 1.84908,-7.3543 -0.25215,-0.21013 -2.18528,-5.04295 -2.18528,-5.04295 z"
     id="path3456"
     inkscape:connector-curvature="0" />
  <path
     style="fill:#c8c8c8;fill-opacity:1;fill-rule:evenodd;stroke:#c8c8c8;stroke-width:0.46750531px;stroke-linecap:butt;stroke-linejoin:miter;stroke-opacity:1"
     d="m 150.08561,163.35703 c 0,0.1681 4.37054,8.02669 4.37054,8.02669 0,0 2.56351,-8.48896 2.35338,-8.57301 -0.21012,-0.084 -4.2865,-5.08497 -4.2865,-5.08497 z"
     id="path3458"
     inkscape:connector-curvature="0" />
  <path
     style="fill:#c8c8c8;fill-opacity:1;fill-rule:evenodd;stroke:#c8c8c8;stroke-width:0.46750531px;stroke-linecap:butt;stroke-linejoin:miter;stroke-opacity:1"
     d="m 135.62916,163.86132 c 0.29416,0.1681 6.97607,8.23681 6.97607,8.23681 0,0 5.63129,-8.573 5.4632,-8.573 -0.1681,0 -6.63988,-5.96749 -6.63988,-5.96749 z"
     id="path3460"
     inkscape:connector-curvature="0" />
  <path
     style="fill:#c8c8c8;fill-opacity:1;fill-rule:evenodd;stroke:#c8c8c8;stroke-width:0.46750531px;stroke-linecap:butt;stroke-linejoin:miter;stroke-opacity:1"
     d="m 117.51657,164.02942 c 0,0 7.31227,7.94264 7.48037,7.98467 0.1681,0.042 7.90062,-7.90062 7.6905,-7.98467 -0.21013,-0.084 -7.27026,-6.63988 -7.27026,-6.63988 z"
     id="path3462"
     inkscape:connector-curvature="0" />
  <path
     style="fill:#c8c8c8;fill-opacity:1;fill-rule:evenodd;stroke:#c8c8c8;stroke-width:0.46750531px;stroke-linecap:butt;stroke-linejoin:miter;stroke-opacity:1"
     d="m 102.30368,164.07144 4.91687,7.64847 7.52239,-8.15276 c 0,0 -5.29509,-6.34571 -5.71533,-6.21964 -0.42025,0.12608 -6.72393,6.72393 -6.72393,6.72393 z"
     id="path3464"
     inkscape:connector-curvature="0" />
  <path
     style="fill:#c8c8c8;fill-opacity:1;fill-rule:evenodd;stroke:#c8c8c8;stroke-width:0.46750531px;stroke-linecap:butt;stroke-linejoin:miter;stroke-opacity:1"
     d="m 97.21871,157.76776 2.52147,6.13559 -4.83283,8.11074 -1.59693,-8.23681 z"
     id="path3466"
     inkscape:connector-curvature="0" />
  <path
     style="fill:#c8c8c8;fill-opacity:1;fill-rule:evenodd;stroke:#c8c8c8;stroke-width:0.46750531px;stroke-linecap:butt;stroke-linejoin:miter;stroke-opacity:1"
     d="m 98.68956,155.49844 2.64755,6.13558 6.17761,-6.47179 -3.40399,-5.25306 z"
     id="path3468"
     inkscape:connector-curvature="0" />
  <path
     style="fill:#c8c8c8;fill-opacity:1;fill-rule:evenodd;stroke:#c8c8c8;stroke-width:0.46750531px;stroke-linecap:butt;stroke-linejoin:miter;stroke-opacity:1"
     d="m 109.82607,155.41438 5.92547,6.34572 7.94264,-6.93406 -6.47178,-5.04295 z"
     id="path3470"
     inkscape:connector-curvature="0" />
  <path
     style="fill:#c8c8c8;fill-opacity:1;fill-rule:evenodd;stroke:#c8c8c8;stroke-width:0.46750531px;stroke-linecap:butt;stroke-linejoin:miter;stroke-opacity:1"
     d="m 126.67792,154.99414 7.06013,6.6819 6.47178,-6.85 -7.22823,-5.00092 z"
     id="path3472"
     inkscape:connector-curvature="0" />
  <path
     style="fill:#c8c8c8;fill-opacity:1;fill-rule:evenodd;stroke:#c8c8c8;stroke-width:0.46750531px;stroke-linecap:butt;stroke-linejoin:miter;stroke-opacity:1"
     d="m 143.0675,155.20426 5.21105,6.38773 3.15184,-6.3457 c 0,0 -4.83283,-5.79939 -5.08497,-5.50522 -0.25215,0.29417 -3.27792,5.46319 -3.27792,5.46319 z"
     id="path3474"
     inkscape:connector-curvature="0" />
  <path
     style="fill:#c8c8c8;fill-opacity:1;fill-rule:evenodd;stroke:#c8c8c8;stroke-width:0.46750531px;stroke-linecap:butt;stroke-linejoin:miter;stroke-opacity:1"
     d="m 147.01781,148.52236 c 0,0 3.82423,5.12699 4.32853,4.91687 0.50429,-0.21012 1.09264,-4.4546 1.09264,-4.4546 l -4.70675,-4.70676 z"
     id="path3476"
     inkscape:connector-curvature="0" />
  <path
     style="fill:#c8c8c8;fill-opacity:1;fill-rule:evenodd;stroke:#c8c8c8;stroke-width:0.46750531px;stroke-linecap:butt;stroke-linejoin:miter;stroke-opacity:1"
     d="m 134.11627,148.18616 c 0,0 6.47178,5.37914 6.63989,5.37914 0.16809,0 3.9503,-5.79939 3.78221,-5.79939 -0.16811,0 -6.38775,-3.99233 -6.38775,-3.99233 z"
     id="path3478"
     inkscape:connector-curvature="0" />
  <path
     style="fill:#c8c8c8;fill-opacity:1;fill-rule:evenodd;stroke:#c8c8c8;stroke-width:0.46750531px;stroke-linecap:butt;stroke-linejoin:miter;stroke-opacity:1"
     d="m 118.88976,148.35895 c 0.17829,0.11886 5.6163,5.28942 5.88374,5.28942 0.26744,0 7.16152,-5.91345 7.16152,-5.91345 l -6.83464,-4.07107 z"
     id="path3480"
     inkscape:connector-curvature="0" />
  <path
     style="fill:#c8c8c8;fill-opacity:1;fill-rule:evenodd;stroke:#c8c8c8;stroke-width:0.46750531px;stroke-linecap:butt;stroke-linejoin:miter;stroke-opacity:1"
     d="m 105.69592,148.21038 c 0,0 3.00131,5.79458 3.1796,5.55686 0.17829,-0.23773 7.04266,-5.25971 6.98322,-5.46772 -0.0594,-0.208 -4.39794,-4.75453 -4.39794,-4.75453 z"
     id="path3482"
     inkscape:connector-curvature="0" />
  <path
     style="fill:#c8c8c8;fill-opacity:1;fill-rule:evenodd;stroke:#c8c8c8;stroke-width:0.46750531px;stroke-linecap:butt;stroke-linejoin:miter;stroke-opacity:1"
     d="m 98.02923,149.16128 c 0,0.20802 0.20801,4.16022 0.20801,4.16022 0,0 5.55687,-5.14085 5.55687,-5.34885 0,-0.20801 -1.3075,-4.66539 -1.3075,-4.54652 0,0.11886 -4.45738,5.73515 -4.45738,5.73515 z"
     id="path3484"
     inkscape:connector-curvature="0" />
  <path
     style="fill:#c8c8c8;fill-opacity:1;fill-rule:evenodd;stroke:#c8c8c8;stroke-width:0.46750531px;stroke-linecap:butt;stroke-linejoin:miter;stroke-opacity:1"
     d="m 103.91297,142.68322 c 0,0.41603 0.47545,3.50648 0.50517,3.7442 0.0297,0.23773 6.59692,-4.04135 6.59692,-4.04135 0,0 -1.51551,-3.41733 -1.75324,-3.41733 -0.23772,0 -5.34885,3.71448 -5.34885,3.71448 z"
     id="path3486"
     inkscape:connector-curvature="0" />
  <path
     style="fill:#c8c8c8;fill-opacity:1;fill-rule:evenodd;stroke:#c8c8c8;stroke-width:0.46750531px;stroke-linecap:butt;stroke-linejoin:miter;stroke-opacity:1"
     d="m 113.77863,142.86152 3.80364,3.92249 c 0,0 6.06203,-4.27908 5.76487,-4.39794 -0.29715,-0.11886 -4.10079,-3.1796 -4.42766,-3.0013 -0.32688,0.1783 -5.14085,3.47675 -5.14085,3.47675 z"
     id="path3488"
     inkscape:connector-curvature="0" />
  <path
     style="fill:#c8c8c8;fill-opacity:1;fill-rule:evenodd;stroke:#c8c8c8;stroke-width:0.46750531px;stroke-linecap:butt;stroke-linejoin:miter;stroke-opacity:1"
     d="m 126.88333,142.68322 c 0,0 5.28941,4.21965 5.46771,4.18994 0.1783,-0.0298 4.27908,-4.51681 4.1305,-4.51681 -0.14858,0 -5.02198,-3.62533 -5.20026,-3.47675 -0.1783,0.14858 -4.39795,3.80362 -4.39795,3.80362 z"
     id="path3490"
     inkscape:connector-curvature="0" />
  <path
     style="fill:#c8c8c8;fill-opacity:1;fill-rule:evenodd;stroke:#c8c8c8;stroke-width:0.46750531px;stroke-linecap:butt;stroke-linejoin:miter;stroke-opacity:1"
     d="m 138.59136,142.80209 c 1.4858,0.29716 6.24034,4.27908 6.24034,4.27908 l 0.77261,-0.9509 0.29716,-3.56591 -5.34885,-3.3876 z"
     id="path3492"
     inkscape:connector-curvature="0" />
  <path
     style="fill:none;fill-rule:evenodd;stroke:#ffb400;stroke-width:12.7;stroke-linecap:butt;stroke-linejoin:miter;stroke-opacity:1;stroke-miterlimit:4;stroke-dasharray:none"
     d="m 56.03087,126.93195 134.65685,-0.35957 -65.80027,143.46618 z"
     id="path4279"
     inkscape:connector-curvature="0"
     sodipodi:nodetypes="cccc" />
  <path
     style="fill:none;fill-rule:evenodd;stroke:#ffb400;stroke-width:12.7;stroke-linecap:butt;stroke-linejoin:miter;stroke-opacity:1;stroke-miterlimit:4;stroke-dasharray:none"
     d="m 124.70981,269.63253 c 0,0 10e-6,38.51894 10e-6,39.53594"
     id="path4281"
     inkscape:connector-curvature="0"
     sodipodi:nodetypes="cc" />
  <path
     style="fill:none;fill-rule:evenodd;stroke:#ffb400;stroke-width:12.7;stroke-linecap:butt;stroke-linejoin:miter;stroke-opacity:1;stroke-miterlimit:4;stroke-dasharray:none"
     d="m 97.082373,309.22396 53.934647,0.35957"
     id="path4283"
     inkscape:connector-curvature="0" />
  <path
     style="fill:none;fill-rule:evenodd;stroke:#ffb400;stroke-width:12.7;stroke-linecap:butt;stroke-linejoin:miter;stroke-opacity:1;stroke-miterlimit:4;stroke-dasharray:none"
     d="m 218.97469,111.10401 -37.75426,-31.2821 -14.02301,46.3838"
     id="path4285"
     inkscape:connector-curvature="0" />
</svg>
