<?xml version="1.0" encoding="UTF-8" standalone="no"?>
<!-- Created with Inkscape (http://www.inkscape.org/) -->

<svg
   xmlns:dc="http://purl.org/dc/elements/1.1/"
   xmlns:cc="http://creativecommons.org/ns#"
   xmlns:rdf="http://www.w3.org/1999/02/22-rdf-syntax-ns#"
   xmlns:svg="http://www.w3.org/2000/svg"
   xmlns="http://www.w3.org/2000/svg"
   xmlns:sodipodi="http://sodipodi.sourceforge.net/DTD/sodipodi-0.dtd"
   xmlns:inkscape="http://www.inkscape.org/namespaces/inkscape"
   width="1920"
   height="1080"
   id="svg6509"
   version="1.1"
   inkscape:version="0.91 r13725"
   viewBox="0 0 1920 1080"
   sodipodi:docname="fondananascamera.svg">
  <defs
     id="defs6511" />
  <sodipodi:namedview
     id="base"
     pagecolor="#ffffff"
     bordercolor="#666666"
     borderopacity="1.0"
     inkscape:pageopacity="0.0"
     inkscape:pageshadow="2"
     inkscape:zoom="0.50913505"
     inkscape:cx="583.23522"
     inkscape:cy="574.59702"
     inkscape:document-units="px"
     inkscape:current-layer="layer1"
     showgrid="false"
     inkscape:window-width="1600"
     inkscape:window-height="836"
     inkscape:window-x="0"
     inkscape:window-y="27"
     inkscape:window-maximized="1" />
  <metadata
     id="metadata6514">
    <rdf:RDF>
      <cc:Work
         rdf:about="">
        <dc:format>image/svg+xml</dc:format>
        <dc:type
           rdf:resource="http://purl.org/dc/dcmitype/StillImage" />
        <dc:title></dc:title>
      </cc:Work>
    </rdf:RDF>
  </metadata>
  <g
     id="layer1"
     inkscape:label="Layer 1"
     inkscape:groupmode="layer">
    <rect
       style="fill:#ffff00;fill-opacity:0.79005528;stroke:none;stroke-width:12.80000019;stroke-miterlimit:4;stroke-dasharray:none;stroke-opacity:1"
       id="rect6470"
       width="1951.5713"
       height="1454.7605"
       x="166.72633"
       y="-685.8656"
       transform="scale(-1,-1)" />
    <ellipse
       style="fill:#ff5500;fill-opacity:0.4198895;stroke:none;stroke-width:12.80000019;stroke-miterlimit:4;stroke-dasharray:none;stroke-opacity:1"
       id="path6468"
       cx="-1133.2483"
       cy="585.85059"
       rx="330.40845"
       ry="324.29037" />
    <path
       style="fill:#ff5500;fill-opacity:0.4198895;fill-rule:evenodd;stroke:none;stroke-width:1px;stroke-linecap:butt;stroke-linejoin:miter;stroke-opacity:1"
       d="m -1459.9872,636.4728 -769.4758,55.4543 -6.1759,-406.12074 791.593,187.36459 c 17.3706,-46.74408 29.8102,-55.23991 46.6344,-79.98127 l -881.4584,-465.011921 30.8793,-545.535199 914.6204,947.38966 c 14.5722,-13.20445 27.2341,-28.59202 53.2449,-28.72369 l -739.3586,-1197.49506 487.8928,12.12301 333.4964,1151.83512 113.9451,0.6707 126.91339,-1152.50582 611.4099,0 -648.465,1242.60791 907.851195,-1036.51684 0,575.84269 -783.080795,488.63037 c 14.6951,27.46389 35.6633,57.43701 42.7963,81.87607 L -67.912615,122.14582 -117.31941,691.9271 -1185.743,752.5421 Z"
       id="path6472"
       inkscape:connector-curvature="0"
       sodipodi:nodetypes="cccccccccccccccccccccccc" />
    <path
       inkscape:connector-curvature="0"
       style="fill:#7b8743;fill-opacity:1;fill-rule:evenodd;stroke:#000000;stroke-width:2.33779526px;stroke-linecap:butt;stroke-linejoin:miter;stroke-opacity:1"
       d="m 2283.621,2172.7536 1.271,44.4704 c 0,0 -5.7394,0.4427 -12.2857,0.8011 -6.4894,0.3554 -9.825,1.1009 -10.7722,0.7774 -3.4529,-18.0711 0.5068,-61.4389 3.2624,-67.6752 10.1984,-0.479 20.077,-1.6305 21.1234,0.6224 1.3591,4.2239 -2.5989,21.0037 -2.5989,21.0037 z"
       id="path3500-3-8-7-9-2-2"
       sodipodi:nodetypes="ccsccccc" />
    <path
       inkscape:connector-curvature="0"
       style="fill:#7b8743;fill-opacity:1;fill-rule:evenodd;stroke:#000000;stroke-width:2.33779526px;stroke-linecap:butt;stroke-linejoin:miter;stroke-opacity:1"
       d="m 2251.6073,2204.4529 c -2.6448,27.342 0.9127,3.8437 -25.8023,5.9211 -3.453,-18.0713 1.0544,-22.2069 3.81,-28.443 9.2857,-8.8988 27.5602,-27.4269 28.6067,-25.174 1.3591,4.2237 -6.6144,47.6956 -6.6144,47.6956 z"
       id="path3500-3-8-7-9-0-4-2"
       sodipodi:nodetypes="cccccc" />
    <rect
       style="fill:#000000;fill-opacity:0.76243097;stroke:#000000;stroke-width:2.4;stroke-miterlimit:4;stroke-dasharray:none;stroke-opacity:1"
       id="rect11658"
       width="727.75183"
       height="966.6322"
       x="555.53571"
       y="52.258896" />
    <circle
       style="fill:#ffffff;fill-opacity:0.76243095;stroke:#000000;stroke-width:2.4000001;stroke-miterlimit:4;stroke-dasharray:none;stroke-opacity:1"
       id="path11660"
       cx="918.02277"
       cy="967.50403"
       r="31.943304" />
    <rect
       style="fill:#c8c8c8;fill-opacity:1;stroke:#000000;stroke-width:2.41459942;stroke-miterlimit:4;stroke-dasharray:none;stroke-opacity:1"
       id="rect11662"
       width="649.48566"
       height="805.51221"
       x="597.68475"
       y="99.486732" />
    <ellipse
       style="fill:#00ff00;fill-opacity:1;stroke:#00ff00;stroke-width:1.43160057;stroke-miterlimit:4;stroke-dasharray:none;stroke-opacity:1"
       id="path11672"
       cx="921.17017"
       cy="489.55942"
       rx="118.33112"
       ry="123.0175" />
    <text
       xml:space="preserve"
       style="font-style:normal;font-weight:normal;font-size:40px;line-height:125%;font-family:sans-serif;letter-spacing:0px;word-spacing:0px;fill:#000000;fill-opacity:0.43093923;stroke:none;stroke-width:1px;stroke-linecap:butt;stroke-linejoin:miter;stroke-opacity:1;"
       x="666.07965"
       y="307.13135"
       id="text11664"
       sodipodi:linespacing="125%"><tspan
         sodipodi:role="line"
         id="tspan11666"
         x="666.07965"
         y="307.13135"
         style="font-style:normal;font-variant:normal;font-weight:bold;font-stretch:normal;font-family:sans-serif;-inkscape-font-specification:'sans-serif Bold';fill:#000000;fill-opacity:0.43093923;">Convertion in progress</tspan><tspan
         sodipodi:role="line"
         x="666.07965"
         y="357.13135"
         style="font-style:normal;font-variant:normal;font-weight:bold;font-stretch:normal;font-family:sans-serif;-inkscape-font-specification:'sans-serif Bold';fill:#000000;fill-opacity:0.43093923;"
         id="tspan11678" /></text>
    <path
       style="fill:#c89e00;fill-opacity:1;fill-rule:evenodd;stroke:#7b8743;stroke-width:0.72454923px;stroke-linecap:butt;stroke-linejoin:miter;stroke-opacity:1"
       d="m 923.59778,521.30536 11.34278,14.41775 10.04112,-13.68775 -10.04112,-12.04522 z"
       id="path3400"
       inkscape:connector-curvature="0" />
    <path
       style="fill:#c89e00;fill-opacity:1;fill-rule:evenodd;stroke:#7b8743;stroke-width:0.72454923px;stroke-linecap:butt;stroke-linejoin:miter;stroke-opacity:1"
       d="M 906.26382,509.56332 917.79249,521.426 907.56541,534.74875 895.4789,521.426 Z"
       id="path3402"
       inkscape:connector-curvature="0" />
    <path
       style="fill:#c89e00;fill-opacity:1;fill-rule:evenodd;stroke:#7b8743;stroke-width:0.72454923px;stroke-linecap:butt;stroke-linejoin:miter;stroke-opacity:1"
       d="m 875.25172,524.73873 c 0,0 5.76432,13.87024 6.69406,12.95775 0.92973,-0.91254 7.99571,-14.78279 7.99571,-14.78279 l -7.2519,-10.03768 z"
       id="path3404"
       inkscape:connector-curvature="0" />
    <path
       style="fill:#c89e00;fill-opacity:1;fill-rule:evenodd;stroke:#7b8743;stroke-width:0.72454923px;stroke-linecap:butt;stroke-linejoin:miter;stroke-opacity:1"
       d="m 950.18818,524.19123 8.36753,13.87024 7.80978,-13.32274 -8.3676,-12.41026 z"
       id="path3406"
       inkscape:connector-curvature="0" />
    <path
       style="fill:#c89e00;fill-opacity:1;fill-rule:evenodd;stroke:#7b8743;stroke-width:0.72454923px;stroke-linecap:butt;stroke-linejoin:miter;stroke-opacity:1"
       d="m 870.40397,517.67413 c 0,0.3226 1.57778,6.96865 1.57778,6.96865 l -2.95836,12.84043 -2.16951,-10.32398 z"
       id="path3408"
       inkscape:connector-curvature="0" />
    <path
       style="fill:#c89e00;fill-opacity:1;fill-rule:evenodd;stroke:#7b8743;stroke-width:0.72454923px;stroke-linecap:butt;stroke-linejoin:miter;stroke-opacity:1"
       d="m 873.55956,530.90167 7.37869,10.00685 -1.35289,6.15316 -9.0499,-4.93272 z"
       id="path3410"
       inkscape:connector-curvature="0"
       sodipodi:nodetypes="ccccc" />
    <path
       style="fill:#c89e00;fill-opacity:1;fill-rule:evenodd;stroke:#7b8743;stroke-width:0.81729156;stroke-linecap:butt;stroke-linejoin:miter;stroke-miterlimit:4;stroke-dasharray:none;stroke-opacity:1"
       d="m 885.18223,539.66878 c 0,0 8.10494,13.37119 8.43179,13.45371 0.32681,0.0826 9.47754,-14.36161 9.47754,-14.36161 0,0 -9.86974,-15.10443 -10.1312,-14.77427 -0.26142,0.33013 -7.77813,15.68217 -7.77813,15.68217 z"
       id="path3412"
       inkscape:connector-curvature="0" />
    <path
       style="fill:#000000;fill-opacity:1;fill-rule:evenodd;stroke:#c89e00;stroke-width:0.72454923px;stroke-linecap:butt;stroke-linejoin:miter;stroke-opacity:1"
       d="m 906.70343,542.59369 13.62681,13.08991 14.78649,-12.94762 -14.78649,-20.48855 z"
       id="path5075"
       inkscape:connector-curvature="0" />
    <path
       style="fill:#c89e00;fill-opacity:1;fill-rule:evenodd;stroke:#7b8743;stroke-width:0.72454923px;stroke-linecap:butt;stroke-linejoin:miter;stroke-opacity:1"
       d="m 907.79437,540.26606 c 0.39446,0.2581 12.82301,-12.64949 12.82301,-12.64949 l 14.03498,13.99457 -14.19342,-19.19344 z"
       id="path3414"
       inkscape:connector-curvature="0"
       sodipodi:nodetypes="ccccc" />
    <path
       style="fill:#c89e00;fill-opacity:1;fill-rule:evenodd;stroke:#7b8743;stroke-width:0.79515672px;stroke-linecap:butt;stroke-linejoin:miter;stroke-opacity:1"
       d="m 937.90654,540.29012 8.69418,12.42682 9.34789,-12.97393 -7.45214,-13.9899 z"
       id="path3416"
       inkscape:connector-curvature="0" />
    <path
       style="fill:#c89e00;fill-opacity:1;fill-rule:evenodd;stroke:#7b8743;stroke-width:0.72454923px;stroke-linecap:butt;stroke-linejoin:miter;stroke-opacity:1"
       d="m 960.66773,541.99991 1.11892,4.94035 c 0,0 6.25787,-2.04865 8.85267,-3.20155 l -3.33165,-13.93394 z"
       id="path3418"
       inkscape:connector-curvature="0"
       sodipodi:nodetypes="ccccc" />
    <path
       style="fill:#c89e00;fill-opacity:1;fill-rule:evenodd;stroke:#7b8743;stroke-width:0.6732412px;stroke-linecap:butt;stroke-linejoin:miter;stroke-opacity:1"
       d="m 881.55979,547.30141 c 0.18699,0.31335 4.5916,2.59123 4.5916,2.59123 l 3.4392,1.35391 -6.60009,-10.86419 z"
       id="path3422"
       inkscape:connector-curvature="0"
       sodipodi:nodetypes="ccccc" />
    <path
       style="fill:#c89e00;fill-opacity:1;fill-rule:evenodd;stroke:#7b8743;stroke-width:0.72454923px;stroke-linecap:butt;stroke-linejoin:miter;stroke-opacity:1"
       d="m 897.96578,553.8598 14.26058,7.23233 5.60711,-4.59781 -12.60646,-12.61734 z"
       id="path3424"
       inkscape:connector-curvature="0"
       sodipodi:nodetypes="ccccc" />
    <path
       style="fill:#c89e00;fill-opacity:1;fill-rule:evenodd;stroke:#7b8743;stroke-width:0.72454923px;stroke-linecap:butt;stroke-linejoin:miter;stroke-opacity:1"
       d="m 923.22589,556.49432 3.7906,3.39987 14.82796,-5.85895 -6.22007,-9.93556 z"
       id="path3426"
       inkscape:connector-curvature="0"
       sodipodi:nodetypes="ccccc" />
    <path
       style="fill:#c89e00;fill-opacity:1;fill-rule:evenodd;stroke:#7b8743;stroke-width:0.72454923px;stroke-linecap:butt;stroke-linejoin:miter;stroke-opacity:1"
       d="m 948.83169,552.38578 c 7.17206,-2.43195 7.37201,-2.7111 11.87678,-4.14135 l -2.92515,-6.73631 z"
       id="path3428"
       inkscape:connector-curvature="0"
       sodipodi:nodetypes="cccc" />
    <path
       style="fill:#c89e00;fill-opacity:1;fill-rule:evenodd;stroke:#7b8743;stroke-width:0.72454923px;stroke-linecap:butt;stroke-linejoin:miter;stroke-opacity:1"
       d="m 968.42527,525.61063 2.9584,11.29183 c 0,0 3.28711,-10.96919 2.89265,-11.29183 -0.39447,-0.3226 -3.41857,-7.74295 -3.41857,-7.74295 z"
       id="path3456"
       inkscape:connector-curvature="0" />
    <path
       style="fill:#c89e00;fill-opacity:1;fill-rule:evenodd;stroke:#7b8743;stroke-width:0.72454923px;stroke-linecap:butt;stroke-linejoin:miter;stroke-opacity:1"
       d="m 959.61587,507.4792 c 0,0.2581 6.83713,12.32423 6.83713,12.32423 0,0 4.01029,-13.03402 3.68157,-13.16307 -0.32868,-0.12902 -6.70567,-7.80746 -6.70567,-7.80746 z"
       id="path3458"
       inkscape:connector-curvature="0" />
    <path
       style="fill:#c89e00;fill-opacity:1;fill-rule:evenodd;stroke:#7b8743;stroke-width:0.72454923px;stroke-linecap:butt;stroke-linejoin:miter;stroke-opacity:1"
       d="m 937.00062,508.2535 c 0.4602,0.2581 10.91317,12.64684 10.91317,12.64684 0,0 8.8094,-13.16304 8.54642,-13.16304 -0.26297,0 -10.38717,-9.16249 -10.38717,-9.16249 z"
       id="path3460"
       inkscape:connector-curvature="0" />
    <path
       style="fill:#c89e00;fill-opacity:1;fill-rule:evenodd;stroke:#7b8743;stroke-width:0.72454923px;stroke-linecap:butt;stroke-linejoin:miter;stroke-opacity:1"
       d="m 908.37589,506.9465 c 0,0 11.43911,12.19518 11.70208,12.25969 0.26294,0.0645 12.35945,-12.13064 12.03077,-12.25969 -0.32872,-0.12905 -11.37337,-10.19489 -11.37337,-10.19489 z"
       id="path3462"
       inkscape:connector-curvature="0" />
    <path
       style="fill:#c89e00;fill-opacity:1;fill-rule:evenodd;stroke:#7b8743;stroke-width:0.72454923px;stroke-linecap:butt;stroke-linejoin:miter;stroke-opacity:1"
       d="m 884.86722,508.5761 7.69179,11.74353 11.76783,-12.51782 c 0,0 -8.28349,-9.7432 -8.94092,-9.54965 -0.6574,0.1936 -10.5187,10.32394 -10.5187,10.32394 z"
       id="path3464"
       inkscape:connector-curvature="0" />
    <path
       style="fill:#c89e00;fill-opacity:1;fill-rule:evenodd;stroke:#7b8743;stroke-width:0.72454923px;stroke-linecap:butt;stroke-linejoin:miter;stroke-opacity:1"
       d="m 876.91241,498.89741 3.94452,9.42063 -7.56035,12.45325 -2.49818,-12.64684 z"
       id="path3466"
       inkscape:connector-curvature="0" />
    <path
       style="fill:#c89e00;fill-opacity:1;fill-rule:evenodd;stroke:#7b8743;stroke-width:0.72454923px;stroke-linecap:butt;stroke-linejoin:miter;stroke-opacity:1"
       d="m 879.21337,495.41307 4.14174,9.42063 9.66411,-9.93683 -5.32513,-8.06555 z"
       id="path3468"
       inkscape:connector-curvature="0" />
    <path
       style="fill:#c89e00;fill-opacity:1;fill-rule:evenodd;stroke:#7b8743;stroke-width:0.72454923px;stroke-linecap:butt;stroke-linejoin:miter;stroke-opacity:1"
       d="m 896.63501,495.28402 9.26964,9.74324 12.42523,-10.64659 -10.12427,-7.74295 z"
       id="path3470"
       inkscape:connector-curvature="0" />
    <path
       style="fill:#c89e00;fill-opacity:1;fill-rule:evenodd;stroke:#7b8743;stroke-width:0.72454923px;stroke-linecap:butt;stroke-linejoin:miter;stroke-opacity:1"
       d="m 922.99754,494.63877 11.04468,10.25944 10.12429,-10.51754 -11.30764,-7.67844 z"
       id="path3472"
       inkscape:connector-curvature="0" />
    <path
       style="fill:#c89e00;fill-opacity:1;fill-rule:evenodd;stroke:#7b8743;stroke-width:0.72454923px;stroke-linecap:butt;stroke-linejoin:miter;stroke-opacity:1"
       d="m 948.63697,494.96141 8.15196,9.80775 4.93067,-9.7432 c 0,0 -7.56031,-8.90443 -7.95477,-8.45278 -0.39446,0.45169 -5.12786,8.38823 -5.12786,8.38823 z"
       id="path3474"
       inkscape:connector-curvature="0" />
    <path
       style="fill:#c89e00;fill-opacity:1;fill-rule:evenodd;stroke:#7b8743;stroke-width:0.72454923px;stroke-linecap:butt;stroke-linejoin:miter;stroke-opacity:1"
       d="m 954.81669,484.70198 c 0,0 5.98253,7.872 6.77142,7.54939 0.78892,-0.32261 1.7093,-6.8396 1.7093,-6.8396 l -7.36311,-7.22678 z"
       id="path3476"
       inkscape:connector-curvature="0" />
    <path
       style="fill:#c89e00;fill-opacity:1;fill-rule:evenodd;stroke:#7b8743;stroke-width:0.72454923px;stroke-linecap:butt;stroke-linejoin:miter;stroke-opacity:1"
       d="m 934.63388,484.18578 c 0,0 10.12428,8.25915 10.38726,8.25915 0.26297,0 6.17976,-8.9044 5.91678,-8.9044 -0.26294,0 -9.99279,-6.12984 -9.99279,-6.12984 z"
       id="path3478"
       inkscape:connector-curvature="0" />
    <path
       style="fill:#c89e00;fill-opacity:1;fill-rule:evenodd;stroke:#7b8743;stroke-width:0.72454923px;stroke-linecap:butt;stroke-linejoin:miter;stroke-opacity:1"
       d="m 910.81398,484.45109 c 0.27894,0.1825 8.78598,8.1214 9.20436,8.1214 0.41838,0 11.20327,-9.07954 11.20327,-9.07954 l -10.69191,-6.25074 z"
       id="path3480"
       inkscape:connector-curvature="0" />
    <path
       style="fill:#c89e00;fill-opacity:1;fill-rule:evenodd;stroke:#7b8743;stroke-width:0.72454923px;stroke-linecap:butt;stroke-linejoin:miter;stroke-opacity:1"
       d="m 890.17391,484.22298 c 0,0 4.69517,8.89701 4.97408,8.53201 0.27891,-0.365 11.01734,-8.07576 10.92436,-8.39515 -0.0929,-0.3194 -6.88001,-7.30013 -6.88001,-7.30013 z"
       id="path3482"
       inkscape:connector-curvature="0" />
    <path
       style="fill:#c89e00;fill-opacity:1;fill-rule:evenodd;stroke:#7b8743;stroke-width:0.72454923px;stroke-linecap:butt;stroke-linejoin:miter;stroke-opacity:1"
       d="m 878.18037,485.68298 c 0,0.31939 0.32544,6.38762 0.32544,6.38762 0,0 8.69296,-7.89326 8.69296,-8.21266 0,-0.31939 -2.0454,-7.16326 -2.0454,-6.98073 0,0.1825 -6.973,8.80577 -6.973,8.80577 z"
       id="path3484"
       inkscape:connector-curvature="0" />
    <path
       style="fill:#c89e00;fill-opacity:1;fill-rule:evenodd;stroke:#7b8743;stroke-width:0.72454923px;stroke-linecap:butt;stroke-linejoin:miter;stroke-opacity:1"
       d="m 887.38473,475.73654 c 0,0.63878 0.74378,5.38388 0.79027,5.74888 0.0465,0.36499 10.32002,-6.20513 10.32002,-6.20513 0,0 -2.3708,-5.24695 -2.74269,-5.24695 -0.37189,0 -8.3676,5.7032 -8.3676,5.7032 z"
       id="path3486"
       inkscape:connector-curvature="0" />
    <path
       style="fill:#c89e00;fill-opacity:1;fill-rule:evenodd;stroke:#7b8743;stroke-width:0.72454923px;stroke-linecap:butt;stroke-linejoin:miter;stroke-opacity:1"
       d="m 902.81831,476.01032 5.95027,6.02259 c 0,0 9.48327,-6.57012 9.0184,-6.75262 -0.46487,-0.1825 -6.41515,-4.88195 -6.92651,-4.6082 -0.51136,0.27375 -8.04216,5.33823 -8.04216,5.33823 z"
       id="path3488"
       inkscape:connector-curvature="0" />
    <path
       style="fill:#c89e00;fill-opacity:1;fill-rule:evenodd;stroke:#7b8743;stroke-width:0.72454923px;stroke-linecap:butt;stroke-linejoin:miter;stroke-opacity:1"
       d="m 923.31888,475.73654 c 0,0 8.27461,6.47887 8.55352,6.43327 0.27894,-0.0457 6.69409,-6.93513 6.46167,-6.93513 -0.23245,0 -7.85624,-5.56638 -8.13518,-5.33823 -0.27891,0.2281 -6.88001,5.84009 -6.88001,5.84009 z"
       id="path3490"
       inkscape:connector-curvature="0" />
    <path
       style="fill:#c89e00;fill-opacity:1;fill-rule:evenodd;stroke:#7b8743;stroke-width:0.72454923px;stroke-linecap:butt;stroke-linejoin:miter;stroke-opacity:1"
       d="m 941.63461,475.91904 c 2.32431,0.45628 9.76221,6.57016 9.76221,6.57016 l 1.20865,-1.46003 0.46486,-5.47513 -8.3676,-5.20134 z"
       id="path3492"
       inkscape:connector-curvature="0" />
    <path
       style="fill:#7b8743;fill-opacity:1;fill-rule:evenodd;stroke:#c89e00;stroke-width:0.72454923px;stroke-linecap:butt;stroke-linejoin:miter;stroke-opacity:1"
       d="m 898.49502,469.25766 c 0.65083,3.55885 1.48758,4.1976 1.48758,4.1976 l 2.51027,0.0913 5.39246,-3.92381 c 0,0 5.57839,-0.82129 5.67137,-0.45629 0.0929,0.36504 5.39247,4.28885 5.39247,4.28885 l 3.62593,0.27375 3.90487,-4.83635 4.83462,-0.1825 c 0,0 5.76435,5.01885 6.13624,5.01885 0.37188,0 3.1611,-0.1825 3.1611,-0.1825 l 2.13834,-4.83635 -2.41729,-1.09503 c 0,0 -1.67351,-1.00375 -0.65079,-1.36874 1.02268,-0.36504 1.85944,-0.45629 1.85944,-0.45629 0,0 11.43572,-1.18628 14.78275,0 3.34703,1.18628 1.67351,-2.09878 1.67351,-2.09878 0,0 -5.4854,-2.82878 -15.89841,-2.92006 -10.413,-0.0912 -14.87573,0.91253 -15.61951,0.91253 -0.74377,0 -13.29515,-6.93512 -13.29515,-6.93512 0,0 -2.60325,-2.92007 -2.60325,0.63875 0,3.55881 0.37185,4.38009 -0.18597,5.38384 -0.55785,1.00378 -2.78921,0.0913 -3.34702,0.0913 -0.55785,0 -4.9276,-0.18253 -8.27462,-0.18253 -3.34706,0 -6.04326,0 -9.29734,0.18253 -3.25404,0.1825 -3.53299,-0.18253 -3.81189,0.5475 -0.27895,0.73 -1.1157,2.37253 1.11566,2.82878 2.23136,0.45628 9.85519,0.45628 11.43572,1.18628 1.58053,0.73004 3.1611,1.27753 0.27891,3.83256 z"
       id="path3494"
       inkscape:connector-curvature="0" />
    <path
       style="fill:#7b8743;fill-opacity:1;fill-rule:evenodd;stroke:#c89e00;stroke-width:0.72454923px;stroke-linecap:butt;stroke-linejoin:miter;stroke-opacity:1"
       d="m 925.45726,458.30748 c 0,0 7.06597,-7.66516 13.10923,-8.30391 6.0433,-0.63875 17.1071,0.0913 18.5017,1.91628 1.39454,1.82503 2.41729,3.8326 -1.3946,3.28507 -3.8119,-0.5475 -7.06598,0.1825 -9.85516,2.19003 -2.78921,2.00753 -2.60328,2.00753 -3.44005,2.00753 -0.83675,0 -13.853,0.27378 -14.59678,0.73003 -0.74378,0.45625 -2.97514,1.00375 -2.32434,-1.82503 z"
       id="path3496"
       inkscape:connector-curvature="0" />
    <path
       style="fill:#7b8743;fill-opacity:1;fill-rule:evenodd;stroke:#c89e00;stroke-width:0.72454923px;stroke-linecap:butt;stroke-linejoin:miter;stroke-opacity:1"
       d="m 909.37289,452.64985 c 0,0 -4.09081,-4.56256 -6.32217,-4.38006 -2.23136,0.1825 -7.15895,0.82125 -8.92541,-0.0912 -1.76653,-0.91253 -6.60111,-3.65006 -9.94817,-3.19381 -3.34703,0.45625 -3.06812,0.5475 -1.39457,2.09878 1.67348,1.55128 9.48323,4.92759 11.24976,8.21266 1.76649,3.28506 2.78917,3.74131 4.92755,3.92384 2.13842,0.18247 8.73949,0.5475 9.4833,0.5475 0.74378,0 0.92971,-7.11766 0.92971,-7.11766 z"
       id="path3498"
       inkscape:connector-curvature="0" />
    <path
       style="fill:#7b8743;fill-opacity:1;fill-rule:evenodd;stroke:#c89e00;stroke-width:0.72454923px;stroke-linecap:butt;stroke-linejoin:miter;stroke-opacity:1"
       d="m 914.85829,453.37989 8.46059,5.65759 c 0,0 4.36977,-5.4751 5.02057,-5.65759 0.65079,-0.1825 2.23133,-2.92007 0.55785,-5.1101 -1.67355,-2.19003 -4.74167,-4.10634 -5.67141,-5.74887 -0.9297,-1.64254 -2.23132,-2.46378 -2.23132,-2.46378 0,0 -5.76435,6.47887 -6.22922,7.66512 -0.46487,1.18628 -0.093,5.11013 0.0929,5.65763 z"
       id="path3500"
       inkscape:connector-curvature="0" />
    <path
       style="fill:#7b8743;fill-opacity:1;fill-rule:evenodd;stroke:#c89e00;stroke-width:0.72454923px;stroke-linecap:butt;stroke-linejoin:miter;stroke-opacity:1"
       d="m 938.38056,448.63479 c 0.27891,-0.63875 11.24977,-11.68022 27.61301,-16.79031 16.36331,-5.11009 7.25194,-6.38763 7.25194,-6.38763 0,0 -19.15249,2.46382 -23.70816,4.3801 -4.55567,1.91628 -13.2952,6.29634 -14.50385,6.84387 -1.20864,0.5475 -6.78707,3.74132 -7.06594,4.7451 -0.27891,1.00375 -1.20864,3.01131 -1.20864,3.01131 0,0 2.69616,0.5475 2.9751,1.46003 0.27894,0.9125 1.02272,3.37631 0.92977,4.47131 -0.093,1.09503 0,1.91628 0,1.91628 0,0 6.04322,-3.55881 7.71677,-3.65006 z"
       id="path3502"
       inkscape:connector-curvature="0" />
    <path
       style="fill:#7b8743;fill-opacity:1;fill-rule:evenodd;stroke:#c89e00;stroke-width:0.72454923px;stroke-linecap:butt;stroke-linejoin:miter;stroke-opacity:1"
       d="m 912.1621,452.3761 c 0,0 -4.27677,-5.11009 -7.2519,-5.47509 -2.97518,-0.365 -3.06812,0.27375 -4.9276,0.0912 -1.85947,-0.1825 -1.58053,0.0913 -3.25404,-0.73 -1.67355,-0.82128 -2.13842,-1.27753 -4.36978,-2.82881 -2.23133,-1.55128 -3.25405,-2.09878 -7.2519,-3.65006 -3.99786,-1.55128 -9.66923,-4.3801 -13.10924,-4.9276 -3.44,-0.54753 -3.99782,-0.54753 -4.92755,-0.54753 -0.92974,0 -9.39032,-4.10631 -3.1611,-4.28881 6.22921,-0.1825 18.22275,0.73003 22.77845,2.28128 4.55567,1.55128 8.73946,2.28131 10.87787,3.74135 2.13839,1.46003 4.64866,1.46003 7.53085,3.83256 2.88216,2.37253 6.60107,5.56634 7.34485,6.02262 0.74381,0.45625 1.3946,0.1825 0.65083,2.28128 -0.74378,2.09878 -1.02272,3.74131 -0.92974,4.19756 z"
       id="path3504"
       inkscape:connector-curvature="0" />
    <path
       style="fill:#7b8743;fill-opacity:1;fill-rule:evenodd;stroke:#c89e00;stroke-width:0.72454923px;stroke-linecap:butt;stroke-linejoin:miter;stroke-opacity:1"
       d="m 918.11237,435.85958 c 5.95028,-4.0151 19.43144,-16.51657 27.79901,-21.35291 8.3676,-4.83634 10.78489,-7.20887 20.45411,-9.12519 9.66923,-1.91628 8.3676,-3.55881 10.22704,-1.82503 1.85948,1.73378 5.20654,2.09878 2.23137,3.01131 -2.97514,0.91254 -7.34489,0.0912 -9.85516,1.095 -2.51027,1.00378 -0.92973,-0.18246 -4.27676,3.37635 -3.34706,3.55881 -6.88001,7.02637 -8.18167,7.93887 -1.30159,0.91253 -3.43998,3.55885 -5.11349,5.38388 -1.67351,1.82503 -2.60325,3.19377 -3.99785,4.10631 -1.39461,0.91253 -4.92761,1.82503 -6.78704,3.19381 -1.85948,1.36878 -1.85948,1.55128 -5.29949,3.28506 -3.44004,1.73378 -5.48544,1.46003 -6.88001,3.65006 -1.39461,2.19003 -1.85947,4.65385 -2.69623,3.55882 -0.83679,-1.095 -1.30166,-3.19382 -2.78921,-3.19382 -1.48755,0 -3.53299,-0.1825 -3.53299,-0.1825 0,0 -0.83672,-0.1825 -1.20864,-0.72999 -0.37189,-0.5475 -0.093,-2.19003 -0.093,-2.19003 z"
       id="path3506"
       inkscape:connector-curvature="0" />
    <path
       style="fill:#7b8743;fill-opacity:1;fill-rule:evenodd;stroke:#c89e00;stroke-width:0.72454923px;stroke-linecap:butt;stroke-linejoin:miter;stroke-opacity:1"
       d="m 913.2778,444.2547 c 2.32431,-0.5475 3.71891,-0.73 3.25404,-3.19378 -0.46487,-2.46382 -1.85947,-3.55881 -3.25404,-4.65385 -1.39464,-1.09503 2.23132,1.00375 -4.64869,-5.38387 -6.88001,-6.38759 -10.32002,-5.93134 -14.68976,-8.21262 -4.36975,-2.28132 -11.34274,-6.38763 -14.13195,-7.20891 -2.78918,-0.82125 -6.88002,-2.64632 -8.46055,-3.83256 -1.58057,-1.18629 -3.44001,-2.64632 -5.67141,-2.19007 -2.23132,0.45629 -1.58053,1.18628 0.27895,2.82881 1.85947,1.64254 -0.46487,1.55129 5.11352,6.02263 5.57839,4.47135 6.3222,5.47509 9.57624,7.66516 3.25408,2.19003 1.58057,1.36875 6.41518,3.55881 4.83458,2.19003 6.78704,3.83256 11.71463,4.83631 4.92756,1.00378 5.57839,2.09881 7.90273,4.19759 2.32434,2.09878 4.83458,5.20135 5.11352,5.56635 0.27891,0.36503 1.48759,0 1.48759,0 z"
       id="path3508"
       inkscape:connector-curvature="0" />
    <path
       style="fill:#7b8743;fill-opacity:1;fill-rule:evenodd;stroke:#c89e00;stroke-width:0.72454923px;stroke-linecap:butt;stroke-linejoin:miter;stroke-opacity:1"
       d="m 915.60211,435.95083 c -0.37189,-1.46007 -3.34707,-5.84013 -4.46273,-6.75266 -1.11566,-0.9125 -6.04322,-2.55503 -8.55353,-4.28881 -2.5103,-1.73378 -7.43786,-6.57013 -7.99571,-6.93513 -0.55781,-0.36503 -0.37189,0.365 -1.11566,-2.00756 -0.74378,-2.37253 -9.39032,-14.05275 -11.90059,-15.23903 -2.51027,-1.18625 1.67351,-2.73753 5.2065,-1.18625 3.53299,1.55128 11.24976,3.92381 13.76006,4.83634 2.51027,0.9125 5.39243,4.10631 7.99568,6.84388 2.60325,2.73753 4.74167,3.65006 5.39246,5.29259 0.6508,1.64253 3.1611,6.38763 3.34703,8.57766 0.18596,2.19003 1.85947,4.56259 0.74377,6.66137 -1.11566,2.09878 -2.41728,4.1976 -2.41728,4.1976 z"
       id="path3510"
       inkscape:connector-curvature="0" />
    <path
       style="fill:#7b8743;fill-opacity:1;fill-rule:evenodd;stroke:#c89e00;stroke-width:0.72454923px;stroke-linecap:butt;stroke-linejoin:miter;stroke-opacity:1"
       d="m 920.62268,430.38445 c -0.093,-2.19003 1.11566,-2.00753 -0.27894,-5.38384 -1.39457,-3.37632 -1.76646,-3.37632 -1.95242,-4.5626 -0.18596,-1.18628 -2.32435,-3.92381 8.46054,-10.12894 10.78493,-6.20512 12.64437,-10.12893 16.36329,-11.95396 3.71895,-1.82503 7.7168,-3.28506 9.20435,-3.65006 1.48759,-0.365 6.22922,-1.91628 4.09081,0.365 -2.13835,2.28127 -4.46266,3.74131 -7.62376,7.48262 -3.1611,3.74134 -2.0454,2.28131 -5.57839,6.57012 -3.53303,4.28885 -4.83465,6.11388 -5.67137,7.66516 -0.83676,1.55128 0.18592,2.19003 -3.25408,4.10635 -3.44001,1.91628 -5.67137,2.73752 -7.25194,4.10631 -1.58053,1.36878 -2.32431,2.00753 -3.25405,2.92006 -0.92973,0.9125 -3.16106,2.82881 -3.16106,2.82881 z"
       id="path3512"
       inkscape:connector-curvature="0" />
    <path
       style="fill:#7b8743;fill-opacity:1;fill-rule:evenodd;stroke:#c89e00;stroke-width:0.72454923px;stroke-linecap:butt;stroke-linejoin:miter;stroke-opacity:1"
       d="m 916.34588,417.4267 c 0,-0.365 -6.50813,-5.29259 -7.62379,-7.57387 -1.1157,-2.28132 1.39461,-8.39516 1.39461,-10.49397 0,-2.09878 0.55781,-5.74885 0.65083,-7.75638 0.0929,-2.00753 -2.97518,-8.39515 -1.1157,-11.22397 1.85944,-2.82881 2.69623,-5.11009 3.71891,-0.27375 1.02272,4.83635 3.44001,7.75641 4.46273,9.85519 1.02272,2.09878 3.1611,4.7451 3.53295,6.93513 0.37192,2.19003 2.13842,3.28506 3.1611,6.93512 1.02272,3.6501 0.37189,5.65763 -0.6508,6.57012 -1.02271,0.91254 -3.62596,3.8326 -4.64865,4.65385 -1.02271,0.82125 -2.88219,2.37253 -2.88219,2.37253 z"
       id="path3514"
       inkscape:connector-curvature="0" />
    <path
       style="fill:#7b8743;fill-opacity:1;fill-rule:evenodd;stroke:#c89e00;stroke-width:0.72454923px;stroke-linecap:butt;stroke-linejoin:miter;stroke-opacity:1"
       d="m 928.06054,406.56776 c -0.27894,-2.55506 -2.97517,-4.19756 -2.88219,-5.20134 0.093,-1.00378 1.76649,-3.46756 3.1611,-5.47509 1.39457,-2.00757 3.25404,-4.83638 4.74163,-5.47513 1.48755,-0.63875 2.51027,-0.82125 2.51027,-0.82125 0,0 -0.27891,0.63875 -0.55785,5.01885 -0.27891,4.38006 -0.46487,3.55881 -0.27891,4.83634 0.18597,1.2775 0.6508,1.2775 0.18597,2.19003 -0.46487,0.9125 -2.41733,1.82503 -3.90488,3.01131 -1.48762,1.18625 -2.97514,1.91628 -2.97514,1.91628 z"
       id="path3516"
       inkscape:connector-curvature="0" />
    <path
       style="fill:#7b8743;fill-opacity:1;fill-rule:evenodd;stroke:#c89e00;stroke-width:0.72454923px;stroke-linecap:butt;stroke-linejoin:miter;stroke-opacity:1"
       d="m 907.42047,406.84151 c 0.2789,-3.92381 0.37188,-3.55881 0.18592,-6.20512 -0.18592,-2.64628 0.74381,-2.00753 -1.02268,-3.74131 -1.76649,-1.73378 1.85947,0 -3.62597,-3.92381 -5.48541,-3.92385 -8.64651,-4.65385 -8.64651,-4.65385 0,0 -0.46486,4.10631 1.11567,6.02263 1.58056,1.91628 3.71895,0.73 3.99785,4.10631 0.27895,3.37631 -0.18592,4.01506 1.7665,5.01884 1.95242,1.00378 5.85733,3.37631 5.85733,3.37631 z"
       id="path3518"
       inkscape:connector-curvature="0" />
    <path
       inkscape:connector-curvature="0"
       style="fill:#c89e00;fill-opacity:1;fill-rule:evenodd;stroke:#7b8743;stroke-width:0.72454923px;stroke-linecap:butt;stroke-linejoin:miter;stroke-opacity:1"
       d="m 907.46946,542.94795 c 0.39447,0.2581 12.71025,12.40336 12.71025,12.40336 l 14.07444,-12.07154 -12.50422,7.45444 -0.90133,-20.14879 -2.98447,20.25 z"
       id="path3414-0-4"
       sodipodi:nodetypes="ccccccc" />
    <path
       style="fill:#000000;fill-opacity:1;fill-rule:evenodd;stroke:#c89e00;stroke-width:0.72454923px;stroke-linecap:butt;stroke-linejoin:miter;stroke-opacity:1"
       d="m 925.22127,508.30642 26.85666,-5.83529 12.0957,6.64014 c 0,0 -0.20501,13.28029 -3.28019,15.49367 -3.07522,2.21338 -16.19597,5.83529 -21.11629,3.42068 -4.92028,-2.4146 -13.53083,-13.28028 -14.55588,-19.7192 z"
       id="path5077"
       inkscape:connector-curvature="0" />
    <path
       style="fill:#000000;fill-opacity:1;fill-rule:evenodd;stroke:#c89e00;stroke-width:0.72454923px;stroke-linecap:butt;stroke-linejoin:miter;stroke-opacity:1"
       d="m 916.58805,508.61493 -26.85665,-5.83529 -12.09574,6.64018 c 0,0 0.20501,13.28029 3.28019,15.49367 3.07519,2.21338 16.19601,5.83525 21.11629,3.42068 4.92035,-2.4146 13.53086,-13.28032 14.55591,-19.71924 z"
       id="path5077-4"
       inkscape:connector-curvature="0" />
    <path
       style="fill:#c89e00;fill-opacity:1;fill-rule:evenodd;stroke:#7b8743;stroke-width:0.72454923px;stroke-linecap:butt;stroke-linejoin:miter;stroke-opacity:1"
       d="m 923.01895,563.8362 13.1919,-4.97988 -1.15972,8.25233 -13.33688,-1.4228 z"
       id="path5111"
       inkscape:connector-curvature="0" />
    <path
       style="fill:#c89e00;fill-opacity:1;fill-rule:evenodd;stroke:#7b8743;stroke-width:0.72454923px;stroke-linecap:butt;stroke-linejoin:miter;stroke-opacity:1"
       d="m 937.22562,558.85632 c 0,0.56912 -1.01477,7.96777 -1.01477,7.96777 l 10.00265,-0.42682 2.60939,-12.23623 z"
       id="path5115"
       inkscape:connector-curvature="0" />
    <path
       style="fill:#c89e00;fill-opacity:1;fill-rule:evenodd;stroke:#7b8743;stroke-width:0.72454923px;stroke-linecap:butt;stroke-linejoin:miter;stroke-opacity:1"
       d="m 945.99606,567.39321 0.36242,3.20133 -1.88456,2.2054 -5.00133,-5.33559 z"
       id="path5117"
       inkscape:connector-curvature="0" />
    <path
       style="fill:#c89e00;fill-opacity:1;fill-rule:evenodd;stroke:#7b8743;stroke-width:0.72454923px;stroke-linecap:butt;stroke-linejoin:miter;stroke-opacity:1"
       d="m 950.12759,553.44962 -0.5074,2.77452 3.62413,-3.34364 6.01609,-0.14226 -0.28993,-2.56107 z"
       id="path5119"
       inkscape:connector-curvature="0" />
    <path
       style="fill:#c89e00;fill-opacity:1;fill-rule:evenodd;stroke:#7b8743;stroke-width:0.72454923px;stroke-linecap:butt;stroke-linejoin:miter;stroke-opacity:1"
       d="m 959.98522,549.67916 0.36242,3.4859 3.1168,0.92486 1.81203,-0.35571 z"
       id="path5121"
       inkscape:connector-curvature="0" />
    <path
       style="fill:#c89e00;fill-opacity:1;fill-rule:evenodd;stroke:#7b8743;stroke-width:0.72454923px;stroke-linecap:butt;stroke-linejoin:miter;stroke-opacity:1"
       d="m 961.86977,549.32346 3.47919,3.05907 1.52213,-3.13022 -0.0725,-1.92077 z"
       id="path5123"
       inkscape:connector-curvature="0" />
    <path
       style="fill:#c89e00;fill-opacity:1;fill-rule:evenodd;stroke:#7b8743;stroke-width:0.72454923px;stroke-linecap:butt;stroke-linejoin:miter;stroke-opacity:1"
       d="m 967.95147,547.14671 0,1.4228 4.78388,-1.7074 0.21744,-1.63624 z"
       id="path5125"
       inkscape:connector-curvature="0" />
    <path
       style="fill:#c89e00;fill-opacity:1;fill-rule:evenodd;stroke:#7b8743;stroke-width:0.72454923px;stroke-linecap:butt;stroke-linejoin:miter;stroke-opacity:1"
       d="m 918.45067,563.83298 -13.1919,-4.97988 1.15972,8.25233 13.33684,-1.4228 z"
       id="path5111-9"
       inkscape:connector-curvature="0" />
    <path
       style="fill:#c89e00;fill-opacity:1;fill-rule:evenodd;stroke:#7b8743;stroke-width:0.72454923px;stroke-linecap:butt;stroke-linejoin:miter;stroke-opacity:1"
       d="m 904.244,558.8531 c 0,0.56912 1.01477,7.96777 1.01477,7.96777 l -10.00264,-0.42685 -2.6094,-12.2362 z"
       id="path5115-8"
       inkscape:connector-curvature="0" />
    <path
       style="fill:#c89e00;fill-opacity:1;fill-rule:evenodd;stroke:#7b8743;stroke-width:0.72454923px;stroke-linecap:butt;stroke-linejoin:miter;stroke-opacity:1"
       d="m 895.47356,567.38999 -0.36242,3.20134 1.8846,2.2054 5.00128,-5.33559 z"
       id="path5117-5"
       inkscape:connector-curvature="0" />
    <path
       style="fill:#c89e00;fill-opacity:1;fill-rule:evenodd;stroke:#7b8743;stroke-width:0.72454923px;stroke-linecap:butt;stroke-linejoin:miter;stroke-opacity:1"
       d="m 891.34207,553.4464 0.50736,2.77449 -3.62416,-3.3436 -6.01606,-0.14227 0.28993,-2.5611 z"
       id="path5119-1"
       inkscape:connector-curvature="0" />
    <path
       style="fill:#c89e00;fill-opacity:1;fill-rule:evenodd;stroke:#7b8743;stroke-width:0.72454923px;stroke-linecap:butt;stroke-linejoin:miter;stroke-opacity:1"
       d="m 881.48437,549.67595 -0.36238,3.4859 -3.1168,0.92482 -1.81207,-0.35567 z"
       id="path5121-6"
       inkscape:connector-curvature="0" />
    <path
       style="fill:#c89e00;fill-opacity:1;fill-rule:evenodd;stroke:#7b8743;stroke-width:0.72454923px;stroke-linecap:butt;stroke-linejoin:miter;stroke-opacity:1"
       d="m 879.59981,549.32024 -3.47918,3.05904 -1.52214,-3.13019 0.0725,-1.9208 z"
       id="path5123-2"
       inkscape:connector-curvature="0" />
    <path
       style="fill:#c89e00;fill-opacity:1;fill-rule:evenodd;stroke:#7b8743;stroke-width:0.72454923px;stroke-linecap:butt;stroke-linejoin:miter;stroke-opacity:1"
       d="m 873.58097,546.56349 0,1.4228 -4.78389,-1.70736 -0.21743,-1.63624 z"
       id="path5125-8"
       inkscape:connector-curvature="0" />
    <path
       inkscape:connector-curvature="0"
       style="fill:#7b8743;fill-opacity:1;fill-rule:evenodd;stroke:#000000;stroke-width:0.32823366px;stroke-linecap:butt;stroke-linejoin:miter;stroke-opacity:1"
       d="m 930.10344,571.14724 -0.65069,4.08575 c 0,0 4.19247,0.18002 4.45965,0.0888 0.26718,-0.0913 0.53729,-5.28224 -0.14975,-6.3771 -0.68701,-1.09482 0.0734,-0.54397 -0.3083,-1.36507 -0.38171,-0.82115 -1.25266,-0.0749 -1.25266,-0.0749 0,0 -1.27227,-0.23153 -1.46315,0.36154 -0.19083,0.59304 -0.71145,3.00729 -0.6351,3.28097 z"
       id="path3500-3"
       sodipodi:nodetypes="ccssscsc" />
    <path
       inkscape:connector-curvature="0"
       style="fill:#7b8743;fill-opacity:1;fill-rule:evenodd;stroke:#000000;stroke-width:0.32823366px;stroke-linecap:butt;stroke-linejoin:miter;stroke-opacity:1"
       d="m 907.945,571.13144 -0.65069,4.08572 c 0,0 4.19251,0.18006 4.45969,0.0888 0.26714,-0.0913 0.53725,-5.28225 -0.14975,-6.3771 -0.68704,-1.09486 0.0734,-0.54393 -0.30834,-1.36507 -0.38167,-0.82115 -1.25266,-0.0749 -1.25266,-0.0749 0,0 -1.27227,-0.23153 -1.4631,0.36154 -0.19084,0.59303 -0.71145,3.00725 -0.63515,3.28096 z"
       id="path3500-3-8"
       sodipodi:nodetypes="ccssscsc" />
    <path
       inkscape:connector-curvature="0"
       style="fill:#7b8743;fill-opacity:1;fill-rule:evenodd;stroke:#000000;stroke-width:0.32823366px;stroke-linecap:butt;stroke-linejoin:miter;stroke-opacity:1"
       d="m 913.04308,570.56215 -0.26177,4.74976 c 0,0 0.94472,0.65976 1.86382,0.71007 0.91116,0.0499 1.79613,-0.50945 1.92914,-0.55485 0.26718,-0.0912 0.53729,-5.28227 -0.14975,-6.3771 -0.68701,-1.09485 0.0734,-0.54396 -0.3083,-1.36507 -0.38167,-0.8211 -1.25266,-0.0749 -1.25266,-0.0749 0,0 -1.9945,-0.62992 -2.18537,-0.0369 -0.1908,0.59303 0.36489,2.94896 0.36489,2.94896 z"
       id="path3500-3-8-7"
       sodipodi:nodetypes="ccsssscscc" />
    <path
       inkscape:connector-curvature="0"
       style="fill:#7b8743;fill-opacity:1;fill-rule:evenodd;stroke:#000000;stroke-width:0.32823366px;stroke-linecap:butt;stroke-linejoin:miter;stroke-opacity:1"
       d="m 928.62828,570.35753 0.26181,4.74973 c 0,0 -0.94475,0.65976 -1.86385,0.71007 -0.91109,0.0499 -1.79614,-0.50945 -1.92914,-0.55485 -0.26715,-0.0912 -0.53726,-5.28224 0.14975,-6.37709 0.687,-1.09483 -0.0733,-0.54397 0.3083,-1.36511 0.38171,-0.82111 1.25266,-0.0749 1.25266,-0.0749 0,0 1.99453,-0.62995 2.18537,-0.0369 0.19083,0.59304 -0.3649,2.949 -0.3649,2.949 z"
       id="path3500-3-8-7-3"
       sodipodi:nodetypes="ccsssscscc" />
    <path
       inkscape:connector-curvature="0"
       style="fill:#7b8743;fill-opacity:1;fill-rule:evenodd;stroke:#000000;stroke-width:0.32823366px;stroke-linecap:butt;stroke-linejoin:miter;stroke-opacity:1"
       d="m 917.35885,569.79311 -0.17847,6.24374 c 0,0 0.80584,0.0622 1.72495,0.11248 0.91115,0.0499 1.37945,0.15456 1.51245,0.10916 0.4848,-2.53726 -0.0711,-8.62623 -0.45801,-9.50181 -1.43191,-0.0673 -2.81889,-0.22892 -2.96581,0.0874 -0.19084,0.59304 0.36489,2.949 0.36489,2.949 z"
       id="path3500-3-8-7-9"
       sodipodi:nodetypes="ccsccccc" />
    <path
       inkscape:connector-curvature="0"
       style="fill:#7b8743;fill-opacity:1;fill-rule:evenodd;stroke:#000000;stroke-width:0.32823366px;stroke-linecap:butt;stroke-linejoin:miter;stroke-opacity:1"
       d="m 924.26175,569.84088 0.17844,6.24377 c 0,0 -0.80584,0.0622 -1.72491,0.11248 -0.91116,0.0499 -1.37949,0.15459 -1.5125,0.10916 -0.48479,-2.53726 0.0712,-8.62623 0.45806,-9.50181 1.43191,-0.0673 2.81888,-0.22892 2.96581,0.0874 0.19083,0.59304 -0.3649,2.94896 -0.3649,2.94896 z"
       id="path3500-3-8-7-9-2"
       sodipodi:nodetypes="ccsccccc" />
    <path
       inkscape:connector-curvature="0"
       style="fill:#7b8743;fill-opacity:1;fill-rule:evenodd;stroke:#000000;stroke-width:0.32823366px;stroke-linecap:butt;stroke-linejoin:miter;stroke-opacity:1"
       d="m 935.43528,571.08743 -0.17844,6.24373 c 0,0 0.80581,0.0622 1.72495,0.11252 0.91108,0.0499 1.37945,0.15452 1.51242,0.10913 0.48483,-2.53726 -0.0711,-8.62623 -0.45802,-9.50181 -1.43187,-0.0673 -2.81888,-0.22892 -2.96577,0.0874 -0.19084,0.59307 0.36486,2.949 0.36486,2.949 z"
       id="path3500-3-8-7-9-0"
       sodipodi:nodetypes="ccsccccc" />
    <path
       inkscape:connector-curvature="0"
       style="fill:#7b8743;fill-opacity:1;fill-rule:evenodd;stroke:#000000;stroke-width:0.32823366px;stroke-linecap:butt;stroke-linejoin:miter;stroke-opacity:1"
       d="m 939.92923,575.35585 c 0.37136,3.83889 -0.12813,0.53966 3.62276,0.83132 0.48479,-2.53723 -0.14805,-3.1179 -0.53496,-3.99348 -1.30375,-1.24941 -3.86955,-3.85082 -4.01648,-3.53454 -0.19083,0.59307 0.92868,6.69667 0.92868,6.69667 z"
       id="path3500-3-8-7-9-0-4"
       sodipodi:nodetypes="cccccc" />
    <path
       style="fill:#c89e00;fill-opacity:1;fill-rule:evenodd;stroke:#7b8743;stroke-width:0.72454923px;stroke-linecap:butt;stroke-linejoin:miter;stroke-opacity:1"
       d="m 914.24025,561.24927 6.50491,2.39478 5.67956,-2.89042 -6.30043,-3.86704 z"
       id="path3424-9"
       inkscape:connector-curvature="0"
       sodipodi:nodetypes="ccccc" />
    <text
       xml:space="preserve"
       style="font-style:normal;font-weight:normal;font-size:40px;line-height:125%;font-family:sans-serif;letter-spacing:0px;word-spacing:0px;fill:#000000;fill-opacity:0.43093923;stroke:none;stroke-width:1px;stroke-linecap:butt;stroke-linejoin:miter;stroke-opacity:1;"
       x="744.39972"
       y="643.96637"
       id="text11668"
       sodipodi:linespacing="125%"><tspan
         sodipodi:role="line"
         id="tspan11670"
         x="744.39972"
         y="643.96637">deadpinapple.mp4</tspan></text>
    <path
       style="fill:#c8c8c8;fill-opacity:1;fill-rule:evenodd;stroke:none;stroke-width:1px;stroke-linecap:butt;stroke-linejoin:miter;stroke-opacity:1"
       d="m 773.86147,449.51895 153.4393,45.82819 0.81356,-151.89042 -168.00166,49.10288 z"
       id="path11674"
       inkscape:connector-curvature="0"
       sodipodi:nodetypes="ccccc" />
    <circle
       style="fill:#c8c8c8;fill-opacity:1;stroke:#000000;stroke-width:2.4000001;stroke-miterlimit:4;stroke-dasharray:none;stroke-opacity:1"
       id="path11676"
       cx="917.48743"
       cy="967.3089"
       r="10.55712" />
    <text
       xml:space="preserve"
       style="font-style:normal;font-weight:normal;font-size:40px;line-height:125%;font-family:sans-serif;letter-spacing:0px;word-spacing:0px;fill:#000000;fill-opacity:0.43093923;stroke:none;stroke-width:1px;stroke-linecap:butt;stroke-linejoin:miter;stroke-opacity:1;"
       x="884.83398"
       y="352.29523"
       id="text11680"
       sodipodi:linespacing="125%"><tspan
         sodipodi:role="line"
         id="tspan11682"
         x="884.83398"
         y="352.29523"
         style="font-style:normal;font-variant:normal;font-weight:bold;font-stretch:normal;font-family:sans-serif;-inkscape-font-specification:'sans-serif Bold';fill:#000000;fill-opacity:0.43093923;">80%</tspan></text>
  </g>
</svg>
