<?xml version="1.0" encoding="UTF-8" standalone="no"?>
<!-- Created with Inkscape (http://www.inkscape.org/) -->

<svg
   xmlns:dc="http://purl.org/dc/elements/1.1/"
   xmlns:cc="http://creativecommons.org/ns#"
   xmlns:rdf="http://www.w3.org/1999/02/22-rdf-syntax-ns#"
   xmlns:svg="http://www.w3.org/2000/svg"
   xmlns="http://www.w3.org/2000/svg"
   xmlns:sodipodi="http://sodipodi.sourceforge.net/DTD/sodipodi-0.dtd"
   xmlns:inkscape="http://www.inkscape.org/namespaces/inkscape"
   width="1920"
   height="1080"
   id="svg9999"
   version="1.1"
   inkscape:version="0.91 r13725"
   viewBox="0 0 1920 1080"
   sodipodi:docname="fondananasworker.svg">
  <defs
     id="defs10001" />
  <sodipodi:namedview
     id="base"
     pagecolor="#ffffff"
     bordercolor="#666666"
     borderopacity="1.0"
     inkscape:pageopacity="0.0"
     inkscape:pageshadow="2"
     inkscape:zoom="0.78164062"
     inkscape:cx="1156.6999"
     inkscape:cy="629.52181"
     inkscape:document-units="px"
     inkscape:current-layer="g10777"
     showgrid="false"
     inkscape:window-width="1920"
     inkscape:window-height="1016"
     inkscape:window-x="0"
     inkscape:window-y="27"
     inkscape:window-maximized="1" />
  <metadata
     id="metadata10004">
    <rdf:RDF>
      <cc:Work
         rdf:about="">
        <dc:format>image/svg+xml</dc:format>
        <dc:type
           rdf:resource="http://purl.org/dc/dcmitype/StillImage" />
        <dc:title></dc:title>
      </cc:Work>
    </rdf:RDF>
  </metadata>
  <g
     id="layer1"
     inkscape:label="Layer 1"
     inkscape:groupmode="layer">
    <g
       id="g10777"
       transform="matrix(3.36305,0,0,3.3057872,617.23902,-122.269)">
      <path
         inkscape:connector-curvature="0"
         style="fill:#c89e00;fill-opacity:1;fill-rule:evenodd;stroke:#7b8743;stroke-width:1.14424491px;stroke-linecap:butt;stroke-linejoin:miter;stroke-opacity:1"
         d="m 111.64385,186.07341 17.59468,23.18125 15.57561,-22.00752 -15.57561,-19.36661 z"
         id="path3400-7" />
      <path
         inkscape:connector-curvature="0"
         style="fill:#c89e00;fill-opacity:1;fill-rule:evenodd;stroke:#7b8743;stroke-width:1.14424491px;stroke-linecap:butt;stroke-linejoin:miter;stroke-opacity:1"
         d="m 84.530736,167.88053 17.883114,19.07318 -15.864054,21.42065 -18.74841,-21.42065 z"
         id="path3402-2" />
      <path
         inkscape:connector-curvature="0"
         style="fill:#c89e00;fill-opacity:1;fill-rule:evenodd;stroke:#7b8743;stroke-width:1.14424491px;stroke-linecap:butt;stroke-linejoin:miter;stroke-opacity:1"
         d="m 36.650156,187.24714 c 0,0 8.94154,22.30095 10.38374,20.83379 1.44218,-1.46717 12.4028,-23.76812 12.4028,-23.76812 l -11.24905,-16.13884 z"
         id="path3404-3" />
      <path
         inkscape:connector-curvature="0"
         style="fill:#c89e00;fill-opacity:1;fill-rule:evenodd;stroke:#7b8743;stroke-width:1.14424491px;stroke-linecap:butt;stroke-linejoin:miter;stroke-opacity:1"
         d="m 152.89037,186.36685 12.97968,22.30095 12.11437,-21.42066 -12.97968,-19.95347 z"
         id="path3406-3" />
      <path
         inkscape:connector-curvature="0"
         style="fill:#c89e00;fill-opacity:1;fill-rule:evenodd;stroke:#7b8743;stroke-width:1.14424491px;stroke-linecap:butt;stroke-linejoin:miter;stroke-opacity:1"
         d="m 29.130376,175.88849 c 0,0.5187 2.44747,11.20439 2.44747,11.20439 l -4.58901,20.64514 -3.36527,-16.5991 z"
         id="path3408-1" />
      <path
         inkscape:connector-curvature="0"
         style="fill:#c89e00;fill-opacity:1;fill-rule:evenodd;stroke:#7b8743;stroke-width:1.14424491px;stroke-linecap:butt;stroke-linejoin:miter;stroke-opacity:1"
         d="m 34.025316,197.15609 10.80966,17.22158 -5.91472,18.4665 -9.58593,-17.63655 z"
         id="path3410-5" />
      <path
         inkscape:connector-curvature="0"
         style="fill:#c89e00;fill-opacity:1;fill-rule:evenodd;stroke:#7b8743;stroke-width:1.14424491px;stroke-linecap:butt;stroke-linejoin:miter;stroke-opacity:1"
         d="m 51.973436,216.03758 c 0,0 12.64527,16.80659 13.15516,16.91033 0.50987,0.10373 14.7868,-18.05152 14.7868,-18.05152 0,0 -15.39867,-18.98523 -15.80659,-18.57026 -0.40789,0.41497 -12.13537,19.71145 -12.13537,19.71145 z"
         id="path3412-6" />
      <path
         inkscape:connector-curvature="0"
         style="fill:#c89e00;fill-opacity:1;fill-rule:evenodd;stroke:#7b8743;stroke-width:1.14424491px;stroke-linecap:butt;stroke-linejoin:miter;stroke-opacity:1"
         d="m 89.603306,215.41511 c 0.61187,0.41496 17.642194,17.63655 17.642194,17.63655 l 17.94812,-17.53281 -17.74416,-19.19272 z"
         id="path3414-09" />
      <path
         inkscape:connector-curvature="0"
         style="fill:#c89e00;fill-opacity:1;fill-rule:evenodd;stroke:#7b8743;stroke-width:1.14424491px;stroke-linecap:butt;stroke-linejoin:miter;stroke-opacity:1"
         d="m 133.75978,215.83008 13.56306,16.49537 14.58286,-17.22157 -11.62549,-18.57026 z"
         id="path3416-5" />
      <path
         inkscape:connector-curvature="0"
         style="fill:#c89e00;fill-opacity:1;fill-rule:evenodd;stroke:#7b8743;stroke-width:1.14424491px;stroke-linecap:butt;stroke-linejoin:miter;stroke-opacity:1"
         d="m 169.14614,215.00014 5.71076,17.32531 c 0,0 9.27999,-16.70286 9.27999,-17.11783 0,-0.41501 -4.69097,-19.81519 -4.69097,-19.81519 z"
         id="path3418-3" />
      <path
         inkscape:connector-curvature="0"
         style="fill:#c89e00;fill-opacity:1;fill-rule:evenodd;stroke:#7b8743;stroke-width:1.14424491px;stroke-linecap:butt;stroke-linejoin:miter;stroke-opacity:1"
         d="m 30.016086,224.51321 c 0,0 7.93204,13.20451 7.78782,13.79138 -0.14424,0.58686 0.43265,14.9651 0.43265,14.9651 l -7.21093,-10.56359 z"
         id="path3420-9" />
      <path
         inkscape:connector-curvature="0"
         style="fill:#c89e00;fill-opacity:1;fill-rule:evenodd;stroke:#7b8743;stroke-width:1.14424491px;stroke-linecap:butt;stroke-linejoin:miter;stroke-opacity:1"
         d="m 42.995776,239.33161 c 0.28841,0.58686 11.82592,14.08481 11.82592,14.08481 l 8.94156,-15.55198 -14.13343,-15.25855 z"
         id="path3422-1" />
      <path
         inkscape:connector-curvature="0"
         style="fill:#c89e00;fill-opacity:1;fill-rule:evenodd;stroke:#7b8743;stroke-width:1.14424491px;stroke-linecap:butt;stroke-linejoin:miter;stroke-opacity:1"
         d="m 71.406836,238.59802 16.87359,14.37825 14.421854,-14.67168 -17.306224,-17.31258 z"
         id="path3424-6" />
      <path
         inkscape:connector-curvature="0"
         style="fill:#c89e00;fill-opacity:1;fill-rule:evenodd;stroke:#7b8743;stroke-width:1.14424491px;stroke-linecap:butt;stroke-linejoin:miter;stroke-opacity:1"
         d="m 111.06697,238.30459 13.98921,14.52495 17.59467,-15.40525 -13.70077,-15.84541 z"
         id="path3426-6" />
      <path
         inkscape:connector-curvature="0"
         style="fill:#c89e00;fill-opacity:1;fill-rule:evenodd;stroke:#7b8743;stroke-width:1.14424491px;stroke-linecap:butt;stroke-linejoin:miter;stroke-opacity:1"
         d="m 150.15022,239.62505 6.92249,13.79137 14.99873,-15.11183 -6.92249,-15.84542 z"
         id="path3428-3" />
      <path
         inkscape:connector-curvature="0"
         style="fill:#c89e00;fill-opacity:1;fill-rule:evenodd;stroke:#7b8743;stroke-width:1.14424491px;stroke-linecap:butt;stroke-linejoin:miter;stroke-opacity:1"
         d="m 176.54223,238.74474 c 0,0.58687 -1.15375,13.05779 -1.15375,13.05779 l 8.65311,-11.59062 1.00954,-16.28557 z"
         id="path3430-3" />
      <path
         inkscape:connector-curvature="0"
         style="fill:#c89e00;fill-opacity:1;fill-rule:evenodd;stroke:#7b8743;stroke-width:1.14424491px;stroke-linecap:butt;stroke-linejoin:miter;stroke-opacity:1"
         d="m 158.80333,257.81791 1.15377,11.15049 12.11434,-11.44391 c 0,0 1.00955,-12.76437 -0.72108,-11.59063 -1.73063,1.17374 -12.54703,11.88405 -12.54703,11.88405 z"
         id="path3432-6" />
      <path
         inkscape:connector-curvature="0"
         style="fill:#c89e00;fill-opacity:1;fill-rule:evenodd;stroke:#7b8743;stroke-width:1.14424491px;stroke-linecap:butt;stroke-linejoin:miter;stroke-opacity:1"
         d="m 128.80586,257.23105 c 0,1.02703 8.36469,11.15048 8.36469,11.15048 l 16.58513,-11.44392 -9.51843,-13.20451 z"
         id="path3434-0" />
      <path
         inkscape:connector-curvature="0"
         style="fill:#c89e00;fill-opacity:1;fill-rule:evenodd;stroke:#7b8743;stroke-width:1.14424491px;stroke-linecap:butt;stroke-linejoin:miter;stroke-opacity:1"
         d="m 67.945596,245.05356 16.2967,12.32421 -8.65312,11.00376 -14.71029,-11.15048 z"
         id="path3438-4" />
      <path
         inkscape:connector-curvature="0"
         style="fill:#c89e00;fill-opacity:1;fill-rule:evenodd;stroke:#7b8743;stroke-width:1.14424491px;stroke-linecap:butt;stroke-linejoin:miter;stroke-opacity:1"
         d="m 43.428426,245.78714 10.09531,11.2972 -1.29797,11.59063 -10.52797,-10.41689 z"
         id="path3440-2" />
      <path
         inkscape:connector-curvature="0"
         style="fill:#c89e00;fill-opacity:1;fill-rule:evenodd;stroke:#7b8743;stroke-width:1.14424491px;stroke-linecap:butt;stroke-linejoin:miter;stroke-opacity:1"
         d="m 59.927726,262.30759 c 0,0 14.37889,10.37444 13.76702,10.58193 -0.61187,0.20748 -3.16132,8.1958 -3.16132,8.1958 l -12.9512,-8.50703 z"
         id="path3442-9" />
      <path
         inkscape:connector-curvature="0"
         style="fill:#c89e00;fill-opacity:1;fill-rule:evenodd;stroke:#7b8743;stroke-width:1.14424491px;stroke-linecap:butt;stroke-linejoin:miter;stroke-opacity:1"
         d="m 78.079806,276.31309 c 0,0 13.76701,7.46959 13.15515,7.98832 -0.61187,0.51876 -3.05934,2.38612 -3.05934,2.38612 l -10.70769,-2.28239 -2.44747,-3.63105 z"
         id="path3444-6" />
      <path
         inkscape:connector-curvature="0"
         style="fill:#c89e00;fill-opacity:1;fill-rule:evenodd;stroke:#7b8743;stroke-width:1.14424491px;stroke-linecap:butt;stroke-linejoin:miter;stroke-opacity:1"
         d="m 123.66395,283.99018 c 0,0 2.24353,4.04603 2.44748,3.52732 0.20394,-0.51875 13.86901,-5.29097 13.86901,-5.29097 l -3.26329,-6.84715 z"
         id="path3452-8" />
      <path
         inkscape:connector-curvature="0"
         style="fill:#c89e00;fill-opacity:1;fill-rule:evenodd;stroke:#7b8743;stroke-width:1.14424491px;stroke-linecap:butt;stroke-linejoin:miter;stroke-opacity:1"
         d="m 141.61207,272.68203 c 0.20394,1.03745 2.14155,7.98832 2.14155,7.98832 l 13.66504,-8.71453 -1.01978,-9.02577 -1.93758,-0.31121 z"
         id="path3454-4" />
      <path
         inkscape:connector-curvature="0"
         style="fill:#c89e00;fill-opacity:1;fill-rule:evenodd;stroke:#7b8743;stroke-width:1.14424491px;stroke-linecap:butt;stroke-linejoin:miter;stroke-opacity:1"
         d="m 181.17952,188.64904 4.58902,18.15528 c 0,0 5.0989,-17.63654 4.48704,-18.15528 -0.61189,-0.51875 -5.30287,-12.44933 -5.30287,-12.44933 z"
         id="path3456-2" />
      <path
         inkscape:connector-curvature="0"
         style="fill:#c89e00;fill-opacity:1;fill-rule:evenodd;stroke:#7b8743;stroke-width:1.14424491px;stroke-linecap:butt;stroke-linejoin:miter;stroke-opacity:1"
         d="m 167.51449,159.49687 c 0,0.41496 10.60571,19.81517 10.60571,19.81517 0,0 6.22065,-20.95637 5.71076,-21.16385 -0.50987,-0.20749 -10.40175,-12.55308 -10.40175,-12.55308 z"
         id="path3458-7" />
      <path
         inkscape:connector-curvature="0"
         style="fill:#c89e00;fill-opacity:1;fill-rule:evenodd;stroke:#7b8743;stroke-width:1.14424491px;stroke-linecap:butt;stroke-linejoin:miter;stroke-opacity:1"
         d="m 132.43407,160.7418 c 0.71383,0.41496 16.92834,20.33391 16.92834,20.33391 0,0 13.66504,-21.16387 13.25714,-21.16387 -0.4079,0 -16.11252,-14.73171 -16.11252,-14.73171 z"
         id="path3460-1" />
      <path
         inkscape:connector-curvature="0"
         style="fill:#c89e00;fill-opacity:1;fill-rule:evenodd;stroke:#7b8743;stroke-width:1.14424491px;stroke-linecap:butt;stroke-linejoin:miter;stroke-opacity:1"
         d="m 88.481556,161.15677 c 0,0 17.744174,19.6077 18.152074,19.71145 0.40789,0.10374 19.17186,-19.50396 18.66198,-19.71145 -0.50992,-0.20748 -17.64219,-16.39161 -17.64219,-16.39161 z"
         id="path3462-2" />
      <path
         inkscape:connector-curvature="0"
         style="fill:#c89e00;fill-opacity:1;fill-rule:evenodd;stroke:#7b8743;stroke-width:1.14424491px;stroke-linecap:butt;stroke-linejoin:miter;stroke-opacity:1"
         d="m 51.565516,161.26052 11.93143,18.88148 18.25406,-20.12641 c 0,0 -12.84922,-15.66541 -13.86901,-15.35418 -1.01977,0.31122 -16.31648,16.59911 -16.31648,16.59911 z"
         id="path3464-4" />
      <path
         inkscape:connector-curvature="0"
         style="fill:#c89e00;fill-opacity:1;fill-rule:evenodd;stroke:#7b8743;stroke-width:1.14424491px;stroke-linecap:butt;stroke-linejoin:miter;stroke-opacity:1"
         d="m 39.226186,145.69885 6.11869,15.14669 -11.72747,20.02268 -3.87517,-20.33391 z"
         id="path3466-9" />
      <path
         inkscape:connector-curvature="0"
         style="fill:#c89e00;fill-opacity:1;fill-rule:evenodd;stroke:#7b8743;stroke-width:1.14424491px;stroke-linecap:butt;stroke-linejoin:miter;stroke-opacity:1"
         d="m 42.795426,140.09665 6.4246,15.14669 14.99077,-15.97664 -8.26022,-12.96805 z"
         id="path3468-9" />
      <path
         inkscape:connector-curvature="0"
         style="fill:#c89e00;fill-opacity:1;fill-rule:evenodd;stroke:#7b8743;stroke-width:1.14424491px;stroke-linecap:butt;stroke-linejoin:miter;stroke-opacity:1"
         d="m 69.819586,139.88917 14.37889,15.66541 19.273844,-17.11784 -15.704614,-12.44933 z"
         id="path3470-6" />
      <path
         inkscape:connector-curvature="0"
         style="fill:#c89e00;fill-opacity:1;fill-rule:evenodd;stroke:#7b8743;stroke-width:1.14424491px;stroke-linecap:butt;stroke-linejoin:miter;stroke-opacity:1"
         d="m 110.71275,138.85172 17.13231,16.49536 15.7046,-16.91034 -17.54021,-12.34558 z"
         id="path3472-2" />
      <path
         inkscape:connector-curvature="0"
         style="fill:#c89e00;fill-opacity:1;fill-rule:evenodd;stroke:#7b8743;stroke-width:1.14424491px;stroke-linecap:butt;stroke-linejoin:miter;stroke-opacity:1"
         d="m 150.48416,139.37044 12.64527,15.76916 7.64834,-15.66541 c 0,0 -11.72745,-14.31673 -12.33933,-13.59052 -0.61186,0.72621 -7.95428,13.48677 -7.95428,13.48677 z"
         id="path3474-3" />
      <path
         inkscape:connector-curvature="0"
         style="fill:#c89e00;fill-opacity:1;fill-rule:evenodd;stroke:#7b8743;stroke-width:1.14424491px;stroke-linecap:butt;stroke-linejoin:miter;stroke-opacity:1"
         d="m 160.07009,122.87508 c 0,0 9.27999,12.65681 10.50373,12.1381 1.22373,-0.51875 2.65143,-10.99691 2.65143,-10.99691 l -11.42153,-11.61938 z"
         id="path3476-9" />
      <path
         inkscape:connector-curvature="0"
         style="fill:#c89e00;fill-opacity:1;fill-rule:evenodd;stroke:#7b8743;stroke-width:1.14424491px;stroke-linecap:butt;stroke-linejoin:miter;stroke-opacity:1"
         d="m 128.76286,122.04512 c 0,0 15.7046,13.27929 16.11252,13.27929 0.40789,0 9.58592,-14.31674 9.17801,-14.31674 -0.40789,0 -15.50065,-9.85571 -15.50065,-9.85571 z"
         id="path3478-9" />
      <path
         inkscape:connector-curvature="0"
         style="fill:#c89e00;fill-opacity:1;fill-rule:evenodd;stroke:#7b8743;stroke-width:1.14424491px;stroke-linecap:butt;stroke-linejoin:miter;stroke-opacity:1"
         d="m 91.813776,122.47169 c 0.43265,0.29342 13.628664,13.05779 14.277664,13.05779 0.64897,0 17.37833,-14.59831 17.37833,-14.59831 l -16.58513,-10.05011 z"
         id="path3480-1" />
      <path
         inkscape:connector-curvature="0"
         style="fill:#c89e00;fill-opacity:1;fill-rule:evenodd;stroke:#7b8743;stroke-width:1.14424491px;stroke-linecap:butt;stroke-linejoin:miter;stroke-opacity:1"
         d="m 59.797256,122.1049 c 0,0 7.28303,14.30488 7.71568,13.71801 0.43266,-0.58686 17.08991,-12.98443 16.94569,-13.49792 -0.14424,-0.5135 -10.67218,-11.73735 -10.67218,-11.73735 z"
         id="path3482-1" />
      <path
         inkscape:connector-curvature="0"
         style="fill:#c89e00;fill-opacity:1;fill-rule:evenodd;stroke:#7b8743;stroke-width:1.14424491px;stroke-linecap:butt;stroke-linejoin:miter;stroke-opacity:1"
         d="m 41.193046,124.45237 c 0,0.51349 0.50474,10.27017 0.50474,10.27017 0,0 13.48444,-12.691 13.48444,-13.2045 0,-0.5135 -3.17281,-11.51727 -3.17281,-11.22384 0,0.29342 -10.81639,14.15817 -10.81639,14.15817 z"
         id="path3484-0" />
      <path
         inkscape:connector-curvature="0"
         style="fill:#c89e00;fill-opacity:1;fill-rule:evenodd;stroke:#7b8743;stroke-width:1.14424491px;stroke-linecap:butt;stroke-linejoin:miter;stroke-opacity:1"
         d="m 55.470696,108.46024 c 0,1.02701 1.15374,8.65629 1.22585,9.24315 0.0721,0.58686 16.00826,-9.97673 16.00826,-9.97673 0,0 -3.67757,-8.43622 -4.25445,-8.43622 -0.57687,0 -12.97966,9.1698 -12.97966,9.1698 z"
         id="path3486-6" />
      <path
         inkscape:connector-curvature="0"
         style="fill:#c89e00;fill-opacity:1;fill-rule:evenodd;stroke:#7b8743;stroke-width:1.14424491px;stroke-linecap:butt;stroke-linejoin:miter;stroke-opacity:1"
         d="m 79.410976,108.9004 9.23,9.6833 c 0,0 14.710304,-10.56361 13.989194,-10.85704 -0.72109,-0.29342 -9.951094,-7.84935 -10.744274,-7.40919 -0.79321,0.44014 -12.47492,8.58293 -12.47492,8.58293 z"
         id="path3488-5" />
      <path
         inkscape:connector-curvature="0"
         style="fill:#c89e00;fill-opacity:1;fill-rule:evenodd;stroke:#7b8743;stroke-width:1.14424491px;stroke-linecap:butt;stroke-linejoin:miter;stroke-opacity:1"
         d="m 111.21119,108.46024 c 0,0 12.83545,10.41689 13.26812,10.34353 0.43265,-0.0734 10.38373,-11.15047 10.02319,-11.15047 -0.36057,0 -12.18648,-8.94972 -12.61912,-8.58294 -0.43266,0.36681 -10.67219,9.38988 -10.67219,9.38988 z"
         id="path3490-9" />
      <path
         inkscape:connector-curvature="0"
         style="fill:#c89e00;fill-opacity:1;fill-rule:evenodd;stroke:#7b8743;stroke-width:1.14424491px;stroke-linecap:butt;stroke-linejoin:miter;stroke-opacity:1"
         d="m 139.62226,108.75367 c 3.60546,0.73358 15.14296,10.56361 15.14296,10.56361 l 1.87484,-2.34746 0.72109,-8.80301 -12.97966,-8.36286 z"
         id="path3492-7" />
      <path
         inkscape:connector-curvature="0"
         style="fill:#7b8743;fill-opacity:1;fill-rule:evenodd;stroke:#c89e00;stroke-width:1.14424491px;stroke-linecap:butt;stroke-linejoin:miter;stroke-opacity:1"
         d="m 72.704806,98.04336 c 1.00953,5.72195 2.3075,6.74896 2.3075,6.74896 l 3.8939,0.14673 8.36468,-6.30882 c 0,0 8.65312,-1.32045 8.79735,-0.73359 0.14423,0.58688 8.364684,6.8957 8.364684,6.8957 l 5.62452,0.44013 6.05718,-7.77597 7.49937,-0.29347 c 0,0 8.94156,8.06944 9.51844,8.06944 0.57687,0 4.90343,-0.29343 4.90343,-0.29343 l 3.31703,-7.776 -3.74968,-1.7606 c 0,0 -2.59595,-1.61387 -1.00954,-2.20075 1.5864,-0.58686 2.88438,-0.73358 2.88438,-0.73358 0,0 17.73889,-1.90732 22.93076,0 5.19186,1.90733 2.59593,-3.37448 2.59593,-3.37448 0,0 -8.5089,-4.54821 -24.66139,-4.69494 -16.15249,-0.14673 -23.07498,1.46717 -24.22873,1.46717 -1.15375,0 -20.623254,-11.150471 -20.623254,-11.150471 0,0 -4.03814,-4.694942 -4.03814,1.02702 0,5.72195 0.57688,7.0424 -0.28841,8.656281 -0.86531,1.61389 -4.32657,0.14674 -5.19189,0.14674 -0.8653,0 -7.64358,-0.29342 -12.83544,-0.29342 -5.19188,0 -9.37421,0 -14.42188,0.29342 -5.04764,0.29342 -5.48029,-0.29342 -5.91296,0.8803 -0.43265,1.17373 -1.73061,3.81463 1.73063,4.54821 3.46125,0.73359 15.28718,0.73359 17.73889,1.90733 2.45172,1.17373 4.90344,2.05403 0.43266,6.1621 z"
         id="path3494-1" />
      <path
         style="fill:#000000;fill-opacity:1;fill-rule:evenodd;stroke:#000000;stroke-width:1.49518394px;stroke-linecap:butt;stroke-linejoin:miter;stroke-opacity:1"
         d="m 178.14328,155.21922 c 0,0 -3.9075,4.49368 -3.56772,9.16018 0.33978,4.66651 -3.22792,12.09836 -4.58705,13.99952 -1.35911,1.90117 -6.62573,11.40703 -18.34821,10.54286 -11.72246,-0.86417 -23.10515,-3.62951 -25.9933,-5.87635 -2.88812,-2.24683 -11.04288,-18.14752 -11.38267,-20.39436 -0.33977,-2.24684 -1.86879,-7.0862 -3.05804,-7.43185 -1.18922,-0.34566 -3.56769,-0.86416 -3.56769,-0.86416 0,0 -5.09674,-1.037 -6.11607,1.72832 -1.01936,2.76535 -3.397824,16.24636 -4.926844,18.14755 -1.52903,1.90117 -13.42137,12.78969 -15.96973,13.65384 -2.54837,0.86417 -26.33307,5.01218 -32.44914,-1.5555 -6.11608,-6.56768 -9.00422,-20.56719 -9.344,-23.1597 -0.33978,-2.59252 -1.52904,-10.1972 -5.94618,-12.27119 -4.41716,-2.074 -1.69891,-8.98734 -1.69891,-8.98734 0,0 6.45584,-3.28385 28.03199,-3.28385 21.57613,0 33.46848,1.90117 39.92433,6.56768 6.455854,4.66651 14.100934,0.69133 14.100934,0.69133 0,0 3.39783,-3.80233 15.12029,-5.70351 11.72247,-1.90116 38.39532,-0.86417 48.24898,-0.34565 9.85369,0.51848 7.1354,0 7.1354,0 0,0 0.16988,8.12316 -1.01933,9.33301 -1.18923,1.20984 -4.24726,4.49367 -4.58704,6.04917 z"
         id="path4003-7"
         inkscape:connector-curvature="0" />
      <path
         style="fill:#c8c8c8;fill-opacity:1;fill-rule:evenodd;stroke:#000000;stroke-width:1.49518394px;stroke-linecap:butt;stroke-linejoin:miter;stroke-opacity:1"
         d="m 77.907696,182.52693 c 0,0 12.9117,-4.14801 14.27081,-15.90069 1.35915,-11.75268 2.37851,-19.01171 -17.66862,-21.77703 -20.04713,-2.76534 -28.20189,1.03699 -29.561,3.80233 -1.35913,2.76534 -1.69892,20.74003 -0.33977,23.50539 1.35912,2.76532 1.01934,10.37 15.96973,12.09834 14.95039,1.72833 17.32886,-1.72834 17.32886,-1.72834 z"
         id="path3986-2"
         inkscape:connector-curvature="0" />
      <path
         style="fill:#c8c8c8;fill-opacity:1;fill-rule:evenodd;stroke:#000000;stroke-width:1.49518394px;stroke-linecap:butt;stroke-linejoin:miter;stroke-opacity:1"
         d="m 134.88096,181.38311 c 0,0 -12.91171,-4.148 -14.27084,-15.90069 -1.35913,-11.75269 -2.37847,-19.0117 17.66864,-21.77704 20.04712,-2.76532 28.20187,1.037 29.561,3.80234 1.35913,2.76535 1.6989,20.74004 0.33978,23.50538 -1.35913,2.76534 -1.01935,10.37001 -15.96974,12.09836 -14.95039,1.72832 -17.32885,-1.72835 -17.32885,-1.72835 z"
         id="path3986-9-5"
         inkscape:connector-curvature="0" />
      <path
         inkscape:connector-curvature="0"
         style="fill:#c89e00;fill-opacity:1;fill-rule:evenodd;stroke:#7b8743;stroke-width:1.14424491px;stroke-linecap:butt;stroke-linejoin:miter;stroke-opacity:1"
         d="m 90.999766,256.68475 c 0.61187,0.41496 15.893124,12.62199 15.893124,12.62199 L 121.9789,256.30321 107.25585,241.1545 Z"
         id="path3414-0-52"
         sodipodi:nodetypes="ccccc" />
      <path
         inkscape:connector-curvature="0"
         style="fill:#c89e00;fill-opacity:1;fill-rule:evenodd;stroke:#7b8743;stroke-width:1.14424491px;stroke-linecap:butt;stroke-linejoin:miter;stroke-opacity:1"
         d="m 87.731986,260.80263 15.342664,11.19188 -8.335104,9.38616 -15.02832,-9.53288 z"
         id="path3438-0-1"
         sodipodi:nodetypes="ccccc" />
      <path
         inkscape:connector-curvature="0"
         style="fill:#c89e00;fill-opacity:1;fill-rule:evenodd;stroke:#7b8743;stroke-width:1.14424491px;stroke-linecap:butt;stroke-linejoin:miter;stroke-opacity:1"
         d="m 111.42649,271.87312 c 0,1.02702 9.31872,9.69464 9.31872,9.69464 l 13.08701,-8.694 -9.51843,-13.20451 z"
         id="path3434-3-7"
         sodipodi:nodetypes="ccccc" />
      <path
         inkscape:connector-curvature="0"
         style="fill:#7b8743;fill-opacity:1;fill-rule:evenodd;stroke:#c89600;stroke-width:1.14424491px;stroke-linecap:butt;stroke-linejoin:miter;stroke-opacity:1"
         d="m 92.190846,287.83763 c 0.61188,0.41494 16.052134,3.56338 16.052134,3.56338 l 14.44999,-2.4891 -15.51808,-13.85462 z"
         id="path3414-0-5-2"
         sodipodi:nodetypes="ccccc" />
      <path
         style="fill:#c89e00;fill-opacity:1;fill-rule:evenodd;stroke:#000000;stroke-width:1.39631367;stroke-linecap:butt;stroke-linejoin:miter;stroke-miterlimit:4;stroke-dasharray:none;stroke-opacity:1"
         d="m 43.710516,136.44653 132.306094,0.18878 10.20594,-6.22964 -0.18551,-10.38271 c 0,0 -1.48449,-5.47454 -6.30912,-5.28576 0,0 -2.22674,-0.94389 -2.41231,-6.04086 -0.18557,-5.09698 -4.82462,-28.505311 -23.56644,-41.719689 -18.7418,-13.214371 -28.39105,-13.214371 -33.40124,-14.72459 0,0 -1.25828,-6.628334 -6.63799,-7.529357 l -8.39759,-0.133551 c 0,0 -6.888684,1.234739 -7.807144,7.742148 0,0 -27.68587,3.470628 -45.53076,25.629198 0,0 -12.71736,19.975491 -12.25344,36.115921 l -4.26794,0.0944 c 0,0 -6.03078,1.13266 -6.21639,6.5128 -0.18544,5.38015 0,9.06129 0,9.06129 z"
         id="path4686"
         inkscape:connector-curvature="0" />
      <path
         style="fill:#eaa133;fill-opacity:1;fill-rule:evenodd;stroke:#000000;stroke-width:0.86940283;stroke-linecap:butt;stroke-linejoin:miter;stroke-miterlimit:4;stroke-dasharray:none;stroke-opacity:1"
         d="m 47.514546,132.95416 122.192934,-0.0944 c 0,0 1.11338,-1.98215 -0.37112,-1.88776 -1.4845,0.0944 -122.285694,-0.18877 -122.285694,-0.18877 0,0 -1.76285,0.94388 0.46389,2.17093 z"
         id="path4688"
         inkscape:connector-curvature="0" />
      <path
         style="fill:#eaa133;fill-opacity:1;fill-rule:evenodd;stroke:#000000;stroke-width:0.86940283;stroke-linecap:butt;stroke-linejoin:miter;stroke-miterlimit:4;stroke-dasharray:none;stroke-opacity:1"
         d="m 39.813696,114.07648 137.965754,0 -0.55668,-3.2092 -137.223504,0 z"
         id="path4690"
         inkscape:connector-curvature="0" />
      <path
         style="fill:#eaa133;fill-opacity:1;fill-rule:evenodd;stroke:#000000;stroke-width:0.86940283;stroke-linecap:butt;stroke-linejoin:miter;stroke-miterlimit:4;stroke-dasharray:none;stroke-opacity:1"
         d="m 87.132156,54.989331 c 0,0 8.72143,11.70417 11.22653,28.694079 2.505104,16.98991 2.690664,26.71193 2.690664,26.71193 l 2.31954,0.0944 c 0,0 0.3711,-21.89811 -1.02061,-31.053771 -1.39171,-9.155686 -4.082364,-25.107323 -4.824624,-26.900704 0,0 -6.9586,0.660714 -10.3915,2.454092 z"
         id="path4692"
         inkscape:connector-curvature="0" />
      <path
         style="fill:#eaa133;fill-opacity:1;fill-rule:evenodd;stroke:#000000;stroke-width:0.86940283;stroke-linecap:butt;stroke-linejoin:miter;stroke-miterlimit:4;stroke-dasharray:none;stroke-opacity:1"
         d="m 120.0695,51.968904 c 0,0 -6.03078,26.900715 -6.12354,40.964566 -0.0928,14.06388 0.18545,17.55625 0.18545,17.55625 l 2.5051,-0.0944 c 0,0 0.64947,-23.21955 3.61847,-32.375231 2.969,-9.155689 5.84522,-19.349644 10.11315,-23.313949 z"
         id="path4694"
         inkscape:connector-curvature="0" />
      <path
         style="fill:#808080;fill-rule:evenodd;stroke:#000000;stroke-width:1.0538218;stroke-linecap:butt;stroke-linejoin:miter;stroke-miterlimit:4;stroke-dasharray:none;stroke-opacity:1"
         d="m 16.383406,174.67175 61.7948,49.94282 9.1224,2.06542 c 0,0 6.3752,-5.99461 15.007514,1.25887 8.63234,7.25345 8.57967,12.79677 8.57967,12.79677 l -12.855924,-5.82616 c 0,0 -6.72811,2.79353 -7.45223,7.06288 -0.72412,4.26936 -1.53647,7.73845 0.0675,9.04106 l 12.681934,6.65634 c 0,0 -4.191714,4.1248 -10.720154,2.70879 -6.52841,-1.41599 -11.13557,-4.67188 -12.3903,-6.41949 -1.25472,-1.74763 -2.10759,-9.48356 -2.95429,-11.1427 -0.8467,-1.65911 -2.92117,-7.2298 -11.52408,-14.21652 -8.60291,-6.98671 -52.60992,-43.6978 -52.60992,-43.6978 0,0 -8.2243003,-7.16497 -12.1281003,-6.44943 -3.9038,0.71554 -8.09924,1.19425 -9.20691,0.78042 -1.10766,-0.41385 -8.0171597,-4.08232 -11.8438597,-13.50478 l 11.6024297,5.2939 c 0,0 5.65107,-1.72523 7.97789998,-5.90735 2.32681002,-4.18212 0.89685,-6.31492 0.25357,-8.53746 l -12.56552968,-6.80469 0.58202,-0.7417 c 0,0 12.20642968,-2.4732 17.2804497,1.40471 5.0740103,3.87787 4.34989,8.14726 4.9650103,11.31841 0.61512,3.17116 1.78657,8.97997 6.33615,12.91771 z"
         id="path6191"
         inkscape:connector-curvature="0" />
      <path
         style="fill:#ffffff;fill-opacity:0.46190479;fill-rule:evenodd;stroke:none;stroke-width:1px;stroke-linecap:butt;stroke-linejoin:miter;stroke-opacity:1"
         d="m -2.2793043,178.64131 c 0,0 5.11455,-2.82887 5.79488,-3.58178 0.68038,-0.75289 -2.50615,3.30785 -2.50615,3.30785 l -3.71815,0.59308 z"
         id="path6193"
         inkscape:connector-curvature="0" />
      <path
         style="fill:#ffffff;fill-opacity:0.46190479;fill-rule:evenodd;stroke:none;stroke-width:1px;stroke-linecap:butt;stroke-linejoin:miter;stroke-opacity:1"
         d="m 9.4394857,158.64958 c 0,0 0.3851,6.20239 -2.50935,10.95573 l 3.3591403,-6.2582 z"
         id="path6195"
         inkscape:connector-curvature="0"
         sodipodi:nodetypes="cccc" />
      <path
         style="fill:#ffffff;fill-opacity:0.46190479;fill-rule:evenodd;stroke:none;stroke-width:1px;stroke-linecap:butt;stroke-linejoin:miter;stroke-opacity:1"
         d="m 81.487106,254.9285 c 0,0 -1.54636,-1.98447 -1.70045,-3.08109 -0.15412,-1.09663 0.29489,-10.87189 1.48741,-13.00004 1.19251,-2.12814 1.701,-3.53672 1.701,-3.53672 0,0 -4.60889,9.37204 -4.67352,10.29105 -0.0647,0.91899 -0.0276,1.25245 -0.0276,1.25245 l 0.92207,4.14905 0.49749,2.10413 1.1089,1.62919 z"
         id="path6197"
         inkscape:connector-curvature="0" />
      <path
         style="fill:#870000;fill-opacity:1;fill-rule:evenodd;stroke:#000000;stroke-width:1.0538218;stroke-linecap:butt;stroke-linejoin:miter;stroke-miterlimit:4;stroke-dasharray:none;stroke-opacity:1"
         d="m 58.244756,151.42345 -0.12542,25.77524 23.70579,-13.14282 z"
         id="path6854"
         inkscape:connector-curvature="0"
         sodipodi:nodetypes="cccc" />
      <rect
         style="fill:#870000;fill-opacity:1;stroke:#000000;stroke-width:1.0538218;stroke-miterlimit:4;stroke-dasharray:none;stroke-opacity:1"
         id="rect6871"
         width="6.5619345"
         height="21.1394"
         x="137.36513"
         y="152.64478" />
      <rect
         style="fill:#870000;fill-opacity:1;stroke:#000000;stroke-width:1.0538218;stroke-miterlimit:4;stroke-dasharray:none;stroke-opacity:1"
         id="rect6871-8"
         width="6.5619345"
         height="21.1394"
         x="148.30168"
         y="152.64478" />
    </g>
  </g>
</svg>
