<?xml version="1.0" encoding="UTF-8" standalone="no"?>
<!-- Created with Inkscape (http://www.inkscape.org/) -->

<svg
   xmlns:dc="http://purl.org/dc/elements/1.1/"
   xmlns:cc="http://creativecommons.org/ns#"
   xmlns:rdf="http://www.w3.org/1999/02/22-rdf-syntax-ns#"
   xmlns:svg="http://www.w3.org/2000/svg"
   xmlns="http://www.w3.org/2000/svg"
   xmlns:sodipodi="http://sodipodi.sourceforge.net/DTD/sodipodi-0.dtd"
   xmlns:inkscape="http://www.inkscape.org/namespaces/inkscape"
   width="210mm"
   height="297mm"
   viewBox="0 0 744.09448819 1052.3622047"
   id="svg12629"
   version="1.1"
   inkscape:version="0.91 r13725"
   sodipodi:docname="lunettes.svg">
  <defs
     id="defs12631" />
  <sodipodi:namedview
     id="base"
     pagecolor="#ffffff"
     bordercolor="#666666"
     borderopacity="1.0"
     inkscape:pageopacity="0.0"
     inkscape:pageshadow="2"
     inkscape:zoom="0.22797852"
     inkscape:cx="48.423221"
     inkscape:cy="-33.398025"
     inkscape:document-units="px"
     inkscape:current-layer="layer1"
     showgrid="false"
     inkscape:window-width="1600"
     inkscape:window-height="836"
     inkscape:window-x="0"
     inkscape:window-y="27"
     inkscape:window-maximized="1" />
  <metadata
     id="metadata12634">
    <rdf:RDF>
      <cc:Work
         rdf:about="">
        <dc:format>image/svg+xml</dc:format>
        <dc:type
           rdf:resource="http://purl.org/dc/dcmitype/StillImage" />
        <dc:title></dc:title>
      </cc:Work>
    </rdf:RDF>
  </metadata>
  <g
     inkscape:label="Layer 1"
     inkscape:groupmode="layer"
     id="layer1">
    <path
       style="fill:#000000;fill-opacity:1;fill-rule:evenodd;stroke:#000000;stroke-width:7.0919261px;stroke-linecap:butt;stroke-linejoin:miter;stroke-opacity:1"
       d="m 713.62717,404.82989 c 0,0 -18.69377,21.13207 -17.06823,43.0769 1.6255,21.94482 -15.44268,56.89408 -21.94487,65.83451 -6.50214,8.94049 -31.69805,53.64298 -87.77939,49.57909 -56.08123,-4.06385 -110.53696,-17.06823 -124.35409,-27.63427 -13.81703,-10.56598 -52.83013,-85.34099 -54.45568,-95.90702 -1.62554,-10.56604 -8.94043,-33.32371 -14.62987,-34.94921 -5.6894,-1.62554 -17.06818,-4.06384 -17.06818,-4.06384 0,0 -24.38322,-4.87659 -29.25982,8.12768 -4.87664,13.00433 -16.25543,76.40056 -23.57036,85.3411 -7.315,8.94049 -64.20897,60.14512 -76.40056,64.20891 -12.19158,4.0639 -125.97958,23.57038 -155.239448,-7.31494 C 62.596913,520.2435 48.779775,454.40898 47.15423,442.21739 45.528685,430.02575 39.839235,394.26381 18.707216,384.51056 c -21.132071,-9.75323 -8.127687,-42.26409 -8.127687,-42.26409 0,0 30.885259,-15.44268 134.107381,-15.44268 103.22196,0 160.11599,8.94049 191.00135,30.88537 30.88531,21.94481 67.46001,3.25104 67.46001,3.25104 0,0 16.25548,-17.88093 72.33676,-26.82147 56.08123,-8.94048 183.68641,-4.06384 230.82715,-1.62549 47.14089,2.43824 34.13643,0 34.13643,0 0,0 0.81279,38.20019 -4.87666,43.88964 -5.68935,5.68945 -20.31922,21.13208 -21.94478,28.44701 z"
       id="path4003"
       inkscape:connector-curvature="0" />
    <path
       style="fill:#c8c8c8;fill-opacity:1;fill-rule:evenodd;stroke:#000000;stroke-width:7.0919261px;stroke-linecap:butt;stroke-linejoin:miter;stroke-opacity:1"
       d="m 234.09174,533.24783 c 0,0 61.77067,-19.50653 68.2728,-74.77501 6.50225,-55.26847 11.3789,-89.40494 -84.52818,-102.40922 -95.90713,-13.00433 -134.920174,4.8766 -141.422317,17.88093 -6.502188,13.00439 -8.127741,97.53263 -1.625545,110.53701 6.502134,13.00433 4.876589,48.76629 76.400552,56.89403 71.5239,8.12769 82.90269,-8.12774 82.90269,-8.12774 z"
       id="path3986"
       inkscape:connector-curvature="0" />
    <path
       style="fill:#c8c8c8;fill-opacity:1;fill-rule:evenodd;stroke:#000000;stroke-width:7.0919261px;stroke-linecap:butt;stroke-linejoin:miter;stroke-opacity:1"
       d="m 506.65657,527.86888 c 0,0 -61.77067,-19.50653 -68.27285,-74.775 -6.5022,-55.26848 -11.37884,-89.40489 84.52828,-102.40922 95.90708,-13.00433 134.92013,4.87659 141.42227,17.88092 6.5022,13.00439 8.12769,97.53263 1.62555,110.53701 -6.50214,13.00433 -4.87665,48.76629 -76.40055,56.89403 -71.52391,8.12769 -82.9027,-8.12774 -82.9027,-8.12774 z"
       id="path3986-9"
       inkscape:connector-curvature="0" />
    <rect
       style="fill:#000000;fill-opacity:1"
       id="rect4826"
       width="27.923912"
       height="141.688"
       x="-208.29813"
       y="368.12872"
       transform="matrix(0.68406069,-0.7294251,0.7294251,0.68406069,0,0)" />
    <rect
       style="fill:#000000;fill-opacity:1"
       id="rect4828"
       width="144.79065"
       height="33.095009"
       x="-267.15533"
       y="424.06952"
       transform="matrix(0.68406069,-0.7294251,0.7294251,0.68406069,0,0)" />
    <rect
       style="fill:#000000;fill-opacity:1"
       id="rect4826-9"
       width="27.923912"
       height="141.688"
       x="45.591213"
       y="636.39569"
       transform="matrix(0.68406069,-0.7294251,0.7294251,0.68406069,0,0)"
       inkscape:transform-center-x="92.010869"
       inkscape:transform-center-y="11.217386" />
    <rect
       style="fill:#000000;fill-opacity:1"
       id="rect4828-1"
       width="144.79065"
       height="33.095009"
       x="-13.266184"
       y="692.33655"
       transform="matrix(0.68406069,-0.7294251,0.7294251,0.68406069,0,0)"
       inkscape:transform-center-x="91.101434"
       inkscape:transform-center-y="12.65158" />
  </g>
</svg>
