<?xml version="1.0" encoding="UTF-8" standalone="no"?>
<!-- Created with Inkscape (http://www.inkscape.org/) -->

<svg
   xmlns:dc="http://purl.org/dc/elements/1.1/"
   xmlns:cc="http://creativecommons.org/ns#"
   xmlns:rdf="http://www.w3.org/1999/02/22-rdf-syntax-ns#"
   xmlns:svg="http://www.w3.org/2000/svg"
   xmlns="http://www.w3.org/2000/svg"
   xmlns:sodipodi="http://sodipodi.sourceforge.net/DTD/sodipodi-0.dtd"
   xmlns:inkscape="http://www.inkscape.org/namespaces/inkscape"
   width="343pt"
   height="340pt"
   viewBox="0 0 343 340"
   id="svg5377"
   version="1.1"
   inkscape:version="0.91 r13725"
   sodipodi:docname="transform.svg">
  <defs
     id="defs5379" />
  <sodipodi:namedview
     pagecolor="#ffffff"
     bordercolor="#666666"
     borderopacity="1.0"
     inkscape:pageopacity="0.0"
     inkscape:pageshadow="2"
     inkscape:zoom="1.0421875"
     inkscape:cx="11.482236"
     inkscape:cy="207.39788"
     inkscape:document-units="pt"
     inkscape:current-layer="layer1"
     id="namedview5381"
     showgrid="false"
     inkscape:window-width="1600"
     inkscape:window-height="836"
     inkscape:window-x="0"
     inkscape:window-y="27"
     inkscape:window-maximized="1" />
  <metadata
     id="metadata5383">
    <rdf:RDF>
      <cc:Work
         rdf:about="">
        <dc:format>image/svg+xml</dc:format>
        <dc:type
           rdf:resource="http://purl.org/dc/dcmitype/StillImage" />
        <dc:title></dc:title>
      </cc:Work>
    </rdf:RDF>
  </metadata>
  <g
     inkscape:label="Layer 1"
     inkscape:groupmode="layer"
     id="layer1">
    <circle
       style="fill:#ffffff;fill-opacity:1;stroke:none;stroke-width:23.02799988;stroke-miterlimit:4;stroke-dasharray:none;stroke-opacity:1"
       id="path4358"
       cx="170.83847"
       cy="171.92949"
       r="169.18701" />
    <circle
       style="fill:#f1c40f;fill-opacity:1;stroke:#000000;stroke-width:6.45009041;stroke-miterlimit:4;stroke-dasharray:none;stroke-opacity:1"
       id="path4358-9"
       cx="171.38293"
       cy="170.55302"
       r="151.87396" />
    <path
       id="path4943"
       d="m 264.67394,228.02776 0,-18.92939 -132.50573,0 0,-113.576353 18.92938,0 -28.39408,-28.394088 -28.394086,28.394088 18.929396,0 0,18.929393 -37.858787,0 0,18.92938 37.858787,0 0,75.71758 c 0,10.45848 8.47089,18.92939 18.92939,18.92939 l 75.71756,0 0,18.92938 -18.92939,0 28.39409,28.39409 28.39409,-28.39409 -18.9294,0 0,-18.92938 37.85878,0 z m -113.57635,-94.64697 56.78818,0 0,56.78819 18.92939,0 0,-56.78819 c 0,-10.45848 -8.47091,-18.92938 -18.92939,-18.92938 l -56.78818,0 0,18.92938 z"
       inkscape:connector-curvature="0" />
  </g>
</svg>
