<?xml version="1.0" encoding="UTF-8" standalone="no"?>
<!-- Created with Inkscape (http://www.inkscape.org/) -->

<svg
   xmlns:dc="http://purl.org/dc/elements/1.1/"
   xmlns:cc="http://creativecommons.org/ns#"
   xmlns:rdf="http://www.w3.org/1999/02/22-rdf-syntax-ns#"
   xmlns:svg="http://www.w3.org/2000/svg"
   xmlns="http://www.w3.org/2000/svg"
   xmlns:sodipodi="http://sodipodi.sourceforge.net/DTD/sodipodi-0.dtd"
   xmlns:inkscape="http://www.inkscape.org/namespaces/inkscape"
   width="64"
   height="64"
   id="svg5598"
   version="1.1"
   inkscape:version="0.91 r13725"
   viewBox="0 0 64 64"
   sodipodi:docname="worker.svg">
  <defs
     id="defs5600" />
  <sodipodi:namedview
     id="base"
     pagecolor="#ffffff"
     bordercolor="#666666"
     borderopacity="1.0"
     inkscape:pageopacity="0.0"
     inkscape:pageshadow="2"
     inkscape:zoom="0.22390748"
     inkscape:cx="-1598.1015"
     inkscape:cy="-391.47631"
     inkscape:current-layer="layer1"
     showgrid="true"
     inkscape:document-units="px"
     inkscape:grid-bbox="true"
     inkscape:window-width="1920"
     inkscape:window-height="1016"
     inkscape:window-x="0"
     inkscape:window-y="27"
     inkscape:window-maximized="1" />
  <metadata
     id="metadata5603">
    <rdf:RDF>
      <cc:Work
         rdf:about="">
        <dc:format>image/svg+xml</dc:format>
        <dc:type
           rdf:resource="http://purl.org/dc/dcmitype/StillImage" />
        <dc:title></dc:title>
      </cc:Work>
    </rdf:RDF>
  </metadata>
  <g
     id="layer1"
     inkscape:label="Layer 1"
     inkscape:groupmode="layer">
    <path
       inkscape:connector-curvature="0"
       style="fill:#c89e00;fill-opacity:1;fill-rule:evenodd;stroke:#7b8743;stroke-width:4.88069391px;stroke-linecap:butt;stroke-linejoin:miter;stroke-opacity:1"
       d="m 176.03028,-326.85849 75.69602,98.03252 67.00958,-93.06886 -67.00958,-81.90057 z"
       id="path3400" />
    <path
       inkscape:connector-curvature="0"
       style="fill:#c89e00;fill-opacity:1;fill-rule:evenodd;stroke:#7b8743;stroke-width:4.88069391px;stroke-linecap:butt;stroke-linejoin:miter;stroke-opacity:1"
       d="m 59.383967,-403.7954 76.936893,80.65965 -68.250483,90.58703 -80.65967,-90.58703 z"
       id="path3402" />
    <path
       inkscape:connector-curvature="0"
       style="fill:#c89e00;fill-opacity:1;fill-rule:evenodd;stroke:#7b8743;stroke-width:4.88069391px;stroke-linecap:butt;stroke-linejoin:miter;stroke-opacity:1"
       d="m -146.60847,-321.89483 c 0,0 38.46846,94.30978 44.67307,88.1052 6.204577,-6.20459 53.359467,-100.51435 53.359467,-100.51435 l -48.39579,-68.25049 z"
       id="path3404" />
    <path
       inkscape:connector-curvature="0"
       style="fill:#c89e00;fill-opacity:1;fill-rule:evenodd;stroke:#7b8743;stroke-width:4.88069391px;stroke-linecap:butt;stroke-linejoin:miter;stroke-opacity:1"
       d="m 353.48157,-325.61757 55.84133,94.30977 52.11859,-90.58703 -55.84133,-84.38241 z"
       id="path3406" />
    <path
       inkscape:connector-curvature="0"
       style="fill:#c89e00;fill-opacity:1;fill-rule:evenodd;stroke:#7b8743;stroke-width:4.88069391px;stroke-linecap:butt;stroke-linejoin:miter;stroke-opacity:1"
       d="m -178.96014,-369.93011 c 0,2.19355 10.52954,47.38289 10.52954,47.38289 l -19.74289,87.30744 -14.47811,-70.19691 z"
       id="path3408" />
    <path
       inkscape:connector-curvature="0"
       style="fill:#c89e00;fill-opacity:1;fill-rule:evenodd;stroke:#7b8743;stroke-width:4.88069391px;stroke-linecap:butt;stroke-linejoin:miter;stroke-opacity:1"
       d="m -157.90106,-279.99032 46.50545,72.82931 -25.44638,78.09408 -41.2407,-74.58422 z"
       id="path3410" />
    <path
       inkscape:connector-curvature="0"
       style="fill:#c89e00;fill-opacity:1;fill-rule:evenodd;stroke:#7b8743;stroke-width:4.88069391px;stroke-linecap:butt;stroke-linejoin:miter;stroke-opacity:1"
       d="m -80.684433,-200.1413 c 0,0 54.4026,71.07437 56.59627,71.5131 2.19357,0.43869 63.61597,-76.33912 63.61597,-76.33912 0,0 -66.24836,-80.28776 -68.00329,-78.53286 -1.75485,1.75485 -52.20895,83.35888 -52.20895,83.35888 z"
       id="path3412" />
    <path
       inkscape:connector-curvature="0"
       style="fill:#c89e00;fill-opacity:1;fill-rule:evenodd;stroke:#7b8743;stroke-width:4.88069391px;stroke-linecap:butt;stroke-linejoin:miter;stroke-opacity:1"
       d="m 81.207237,-202.77371 c 2.63239,1.75486 75.900443,74.58426 75.900443,74.58426 l 77.21663,-74.14552 -76.33918,-81.16521 z"
       id="path3414" />
    <path
       inkscape:connector-curvature="0"
       style="fill:#c89e00;fill-opacity:1;fill-rule:evenodd;stroke:#7b8743;stroke-width:4.88069391px;stroke-linecap:butt;stroke-linejoin:miter;stroke-opacity:1"
       d="m 271.17771,-201.01879 58.35118,69.75823 62.73853,-72.82933 -50.01531,-78.53282 z"
       id="path3416" />
    <path
       inkscape:connector-curvature="0"
       style="fill:#c89e00;fill-opacity:1;fill-rule:evenodd;stroke:#7b8743;stroke-width:4.88069391px;stroke-linecap:butt;stroke-linejoin:miter;stroke-opacity:1"
       d="m 423.4173,-204.52861 24.56894,73.26805 c 0,0 39.92446,-70.6357 39.92446,-72.39059 0,-1.75508 -20.18156,-83.7976 -20.18156,-83.7976 z"
       id="path3418" />
    <path
       inkscape:connector-curvature="0"
       style="fill:#c89e00;fill-opacity:1;fill-rule:evenodd;stroke:#7b8743;stroke-width:4.88069391px;stroke-linecap:butt;stroke-linejoin:miter;stroke-opacity:1"
       d="m -175.14959,-164.29821 c 0,0 34.12526,55.84132 33.50482,58.32315 -0.62056,2.48183 1.86137,63.286816 1.86137,63.286816 l -31.02294,-44.67302 z"
       id="path3420" />
    <path
       inkscape:connector-curvature="0"
       style="fill:#c89e00;fill-opacity:1;fill-rule:evenodd;stroke:#7b8743;stroke-width:4.88069391px;stroke-linecap:butt;stroke-linejoin:miter;stroke-opacity:1"
       d="m -119.30826,-101.63183 c 1.24084,2.481836 50.877647,59.564076 50.877647,59.564076 l 38.46846,-65.768676 -60.805,-64.52777 z"
       id="path3422" />
    <path
       inkscape:connector-curvature="0"
       style="fill:#c89e00;fill-opacity:1;fill-rule:evenodd;stroke:#7b8743;stroke-width:4.88069391px;stroke-linecap:butt;stroke-linejoin:miter;stroke-opacity:1"
       d="M 2.9221766,-104.73414 75.515907,-43.929154 137.56177,-105.97506 63.106717,-179.18923 Z"
       id="path3424" />
    <path
       inkscape:connector-curvature="0"
       style="fill:#c89e00;fill-opacity:1;fill-rule:evenodd;stroke:#7b8743;stroke-width:4.88069391px;stroke-linecap:butt;stroke-linejoin:miter;stroke-opacity:1"
       d="m 173.54843,-105.97506 60.18453,61.425436 75.69601,-65.148176 -58.94359,-67.00957 z"
       id="path3426" />
    <path
       inkscape:connector-curvature="0"
       style="fill:#c89e00;fill-opacity:1;fill-rule:evenodd;stroke:#7b8743;stroke-width:4.88069391px;stroke-linecap:butt;stroke-linejoin:miter;stroke-opacity:1"
       d="m 341.69285,-100.3909 29.78202,58.323146 64.52775,-63.907306 -29.78204,-67.00958 z"
       id="path3428" />
    <path
       inkscape:connector-curvature="0"
       style="fill:#c89e00;fill-opacity:1;fill-rule:evenodd;stroke:#7b8743;stroke-width:4.88069391px;stroke-linecap:butt;stroke-linejoin:miter;stroke-opacity:1"
       d="m 455.23686,-104.11366 c 0,2.48183 -4.96367,55.220856 -4.96367,55.220856 l 37.22751,-49.01627 4.34328,-68.870986 z"
       id="path3430" />
    <path
       inkscape:connector-curvature="0"
       style="fill:#c89e00;fill-opacity:1;fill-rule:evenodd;stroke:#7b8743;stroke-width:4.88069391px;stroke-linecap:butt;stroke-linejoin:miter;stroke-opacity:1"
       d="m 378.92039,-23.454003 4.96371,47.154913 52.11852,-48.395824 c 0,0 4.34325,-53.97995 -3.10226,-49.01627 -7.44556,4.96368 -53.97997,50.257181 -53.97997,50.257181 z"
       id="path3432" />
    <path
       inkscape:connector-curvature="0"
       style="fill:#c89e00;fill-opacity:1;fill-rule:evenodd;stroke:#7b8743;stroke-width:4.88069391px;stroke-linecap:butt;stroke-linejoin:miter;stroke-opacity:1"
       d="m 249.86488,-25.935852 c 0,4.343253 35.98667,47.154923 35.98667,47.154923 l 71.35276,-48.395833 -40.95028,-55.841332 z"
       id="path3434" />
    <path
       inkscape:connector-curvature="0"
       style="fill:#c89e00;fill-opacity:1;fill-rule:evenodd;stroke:#7b8743;stroke-width:4.88069391px;stroke-linecap:butt;stroke-linejoin:miter;stroke-opacity:1"
       d="m -11.968853,-77.433934 70.11188,52.118575 -37.22754,46.53443 -63.28684,-47.154923 z"
       id="path3438" />
    <path
       inkscape:connector-curvature="0"
       style="fill:#c89e00;fill-opacity:1;fill-rule:evenodd;stroke:#7b8743;stroke-width:4.88069391px;stroke-linecap:butt;stroke-linejoin:miter;stroke-opacity:1"
       d="M -117.44688,-74.331624 -74.014753,-26.556269 -79.598893,22.46 -124.89241,-21.592599 Z"
       id="path3440" />
    <path
       inkscape:connector-curvature="0"
       style="fill:#c89e00;fill-opacity:1;fill-rule:evenodd;stroke:#7b8743;stroke-width:4.88069391px;stroke-linecap:butt;stroke-linejoin:miter;stroke-opacity:1"
       d="m -46.463433,-4.4673647 c 0,0 61.86106,43.8730707 59.22867,44.7505407 -2.63238,0.877384 -13.6006604,34.659739 -13.6006604,34.659739 L -56.554243,38.966995 Z"
       id="path3442" />
    <path
       inkscape:connector-curvature="0"
       style="fill:#c89e00;fill-opacity:1;fill-rule:evenodd;stroke:#7b8743;stroke-width:4.88069391px;stroke-linecap:butt;stroke-linejoin:miter;stroke-opacity:1"
       d="m 31.630647,54.761299 c 0,0 59.22865,31.588636 56.59629,33.782268 -2.6324,2.193783 -13.16195,10.090832 -13.16195,10.090832 l -46.06672,-9.65212 -10.52953,-15.355575 z"
       id="path3444" />
    <path
       inkscape:connector-curvature="0"
       style="fill:#c89e00;fill-opacity:1;fill-rule:evenodd;stroke:#7b8743;stroke-width:4.88069391px;stroke-linecap:butt;stroke-linejoin:miter;stroke-opacity:1"
       d="m 227.74333,87.227386 c 0,0 9.65209,17.110484 10.52956,14.916864 0.87738,-2.193784 59.66743,-22.375305 59.66743,-22.375305 L 283.90091,50.812709 Z"
       id="path3452" />
    <path
       inkscape:connector-curvature="0"
       style="fill:#c89e00;fill-opacity:1;fill-rule:evenodd;stroke:#7b8743;stroke-width:4.88069391px;stroke-linecap:butt;stroke-linejoin:miter;stroke-opacity:1"
       d="m 304.95995,39.405706 c 0.87739,4.38732 9.21337,33.782268 9.21337,33.782268 l 58.78993,-36.853389 -4.3873,-38.1695697 -8.3359,-1.316133 z"
       id="path3454" />
    <path
       inkscape:connector-curvature="0"
       style="fill:#c89e00;fill-opacity:1;fill-rule:evenodd;stroke:#7b8743;stroke-width:4.88069391px;stroke-linecap:butt;stroke-linejoin:miter;stroke-opacity:1"
       d="m 475.1875,-315.96625 19.74294,76.77789 c 0,0 21.93651,-74.58422 19.30417,-76.77789 -2.63244,-2.19377 -22.81408,-52.6477 -22.81408,-52.6477 z"
       id="path3456" />
    <path
       inkscape:connector-curvature="0"
       style="fill:#c89e00;fill-opacity:1;fill-rule:evenodd;stroke:#7b8743;stroke-width:4.88069391px;stroke-linecap:butt;stroke-linejoin:miter;stroke-opacity:1"
       d="m 416.39761,-439.24959 c 0,1.75485 45.628,83.79755 45.628,83.79755 0,0 26.76257,-88.62363 24.56893,-89.50108 -2.19356,-0.87742 -44.75056,-53.08643 -44.75056,-53.08643 z"
       id="path3458" />
    <path
       inkscape:connector-curvature="0"
       style="fill:#c89e00;fill-opacity:1;fill-rule:evenodd;stroke:#7b8743;stroke-width:4.88069391px;stroke-linecap:butt;stroke-linejoin:miter;stroke-opacity:1"
       d="m 265.47423,-433.98482 c 3.07107,1.75485 72.8293,85.99123 72.8293,85.99123 0,0 58.78991,-89.50108 57.03502,-89.50108 -1.75485,0 -69.31948,-62.29977 -69.31948,-62.29977 z"
       id="path3460" />
    <path
       inkscape:connector-curvature="0"
       style="fill:#c89e00;fill-opacity:1;fill-rule:evenodd;stroke:#7b8743;stroke-width:4.88069391px;stroke-linecap:butt;stroke-linejoin:miter;stroke-opacity:1"
       d="m 76.381187,-432.22993 c 0,0 76.339193,82.92016 78.094093,83.35888 1.75484,0.43871 82.48138,-82.48143 80.28775,-83.35888 -2.19378,-0.87742 -75.90043,-69.31947 -75.90043,-69.31947 z"
       id="path3462" />
    <path
       inkscape:connector-curvature="0"
       style="fill:#c89e00;fill-opacity:1;fill-rule:evenodd;stroke:#7b8743;stroke-width:4.88069391px;stroke-linecap:butt;stroke-linejoin:miter;stroke-opacity:1"
       d="m -82.439373,-431.7912 51.3315,79.84902 78.53284,-85.11379 c 0,0 -55.2800804,-66.24833 -59.6674,-64.93214 -4.38731,1.31613 -70.19694,70.19691 -70.19694,70.19691 z"
       id="path3464" />
    <path
       inkscape:connector-curvature="0"
       style="fill:#c89e00;fill-opacity:1;fill-rule:evenodd;stroke:#7b8743;stroke-width:4.88069391px;stroke-linecap:butt;stroke-linejoin:miter;stroke-opacity:1"
       d="m -135.5258,-497.60081 26.32387,64.05469 -50.45407,84.67507 -16.67176,-85.99123 z"
       id="path3466" />
    <path
       inkscape:connector-curvature="0"
       style="fill:#c89e00;fill-opacity:1;fill-rule:evenodd;stroke:#7b8743;stroke-width:4.88069391px;stroke-linecap:butt;stroke-linejoin:miter;stroke-opacity:1"
       d="m -120.17021,-521.29227 27.640027,64.0547 64.49344,-67.56456 -35.53721,-54.84134 z"
       id="path3468" />
    <path
       inkscape:connector-curvature="0"
       style="fill:#c89e00;fill-opacity:1;fill-rule:evenodd;stroke:#7b8743;stroke-width:4.88069391px;stroke-linecap:butt;stroke-linejoin:miter;stroke-opacity:1"
       d="m -3.9065534,-522.16974 61.8610604,66.24836 82.920123,-72.3906 -67.564563,-52.64771 z"
       id="path3470" />
    <path
       inkscape:connector-curvature="0"
       style="fill:#c89e00;fill-opacity:1;fill-rule:evenodd;stroke:#7b8743;stroke-width:4.88069391px;stroke-linecap:butt;stroke-linejoin:miter;stroke-opacity:1"
       d="m 172.0245,-526.55704 73.70682,69.75819 67.56452,-71.51313 -75.46168,-52.20894 z"
       id="path3472" />
    <path
       inkscape:connector-curvature="0"
       style="fill:#c89e00;fill-opacity:1;fill-rule:evenodd;stroke:#7b8743;stroke-width:4.88069391px;stroke-linecap:butt;stroke-linejoin:miter;stroke-opacity:1"
       d="m 343.12957,-524.36342 54.40261,66.68712 32.90479,-66.24834 c 0,0 -50.45402,-60.54484 -53.08642,-57.47377 -2.63235,3.07113 -34.22098,57.03499 -34.22098,57.03499 z"
       id="path3474" />
    <path
       inkscape:connector-curvature="0"
       style="fill:#c89e00;fill-opacity:1;fill-rule:evenodd;stroke:#7b8743;stroke-width:4.88069391px;stroke-linecap:butt;stroke-linejoin:miter;stroke-opacity:1"
       d="m 384.37025,-594.12161 c 0,0 39.92452,53.52515 45.18927,51.33152 5.26475,-2.19377 11.40701,-46.50547 11.40701,-46.50547 l -49.13784,-49.13784 z"
       id="path3476" />
    <path
       inkscape:connector-curvature="0"
       style="fill:#c89e00;fill-opacity:1;fill-rule:evenodd;stroke:#7b8743;stroke-width:4.88069391px;stroke-linecap:butt;stroke-linejoin:miter;stroke-opacity:1"
       d="m 249.67993,-597.63146 c 0,0 67.5645,56.15756 69.31944,56.15756 1.75485,0 41.24068,-60.54486 39.48579,-60.54486 -1.75485,0 -66.6871,-41.67941 -66.6871,-41.67941 z"
       id="path3478" />
    <path
       inkscape:connector-curvature="0"
       style="fill:#c89e00;fill-opacity:1;fill-rule:evenodd;stroke:#7b8743;stroke-width:4.88069391px;stroke-linecap:butt;stroke-linejoin:miter;stroke-opacity:1"
       d="m 90.717127,-595.82749 c 1.86137,1.24085 58.633373,55.22083 61.425493,55.22083 2.79205,0 74.76527,-61.73564 74.76527,-61.73564 l -71.35276,-42.50148 z"
       id="path3480" />
    <path
       inkscape:connector-curvature="0"
       style="fill:#c89e00;fill-opacity:1;fill-rule:evenodd;stroke:#7b8743;stroke-width:4.88069391px;stroke-linecap:butt;stroke-linejoin:miter;stroke-opacity:1"
       d="m -47.024763,-597.37863 c 0,0 31.33316,60.49472 33.19453,58.0129 1.86138,-2.48184 73.52441,-54.91063 72.90395,-57.08221 -0.62055,-2.17154 -45.91397,-49.63674 -45.91397,-49.63674 z"
       id="path3482" />
    <path
       inkscape:connector-curvature="0"
       style="fill:#c89e00;fill-opacity:1;fill-rule:evenodd;stroke:#7b8743;stroke-width:4.88069391px;stroke-linecap:butt;stroke-linejoin:miter;stroke-opacity:1"
       d="m -127.06399,-587.45131 c 0,2.17154 2.17151,43.43214 2.17151,43.43214 0,0 58.012957,-53.66973 58.012957,-55.84128 0,-2.17154 -13.65013,-48.70606 -13.65013,-47.46514 0,1.24084 -46.534417,59.87428 -46.534417,59.87428 z"
       id="path3484" />
    <path
       inkscape:connector-curvature="0"
       style="fill:#c89e00;fill-opacity:1;fill-rule:evenodd;stroke:#7b8743;stroke-width:4.88069391px;stroke-linecap:butt;stroke-linejoin:miter;stroke-opacity:1"
       d="m -65.638543,-655.08136 c 0,4.34322 4.96366,36.60711 5.27389,39.08893 0.31014,2.48182 68.8709596,-42.1912 68.8709596,-42.1912 0,0 -15.8217,-35.67641 -18.30355,-35.67641 -2.4818296,0 -55.8412996,38.77868 -55.8412996,38.77868 z"
       id="path3486" />
    <path
       inkscape:connector-curvature="0"
       style="fill:#c89e00;fill-opacity:1;fill-rule:evenodd;stroke:#7b8743;stroke-width:4.88069391px;stroke-linecap:butt;stroke-linejoin:miter;stroke-opacity:1"
       d="m 37.357647,-653.21995 39.70939,40.95029 c 0,0 63.286843,-44.67306 60.184513,-45.91397 -3.10227,-1.24083 -42.811683,-33.19455 -46.224163,-31.33316 -3.41253,1.86138 -53.66974,36.29684 -53.66974,36.29684 z"
       id="path3488" />
    <path
       inkscape:connector-curvature="0"
       style="fill:#c89e00;fill-opacity:1;fill-rule:evenodd;stroke:#7b8743;stroke-width:4.88069391px;stroke-linecap:butt;stroke-linejoin:miter;stroke-opacity:1"
       d="m 174.16888,-655.08136 c 0,0 55.22085,44.0526 57.08225,43.74239 1.86137,-0.31042 44.67305,-47.15488 43.12191,-47.15488 -1.55122,0 -52.42879,-37.84801 -54.29016,-36.29689 -1.86138,1.55123 -45.914,39.70938 -45.914,39.70938 z"
       id="path3490" />
    <path
       inkscape:connector-curvature="0"
       style="fill:#c89e00;fill-opacity:1;fill-rule:evenodd;stroke:#7b8743;stroke-width:4.88069391px;stroke-linecap:butt;stroke-linejoin:miter;stroke-opacity:1"
       d="m 296.39932,-653.84046 c 15.51148,3.10232 65.14824,44.6731 65.14824,44.6731 l 8.06596,-9.92733 3.10227,-37.22758 -55.84127,-35.36614 z"
       id="path3492" />
    <path
       inkscape:connector-curvature="0"
       style="fill:#7b8743;fill-opacity:1;fill-rule:evenodd;stroke:#c89e00;stroke-width:4.88069391px;stroke-linecap:butt;stroke-linejoin:miter;stroke-opacity:1"
       d="m 8.5063066,-699.13391 c 4.3432104,24.19789 9.9273504,28.54107 9.9273504,28.54107 l 16.7524,0.62055 35.98662,-26.67975 c 0,0 37.227543,-5.58414 37.848023,-3.1023 0.62055,2.48185 35.98661,29.16156 35.98661,29.16156 l 24.1979,1.86136 26.05929,-32.88428 32.26388,-1.24107 c 0,0 38.46847,34.12528 40.9503,34.12528 2.48184,0 21.09563,-1.24084 21.09563,-1.24084 l 14.27057,-32.88438 -16.13197,-7.4455 c 0,0 -11.16826,-6.82501 -4.34319,-9.30689 6.82502,-2.48183 12.40917,-3.10228 12.40917,-3.10228 0,0 76.31649,-8.06597 98.65298,0 22.33653,8.066 11.16829,-14.27054 11.16829,-14.27054 0,0 -36.60709,-19.23422 -106.09853,-19.85471 -69.49143,-0.62055 -99.27346,6.20458 -104.23713,6.20458 -4.96366,0 -88.72562,-47.15487 -88.72562,-47.15487 0,0 -17.372893,-19.85471 -17.372893,4.34323 0,24.19789 2.48183,29.78202 -1.24084,36.60706 -3.72276,6.82505 -18.61379,0.62055 -22.33657,0.62055 -3.72273,0 -32.88429,-1.24085 -55.22082,-1.24085 -22.33653,0 -40.32983,0 -62.04592,1.24085 -21.71605,1.24085 -23.57745,-1.24085 -25.43882,3.72274 -1.86138,4.96367 -7.4455,16.1319 7.44552,19.23421 14.89101,3.10232 65.7686596,3.10232 76.3164596,8.066 10.5478104,4.96367 21.0956204,8.68641 1.86138,26.05928 z"
       id="path3494" />
    <path
       style="fill:#000000;fill-opacity:1;fill-rule:evenodd;stroke:#000000;stroke-width:6.37759876px;stroke-linecap:butt;stroke-linejoin:miter;stroke-opacity:1"
       d="m 462.12493,-457.33959 c 0,0 -16.81087,19.00356 -15.34906,38.73803 1.46177,19.73444 -13.88723,51.16346 -19.73448,59.20338 -5.84721,8.03999 -28.5053,48.23986 -78.9379,44.5853 -50.4325,-3.65453 -99.40322,-15.34904 -111.82868,-24.85085 -12.42529,-9.50173 -47.50885,-76.74507 -48.97065,-86.24688 -1.46179,-9.50178 -8.03993,-29.9672 -13.15633,-31.42898 -5.1163,-1.46177 -15.34898,-3.6545 -15.34898,-3.6545 0,0 -21.92726,-4.38541 -26.31265,7.30902 -4.38546,11.69449 -14.61812,68.70519 -21.19625,76.7452 -6.57822,8.03996 -57.741603,54.08706 -68.705193,57.74153 -10.96361,3.65456 -113.29044,21.19628 -139.6031,-6.57816 -26.312627,-27.7744 -38.738017,-86.9778 -40.199857,-97.94141 -1.46176,-10.96363 -6.5782,-43.1235 -25.58171,-51.89435 -19.00356,-8.77085 -7.30904,-38.00709 -7.30904,-38.00709 0,0 27.77436,-13.88722 120.599527,-13.88722 92.82507,0 143.98848,8.03996 171.762953,27.77445 27.7744,19.73445 60.66516,2.92359 60.66516,2.92359 0,0 14.61817,-16.07989 65.0507,-24.1199 50.43254,-8.03996 165.1848,-3.65453 207.57733,-1.46177 42.39266,2.19266 30.69802,0 30.69802,0 0,0 0.73084,34.35252 -4.38537,39.46892 -5.11633,5.11637 -18.27262,19.00355 -19.73444,25.58169 z"
       id="path4003"
       inkscape:connector-curvature="0" />
    <path
       style="fill:#c8c8c8;fill-opacity:1;fill-rule:evenodd;stroke:#000000;stroke-width:6.37759876px;stroke-linecap:butt;stroke-linejoin:miter;stroke-opacity:1"
       d="m 30.890217,-341.85642 c 0,0 55.54889,-17.54176 61.39609,-67.24336 5.84732,-49.70162 10.232783,-80.39971 -76.01419,-92.09415 -86.24695,-11.69449 -121.330467,4.3854 -127.177667,16.07989 -5.84726,11.69454 -7.30909,87.70875 -1.46178,99.40329 5.84723,11.69447 4.38541,43.85433 68.705187,51.16341 64.31974,7.30902 74.5524,-7.30908 74.5524,-7.30908 z"
       id="path3986"
       inkscape:connector-curvature="0" />
    <path
       style="fill:#c8c8c8;fill-opacity:1;fill-rule:evenodd;stroke:#000000;stroke-width:6.37759876px;stroke-linecap:butt;stroke-linejoin:miter;stroke-opacity:1"
       d="m 276.00126,-346.69357 c 0,0 -55.54892,-17.54176 -61.39618,-67.24337 -5.84725,-49.70163 -10.23272,-80.39967 76.01427,-92.09416 86.24695,-11.69448 121.33042,4.38541 127.17766,16.0799 5.84726,11.69454 7.30902,87.70874 1.46178,99.40328 -5.84724,11.69448 -4.38546,43.85435 -68.70519,51.16342 -64.31973,7.30903 -74.5524,-7.30907 -74.5524,-7.30907 z"
       id="path3986-9"
       inkscape:connector-curvature="0" />
    <path
       inkscape:connector-curvature="0"
       style="fill:#c89e00;fill-opacity:1;fill-rule:evenodd;stroke:#7b8743;stroke-width:4.88069391px;stroke-linecap:butt;stroke-linejoin:miter;stroke-opacity:1"
       d="m 87.215067,-28.246124 c 2.63241,1.754854 68.375603,53.377868 68.375603,53.377868 L 220.49388,-29.85962 157.1522,-93.922874 Z"
       id="path3414-0"
       sodipodi:nodetypes="ccccc" />
    <path
       inkscape:connector-curvature="0"
       style="fill:#c89e00;fill-opacity:1;fill-rule:evenodd;stroke:#7b8743;stroke-width:4.88069391px;stroke-linecap:butt;stroke-linejoin:miter;stroke-opacity:1"
       d="M 73.156407,-10.831792 139.16378,36.498182 103.3044,76.191842 38.649417,35.877717 Z"
       id="path3438-0"
       sodipodi:nodetypes="ccccc" />
    <path
       inkscape:connector-curvature="0"
       style="fill:#c89e00;fill-opacity:1;fill-rule:evenodd;stroke:#7b8743;stroke-width:4.88069391px;stroke-linecap:butt;stroke-linejoin:miter;stroke-opacity:1"
       d="m 175.09514,35.984834 c 0,4.343224 40.09113,40.998217 40.09113,40.998217 l 56.30308,-36.766512 -40.95031,-55.841324 z"
       id="path3434-3"
       sodipodi:nodetypes="ccccc" />
    <path
       inkscape:connector-curvature="0"
       style="fill:#7b8743;fill-opacity:1;fill-rule:evenodd;stroke:#c89600;stroke-width:4.88069391px;stroke-linecap:butt;stroke-linejoin:miter;stroke-opacity:1"
       d="m 92.339367,103.49805 c 2.63241,1.75485 69.059663,15.06949 69.059663,15.06949 l 62.16692,-10.5263 -66.7621,-58.590626 z"
       id="path3414-0-5"
       sodipodi:nodetypes="ccccc" />
    <path
       style="fill:#c89e00;fill-opacity:1;fill-rule:evenodd;stroke:#000000;stroke-width:5.9558754;stroke-linecap:butt;stroke-linejoin:miter;stroke-miterlimit:4;stroke-dasharray:none;stroke-opacity:1"
       d="m -116.2333,-536.72847 569.20884,0.79832 43.9081,-26.34487 -0.79805,-43.9081 c 0,0 -6.38661,-23.15154 -27.14319,-22.35324 0,0 -9.57995,-3.99164 -10.37829,-25.54652 -0.79833,-21.5549 -20.75655,-120.54778 -101.38781,-176.43083 -80.6312,-55.88302 -122.14436,-55.88302 -143.69925,-62.26967 0,0 -5.41332,-28.03095 -28.558,-31.84134 l -36.12825,-0.56478 c 0,0 -29.63652,5.22166 -33.58795,32.74122 0,0 -119.1104334,14.67714 -195.882943,108.38482 0,0 -54.712777,84.47551 -52.716927,152.73269 l -18.36154,0.39912 c 0,0 -25.94575,4.78999 -26.74422,27.54236 -0.79787,22.75238 0,38.3198 0,38.3198 z"
       id="path4686"
       inkscape:connector-curvature="0" />
    <path
       style="fill:#eaa133;fill-opacity:1;fill-rule:evenodd;stroke:#000000;stroke-width:3.70837522;stroke-linecap:butt;stroke-linejoin:miter;stroke-miterlimit:4;stroke-dasharray:none;stroke-opacity:1"
       d="m -99.867543,-551.49758 525.699883,-0.39916 c 0,0 4.78996,-8.38244 -1.59663,-7.98327 -6.38665,0.39915 -526.09899,-0.7983 -526.09899,-0.7983 0,0 -7.58414,3.99164 1.995777,9.18077 z"
       id="path4688"
       inkscape:connector-curvature="0" />
    <path
       style="fill:#eaa133;fill-opacity:1;fill-rule:evenodd;stroke:#000000;stroke-width:3.70837522;stroke-linecap:butt;stroke-linejoin:miter;stroke-miterlimit:4;stroke-dasharray:none;stroke-opacity:1"
       d="m -132.99822,-631.33049 593.55788,0 -2.39497,-13.5716 -590.36453,0 z"
       id="path4690"
       inkscape:connector-curvature="0" />
    <path
       style="fill:#eaa133;fill-opacity:1;fill-rule:evenodd;stroke:#000000;stroke-width:3.70837522;stroke-linecap:butt;stroke-linejoin:miter;stroke-miterlimit:4;stroke-dasharray:none;stroke-opacity:1"
       d="m 70.575817,-881.20758 c 0,0 37.521433,49.49644 48.298913,121.34608 10.77742,71.84963 11.57577,112.96358 11.57577,112.96358 l 9.97913,0.39912 c 0,0 1.59662,-92.6062 -4.39085,-131.32511 -5.98741,-38.719 -17.56318,-106.17781 -20.75654,-113.76194 0,0 -29.937383,2.79413 -44.706423,10.37825 z"
       id="path4692"
       inkscape:connector-curvature="0" />
    <path
       style="fill:#eaa133;fill-opacity:1;fill-rule:evenodd;stroke:#000000;stroke-width:3.70837522;stroke-linecap:butt;stroke-linejoin:miter;stroke-miterlimit:4;stroke-dasharray:none;stroke-opacity:1"
       d="m 212.27922,-893.98084 c 0,0 -25.94567,113.76197 -26.34478,173.23746 -0.39941,59.47553 0.79786,74.24463 0.79786,74.24463 l 10.77748,-0.39913 c 0,0 2.79414,-98.1945 15.5674,-136.91348 12.77327,-38.71902 25.14738,-81.82882 43.50893,-98.5937 z"
       id="path4694"
       inkscape:connector-curvature="0" />
    <path
       style="fill:#808080;fill-rule:evenodd;stroke:#000000;stroke-width:4.49500084;stroke-linecap:butt;stroke-linejoin:miter;stroke-miterlimit:4;stroke-dasharray:none;stroke-opacity:1"
       d="m -233.80032,-375.07566 265.854357,211.20609 39.2465,8.73462 c 0,0 27.42745,-25.35095 64.565473,5.32366 37.13811,30.67453 36.91155,54.117006 36.91155,54.117006 l -55.30888,-24.638586 c 0,0 -28.945743,11.81373 -32.061073,29.868616 -3.11532,18.05496 -6.61022,32.72561 0.29016,38.23428 l 54.560353,28.149391 c 0,0 -18.03366,17.4435743 -46.120343,11.455378 -28.08663,-5.988216 -47.9076,-19.757217 -53.30571,-27.147809 -5.39807,-7.39063 -9.0673,-40.10558 -12.71002,-47.12197 -3.64265,-7.01632 -12.56749,-30.574576 -49.57903,-60.121096 -37.0115,-29.54649 -226.339007,-184.79614 -226.339007,-184.79614 0,0 -35.38262,-30.30036 -52.17762,-27.27436 -16.79502,3.02597 -34.84463,5.05043 -39.61007,3.30034 -4.76541,-1.75013 -34.49155,-17.26392 -50.95481,-57.11114 l 49.91613,22.38771 c 0,0 24.31208,-7.29599 34.32259,-24.98196 10.01043,-17.686 3.85846,-26.70554 1.09093,-36.10458 l -54.05958,-28.77675 2.50395,-3.13657 c 0,0 52.51466,-10.45909 74.34417,5.94041 21.82951,16.3994 18.71415,34.45443 21.36051,47.86511 2.64641,13.41068 7.6862,37.9759 27.25947,54.62842 z"
       id="path6191"
       inkscape:connector-curvature="0" />
    <path
       style="fill:#ffffff;fill-opacity:0.46190479;fill-rule:evenodd;stroke:none;stroke-width:1px;stroke-linecap:butt;stroke-linejoin:miter;stroke-opacity:1"
       d="m -314.09123,-358.28854 c 0,0 22.00386,-11.96319 24.93082,-15.14723 2.92711,-3.18392 -10.78197,13.9888 -10.78197,13.9888 l -15.99632,2.5081 z"
       id="path6193"
       inkscape:connector-curvature="0" />
    <path
       style="fill:#ffffff;fill-opacity:0.46190479;fill-rule:evenodd;stroke:none;stroke-width:1px;stroke-linecap:butt;stroke-linejoin:miter;stroke-opacity:1"
       d="m -263.67455,-442.83274 c 0,0 1.65684,26.2297 -10.79571,46.33136 l 14.45167,-26.4657 z"
       id="path6195"
       inkscape:connector-curvature="0"
       sodipodi:nodetypes="cccc" />
    <path
       style="fill:#ffffff;fill-opacity:0.46190479;fill-rule:evenodd;stroke:none;stroke-width:1px;stroke-linecap:butt;stroke-linejoin:miter;stroke-opacity:1"
       d="m 46.289577,-35.673231 c 0,0 -6.65274,-8.392243 -7.31566,-13.029793 -0.66306,-4.63763 1.26872,-45.97678 6.39914,-54.976626 5.13043,-8.99984 7.31806,-14.95665 7.31806,-14.95665 0,0 -19.82842,39.633996 -20.10647,43.520426 -0.27823,3.88635 -0.11909,5.29655 -0.11909,5.29655 l 3.96696,17.54619 2.1403,8.89828 4.77078,6.889797 z"
       id="path6197"
       inkscape:connector-curvature="0" />
    <path
       style="fill:#ff0000;fill-opacity:1;fill-rule:evenodd;stroke:#000000;stroke-width:4.49500084;stroke-linecap:butt;stroke-linejoin:miter;stroke-miterlimit:4;stroke-dasharray:none;stroke-opacity:1"
       d="m -53.703903,-473.39171 -0.53962,109.00237 101.98736,-55.58038 z"
       id="path6854"
       inkscape:connector-curvature="0"
       sodipodi:nodetypes="cccc" />
    <rect
       style="fill:#ff0000;fill-opacity:1;stroke:#000000;stroke-width:4.49500084;stroke-miterlimit:4;stroke-dasharray:none;stroke-opacity:1"
       id="rect6871"
       width="28.230833"
       height="89.397636"
       x="286.68869"
       y="-468.22723" />
    <rect
       style="fill:#ff0000;fill-opacity:1;stroke:#000000;stroke-width:4.49500084;stroke-miterlimit:4;stroke-dasharray:none;stroke-opacity:1"
       id="rect6871-8"
       width="28.230833"
       height="89.397636"
       x="333.74008"
       y="-468.22723" />
  </g>
</svg>
