<?xml version="1.0" encoding="UTF-8" standalone="no"?>
<!-- Created with Inkscape (http://www.inkscape.org/) -->

<svg
   xmlns:dc="http://purl.org/dc/elements/1.1/"
   xmlns:cc="http://creativecommons.org/ns#"
   xmlns:rdf="http://www.w3.org/1999/02/22-rdf-syntax-ns#"
   xmlns:svg="http://www.w3.org/2000/svg"
   xmlns="http://www.w3.org/2000/svg"
   xmlns:sodipodi="http://sodipodi.sourceforge.net/DTD/sodipodi-0.dtd"
   xmlns:inkscape="http://www.inkscape.org/namespaces/inkscape"
   width="1920"
   height="1080"
   id="svg6509"
   version="1.1"
   inkscape:version="0.91 r13725"
   viewBox="0 0 1920 1080"
   sodipodi:docname="ananasmort.svg">
  <defs
     id="defs6511" />
  <sodipodi:namedview
     id="base"
     pagecolor="#ffffff"
     bordercolor="#666666"
     borderopacity="1.0"
     inkscape:pageopacity="0.0"
     inkscape:pageshadow="2"
     inkscape:zoom="0.19541016"
     inkscape:cx="512.73216"
     inkscape:cy="323.89179"
     inkscape:document-units="px"
     inkscape:current-layer="layer1"
     showgrid="false"
     inkscape:window-width="1600"
     inkscape:window-height="836"
     inkscape:window-x="0"
     inkscape:window-y="27"
     inkscape:window-maximized="1" />
  <metadata
     id="metadata6514">
    <rdf:RDF>
      <cc:Work
         rdf:about="">
        <dc:format>image/svg+xml</dc:format>
        <dc:type
           rdf:resource="http://purl.org/dc/dcmitype/StillImage" />
        <dc:title></dc:title>
      </cc:Work>
    </rdf:RDF>
  </metadata>
  <g
     id="layer1"
     inkscape:label="Layer 1"
     inkscape:groupmode="layer">
    <rect
       style="fill:#ffff00;fill-opacity:1;stroke:none;stroke-width:12.80000019;stroke-miterlimit:4;stroke-dasharray:none;stroke-opacity:1"
       id="rect6470"
       width="1951.5713"
       height="1454.7605"
       x="-1979.0901"
       y="-1134.5692"
       transform="scale(-1,-1)" />
    <ellipse
       style="fill:#ff0000;fill-opacity:1;stroke:none;stroke-width:12.80000019;stroke-miterlimit:4;stroke-dasharray:none;stroke-opacity:1"
       id="path6468"
       cx="1012.5681"
       cy="1034.5542"
       rx="330.40845"
       ry="324.29037" />
    <path
       style="fill:#ff0000;fill-opacity:1;fill-rule:evenodd;stroke:none;stroke-width:1px;stroke-linecap:butt;stroke-linejoin:miter;stroke-opacity:1"
       d="m 787.14941,1146.6922 -870.796032,-6.0615 -6.175857,-406.12074 852.268439,200.02961 24.70345,-66.67657 -920.2029,-490.98164 30.87928,-545.5352 951.08219,994.08631 49.40687,-24.24593 -771.98229,-1248.66947 487.8928,12.12301 333.49636,1218.36186 104.98958,-12.12291 135.8689,-1206.23895 611.4099,0 -648.465,1242.60791 907.8512,-1036.51684 0,575.84269 -833.7409,503.10468 24.7034,90.92251 827.565,-369.75161 -49.4068,569.78128 -1068.42357,60.615 z"
       id="path6472"
       inkscape:connector-curvature="0" />
    <path
       style="fill:#c89e00;fill-opacity:1;fill-rule:evenodd;stroke:#7b8743;stroke-width:5.16049385px;stroke-linecap:butt;stroke-linejoin:miter;stroke-opacity:1"
       d="m 1029.2664,514.22255 80.787,102.68836 71.5163,-97.48899 -71.5163,-85.79039 z"
       id="path3400"
       inkscape:connector-curvature="0" />
    <path
       style="fill:#c89e00;fill-opacity:1;fill-rule:evenodd;stroke:#7b8743;stroke-width:5.16049385px;stroke-linecap:butt;stroke-linejoin:miter;stroke-opacity:1"
       d="m 905.80756,430.59147 82.11132,84.49039 -72.84073,94.88931 -86.08443,-94.88931 z"
       id="path3402"
       inkscape:connector-curvature="0" />
    <path
       style="fill:#c89e00;fill-opacity:1;fill-rule:evenodd;stroke:#7b8743;stroke-width:5.16049385px;stroke-linecap:butt;stroke-linejoin:miter;stroke-opacity:1"
       d="m 684.92857,538.67615 c 0,0 41.0556,98.7888 47.67757,92.28953 6.62185,-6.49926 56.94817,-105.28806 56.94817,-105.28806 l -51.65069,-71.49196 z"
       id="path3404"
       inkscape:connector-curvature="0" />
    <path
       style="fill:#c89e00;fill-opacity:1;fill-rule:evenodd;stroke:#7b8743;stroke-width:5.16049385px;stroke-linecap:butt;stroke-linejoin:miter;stroke-opacity:1"
       d="m 1218.6523,534.77657 59.5966,98.78889 55.624,-94.88931 -59.5971,-88.39007 z"
       id="path3406"
       inkscape:connector-curvature="0" />
    <path
       style="fill:#c89e00;fill-opacity:1;fill-rule:evenodd;stroke:#7b8743;stroke-width:5.16049385px;stroke-linecap:butt;stroke-linejoin:miter;stroke-opacity:1"
       d="m 650.40106,488.35947 c 0,2.29782 11.23771,49.63328 11.23771,49.63328 l -21.07069,91.45398 -15.45182,-73.53085 z"
       id="path3408"
       inkscape:connector-curvature="0" />
    <path
       style="fill:#c89e00;fill-opacity:1;fill-rule:evenodd;stroke:#7b8743;stroke-width:5.16049385px;stroke-linecap:butt;stroke-linejoin:miter;stroke-opacity:1"
       d="m 672.8765,582.57078 52.5535,71.27224 -9.63578,43.82502 -64.45666,-35.13245 z"
       id="path3410"
       inkscape:connector-curvature="0"
       sodipodi:nodetypes="ccccc" />
    <path
       style="fill:#c89e00;fill-opacity:1;fill-rule:evenodd;stroke:#7b8743;stroke-width:5.82103682;stroke-linecap:butt;stroke-linejoin:miter;stroke-miterlimit:4;stroke-dasharray:none;stroke-opacity:1"
       d="m 755.65724,645.01336 c 0,0 57.72619,95.2341 60.05392,95.82184 2.32773,0.58797 67.50246,-102.28836 67.50246,-102.28836 0,0 -70.29565,-107.57905 -72.15778,-105.22759 -1.86214,2.35146 -55.3986,111.69411 -55.3986,111.69411 z"
       id="path3412"
       inkscape:connector-curvature="0" />
    <path
       style="fill:#000000;fill-opacity:1;fill-rule:evenodd;stroke:#c89e00;stroke-width:5.16049385px;stroke-linecap:butt;stroke-linejoin:miter;stroke-opacity:1"
       d="m 908.93879,665.84541 97.05471,93.23088 105.3147,-92.21744 -105.3147,-145.92659 z"
       id="path5075"
       inkscape:connector-curvature="0" />
    <path
       style="fill:#c89e00;fill-opacity:1;fill-rule:evenodd;stroke:#7b8743;stroke-width:5.16049385px;stroke-linecap:butt;stroke-linejoin:miter;stroke-opacity:1"
       d="m 916.70869,649.26738 c 2.80937,1.83824 91.33011,-90.09433 91.33011,-90.09433 l 99.9621,99.67431 -101.0907,-136.70232 z"
       id="path3414"
       inkscape:connector-curvature="0"
       sodipodi:nodetypes="ccccc" />
    <path
       style="fill:#c89e00;fill-opacity:1;fill-rule:evenodd;stroke:#7b8743;stroke-width:5.66338491px;stroke-linecap:butt;stroke-linejoin:miter;stroke-opacity:1"
       d="m 1131.1783,649.43855 61.923,88.50818 66.5789,-92.40471 -53.0768,-99.64111 z"
       id="path3416"
       inkscape:connector-curvature="0" />
    <path
       style="fill:#c89e00;fill-opacity:1;fill-rule:evenodd;stroke:#7b8743;stroke-width:5.16049385px;stroke-linecap:butt;stroke-linejoin:miter;stroke-opacity:1"
       d="m 1293.2914,661.61642 7.9692,35.18683 c 0,0 44.5709,-14.59124 63.0519,-22.80264 l -23.7291,-99.24244 z"
       id="path3418"
       inkscape:connector-curvature="0"
       sodipodi:nodetypes="ccccc" />
    <path
       style="fill:#c89e00;fill-opacity:1;fill-rule:evenodd;stroke:#7b8743;stroke-width:4.79505968px;stroke-linecap:butt;stroke-linejoin:miter;stroke-opacity:1"
       d="m 729.85687,699.37547 c 1.33185,2.23191 32.70292,18.4556 32.70292,18.4556 l 24.49518,9.6432 -47.00814,-77.37869 z"
       id="path3422"
       inkscape:connector-curvature="0"
       sodipodi:nodetypes="ccccc" />
    <path
       style="fill:#c89e00;fill-opacity:1;fill-rule:evenodd;stroke:#7b8743;stroke-width:5.16049385px;stroke-linecap:butt;stroke-linejoin:miter;stroke-opacity:1"
       d="m 846.70618,746.0867 101.56885,51.5111 39.93565,-32.74717 -89.78757,-89.86524 z"
       id="path3424"
       inkscape:connector-curvature="0"
       sodipodi:nodetypes="ccccc" />
    <path
       style="fill:#c89e00;fill-opacity:1;fill-rule:evenodd;stroke:#7b8743;stroke-width:5.16049385px;stroke-linecap:butt;stroke-linejoin:miter;stroke-opacity:1"
       d="m 1026.6176,764.85063 26.9979,24.21501 105.6099,-41.72931 -44.3014,-70.76469 z"
       id="path3426"
       inkscape:connector-curvature="0"
       sodipodi:nodetypes="ccccc" />
    <path
       style="fill:#c89e00;fill-opacity:1;fill-rule:evenodd;stroke:#7b8743;stroke-width:5.16049385px;stroke-linecap:butt;stroke-linejoin:miter;stroke-opacity:1"
       d="m 1208.991,735.58831 c 51.082,-17.32135 52.5061,-19.3095 84.5905,-29.49625 l -20.8338,-47.97843 z"
       id="path3428"
       inkscape:connector-curvature="0"
       sodipodi:nodetypes="cccc" />
    <path
       style="fill:#c89e00;fill-opacity:1;fill-rule:evenodd;stroke:#7b8743;stroke-width:5.16049385px;stroke-linecap:butt;stroke-linejoin:miter;stroke-opacity:1"
       d="m 1348.5434,544.88629 21.0707,80.42429 c 0,0 23.4119,-78.12648 20.6025,-80.42429 -2.8095,-2.29791 -24.3484,-55.14817 -24.3484,-55.14817 z"
       id="path3456"
       inkscape:connector-curvature="0" />
    <path
       style="fill:#c89e00;fill-opacity:1;fill-rule:evenodd;stroke:#7b8743;stroke-width:5.16049385px;stroke-linecap:butt;stroke-linejoin:miter;stroke-opacity:1"
       d="m 1285.7996,415.74779 c 0,1.83823 48.6966,87.77736 48.6966,87.77736 0,0 28.5625,-92.83267 26.2214,-93.75183 -2.3411,-0.91907 -47.7603,-55.60762 -47.7603,-55.60762 z"
       id="path3458"
       inkscape:connector-curvature="0" />
    <path
       style="fill:#c89e00;fill-opacity:1;fill-rule:evenodd;stroke:#7b8743;stroke-width:5.16049385px;stroke-linecap:butt;stroke-linejoin:miter;stroke-opacity:1"
       d="m 1124.726,421.26258 c 3.2776,1.83824 77.7274,90.07526 77.7274,90.07526 0,0 62.7437,-93.75182 60.8707,-93.75182 -1.873,0 -73.9813,-65.25857 -73.9813,-65.25857 z"
       id="path3460"
       inkscape:connector-curvature="0" />
    <path
       style="fill:#c89e00;fill-opacity:1;fill-rule:evenodd;stroke:#7b8743;stroke-width:5.16049385px;stroke-linecap:butt;stroke-linejoin:miter;stroke-opacity:1"
       d="m 920.85039,411.95362 c 0,0 81.47351,86.85833 83.34641,87.31783 1.8728,0.45967 88.0286,-86.39868 85.6875,-87.31783 -2.3412,-0.91908 -81.0052,-72.61164 -81.0052,-72.61164 z"
       id="path3462"
       inkscape:connector-curvature="0" />
    <path
       style="fill:#c89e00;fill-opacity:1;fill-rule:evenodd;stroke:#7b8743;stroke-width:5.16049385px;stroke-linecap:butt;stroke-linejoin:miter;stroke-opacity:1"
       d="m 753.41338,423.5604 54.78372,83.6413 83.81464,-89.15609 c 0,0 -58.99796,-69.3947 -63.68032,-68.01601 -4.68236,1.37868 -74.91804,73.5308 -74.91804,73.5308 z"
       id="path3464"
       inkscape:connector-curvature="0" />
    <path
       style="fill:#c89e00;fill-opacity:1;fill-rule:evenodd;stroke:#7b8743;stroke-width:5.16049385px;stroke-linecap:butt;stroke-linejoin:miter;stroke-opacity:1"
       d="m 696.75655,354.62527 28.0943,67.09689 -53.84736,88.69653 -17.79306,-90.07528 z"
       id="path3466"
       inkscape:connector-curvature="0" />
    <path
       style="fill:#c89e00;fill-opacity:1;fill-rule:evenodd;stroke:#7b8743;stroke-width:5.16049385px;stroke-linecap:butt;stroke-linejoin:miter;stroke-opacity:1"
       d="m 713.14488,329.80862 29.49904,67.09688 68.83092,-70.77343 -37.92726,-57.44592 z"
       id="path3468"
       inkscape:connector-curvature="0" />
    <path
       style="fill:#c89e00;fill-opacity:1;fill-rule:evenodd;stroke:#7b8743;stroke-width:5.16049385px;stroke-linecap:butt;stroke-linejoin:miter;stroke-opacity:1"
       d="m 837.22789,328.88949 66.02156,69.39466 88.49687,-75.82862 -72.10866,-55.14812 z"
       id="path3470"
       inkscape:connector-curvature="0" />
    <path
       style="fill:#c89e00;fill-opacity:1;fill-rule:evenodd;stroke:#7b8743;stroke-width:5.16049385px;stroke-linecap:butt;stroke-linejoin:miter;stroke-opacity:1"
       d="m 1024.9912,324.29382 78.664,73.07126 72.1086,-74.90955 -80.5369,-54.6885 z"
       id="path3472"
       inkscape:connector-curvature="0" />
    <path
       style="fill:#c89e00;fill-opacity:1;fill-rule:evenodd;stroke:#7b8743;stroke-width:5.16049385px;stroke-linecap:butt;stroke-linejoin:miter;stroke-opacity:1"
       d="m 1207.6041,326.59163 58.0612,69.85428 35.1179,-69.39466 c 0,0 -53.8473,-63.42033 -56.6567,-60.2034 -2.8095,3.21698 -36.5224,59.74378 -36.5224,59.74378 z"
       id="path3474"
       inkscape:connector-curvature="0" />
    <path
       style="fill:#c89e00;fill-opacity:1;fill-rule:evenodd;stroke:#7b8743;stroke-width:5.16049385px;stroke-linecap:butt;stroke-linejoin:miter;stroke-opacity:1"
       d="m 1251.6183,253.5204 c 0,0 42.6096,56.06723 48.2283,53.76941 5.619,-2.29785 12.1742,-48.71417 12.1742,-48.71417 l -52.4426,-51.47157 z"
       id="path3476"
       inkscape:connector-curvature="0" />
    <path
       style="fill:#c89e00;fill-opacity:1;fill-rule:evenodd;stroke:#7b8743;stroke-width:5.16049385px;stroke-linecap:butt;stroke-linejoin:miter;stroke-opacity:1"
       d="m 1107.8693,249.84385 c 0,0 72.1086,58.82466 73.9816,58.82466 1.8729,0 44.0144,-63.42032 42.1414,-63.42032 -1.8728,0 -71.1722,-43.65891 -71.1722,-43.65891 z"
       id="path3478"
       inkscape:connector-curvature="0" />
    <path
       style="fill:#c89e00;fill-opacity:1;fill-rule:evenodd;stroke:#7b8743;stroke-width:5.16049385px;stroke-linecap:butt;stroke-linejoin:miter;stroke-opacity:1"
       d="m 938.21553,251.73348 c 1.98655,1.29985 62.57677,57.84347 65.55667,57.84347 2.9798,0 79.7936,-64.66767 79.7936,-64.66767 l -76.1516,-44.52001 z"
       id="path3480"
       inkscape:connector-curvature="0" />
    <path
       style="fill:#c89e00;fill-opacity:1;fill-rule:evenodd;stroke:#7b8743;stroke-width:5.16049385px;stroke-linecap:butt;stroke-linejoin:miter;stroke-opacity:1"
       d="m 791.20971,250.10868 c 0,0 33.44053,63.36782 35.42708,60.76811 1.98656,-2.59969 78.46936,-57.5185 77.80706,-59.79321 -0.66207,-2.27476 -49.00182,-51.99414 -49.00182,-51.99414 z"
       id="path3482"
       inkscape:connector-curvature="0" />
    <path
       style="fill:#c89e00;fill-opacity:1;fill-rule:evenodd;stroke:#7b8743;stroke-width:5.16049385px;stroke-linecap:butt;stroke-linejoin:miter;stroke-opacity:1"
       d="m 705.78747,260.50749 c 0,2.27475 2.3177,45.49484 2.3177,45.49484 0,0 61.91449,-56.21864 61.91449,-58.49334 0,-2.27476 -14.56807,-51.01926 -14.56807,-49.71941 0,1.29986 -49.66412,62.71791 -49.66412,62.71791 z"
       id="path3484"
       inkscape:connector-curvature="0" />
    <path
       style="fill:#c89e00;fill-opacity:1;fill-rule:evenodd;stroke:#7b8743;stroke-width:5.16049385px;stroke-linecap:butt;stroke-linejoin:miter;stroke-opacity:1"
       d="m 771.34416,189.66548 c 0,4.5495 5.29748,38.34568 5.62851,40.94538 0.33115,2.5997 73.50291,-44.19499 73.50291,-44.19499 0,0 -16.88578,-37.37079 -19.53453,-37.37079 -2.64873,0 -59.59689,40.6204 -59.59689,40.6204 z"
       id="path3486"
       inkscape:connector-curvature="0" />
    <path
       style="fill:#c89e00;fill-opacity:1;fill-rule:evenodd;stroke:#7b8743;stroke-width:5.16049385px;stroke-linecap:butt;stroke-linejoin:miter;stroke-opacity:1"
       d="m 881.26737,191.61527 42.38009,42.89515 c 0,0 67.54312,-46.7947 64.23219,-48.09455 -3.31093,-1.29985 -45.69101,-34.77108 -49.33297,-32.82129 -3.64208,1.94975 -57.27931,38.02069 -57.27931,38.02069 z"
       id="path3488"
       inkscape:connector-curvature="0" />
    <path
       style="fill:#c89e00;fill-opacity:1;fill-rule:evenodd;stroke:#7b8743;stroke-width:5.16049385px;stroke-linecap:butt;stroke-linejoin:miter;stroke-opacity:1"
       d="m 1027.2799,189.66548 c 0,0 58.9347,46.14479 60.9212,45.81984 1.9867,-0.32515 47.6776,-49.3944 46.0222,-49.3944 -1.6555,0 -55.955,-39.64555 -57.9416,-38.02075 -1.9864,1.62486 -49.0018,41.59531 -49.0018,41.59531 z"
       id="path3490"
       inkscape:connector-curvature="0" />
    <path
       style="fill:#c89e00;fill-opacity:1;fill-rule:evenodd;stroke:#7b8743;stroke-width:5.16049385px;stroke-linecap:butt;stroke-linejoin:miter;stroke-opacity:1"
       d="m 1157.7309,190.96532 c 16.5546,3.24966 69.5299,46.79474 69.5299,46.79474 l 8.6083,-10.3988 3.311,-38.99564 -59.597,-37.04579 z"
       id="path3492"
       inkscape:connector-curvature="0" />
    <path
       style="fill:#7b8743;fill-opacity:1;fill-rule:evenodd;stroke:#c89e00;stroke-width:5.16049385px;stroke-linecap:butt;stroke-linejoin:miter;stroke-opacity:1"
       d="m 850.47558,143.52072 c 4.6353,25.34713 10.59496,29.89658 10.59496,29.89658 l 17.87912,0.64996 38.40698,-27.94684 c 0,0 39.73122,-5.84936 40.39341,-3.24965 0.66218,2.59969 38.40698,30.54653 38.40698,30.54653 l 25.82537,1.94981 27.8119,-34.44609 34.4337,-1.2999 c 0,0 41.0557,35.74599 43.7044,35.74599 2.6488,0 22.5145,-1.29985 22.5145,-1.29985 l 15.2302,-34.44614 -17.2169,-7.79911 c 0,0 -11.9194,-7.14916 -4.6352,-9.7489 7.284,-2.59971 13.2437,-3.24961 13.2437,-3.24961 0,0 81.4491,-8.44907 105.2878,0 23.8388,8.44905 11.9193,-14.94832 11.9193,-14.94832 0,0 -39.0689,-20.147729 -113.234,-20.797676 -74.1651,-0.6499 -105.95,6.499249 -111.2475,6.499249 -5.2975,0 -94.69299,-49.3944 -94.69299,-49.3944 0,0 -18.54131,-20.797676 -18.54131,4.549513 0,25.347118 2.64875,31.19649 -1.32425,38.345638 -3.97323,7.149208 -19.86579,0.649947 -23.83878,0.649947 -3.97323,0 -35.09605,-1.299847 -58.93484,-1.299847 -23.83878,0 -43.04227,0 -66.21875,1.299847 -23.1766,1.29986 -25.16316,-1.299847 -27.14971,3.899554 -1.98668,5.199413 -7.94634,16.898075 7.94622,20.147725 15.89244,3.24966 70.19199,3.24966 81.44913,8.44906 11.25715,5.1994 22.51441,9.09896 1.98656,27.29693 z"
       id="path3494"
       inkscape:connector-curvature="0" />
    <path
       style="fill:#7b8743;fill-opacity:1;fill-rule:evenodd;stroke:#c89e00;stroke-width:5.16049385px;stroke-linecap:butt;stroke-linejoin:miter;stroke-opacity:1"
       d="m 1042.5101,65.529482 c 0,0 50.3263,-54.593777 93.3686,-59.1433019 43.0423,-4.549536 121.8426,0.649936 131.7754,13.6484449 9.9326,12.998508 17.2168,27.296936 -9.9328,23.397382 -27.1496,-3.899601 -50.3262,1.299859 -70.1918,15.598215 -19.8658,14.298368 -18.5414,14.298368 -24.5011,14.298368 -5.9597,0 -98.666,1.949795 -103.9636,5.19946 -5.2974,3.249607 -21.19,7.149161 -16.5547,-12.998568 z"
       id="path3496"
       inkscape:connector-curvature="0" />
    <path
       style="fill:#7b8743;fill-opacity:1;fill-rule:evenodd;stroke:#c89e00;stroke-width:5.16049385px;stroke-linecap:butt;stroke-linejoin:miter;stroke-opacity:1"
       d="m 927.95159,25.234026 c 0,0 -29.13626,-32.4963019 -45.02882,-31.1964779 -15.89244,1.299871 -50.9885,5.849337 -63.57001,-0.649876 -12.58164,-6.4992961 -47.01539,-25.9970771 -70.85418,-22.7475181 -23.83878,3.249654 -21.85223,3.89966 -9.93277,14.948339 11.91933,11.0487501 67.54313,35.096079 80.12476,58.493414 12.58152,23.397382 19.86567,26.646988 35.09593,27.946836 15.23038,1.299847 62.24565,3.899613 67.54325,3.899613 5.29748,0 6.62184,-50.69433 6.62184,-50.69433 z"
       id="path3498"
       inkscape:connector-curvature="0" />
    <path
       style="fill:#7b8743;fill-opacity:1;fill-rule:evenodd;stroke:#c89e00;stroke-width:5.16049385px;stroke-linecap:butt;stroke-linejoin:miter;stroke-opacity:1"
       d="m 967.02064,30.433439 60.25926,40.295456 c 0,0 31.1229,-38.995585 35.7581,-40.295456 4.6353,-1.299824 15.8925,-20.7976169 3.9732,-36.3958909 -11.9194,-15.5982151 -33.7717,-29.2466601 -40.3936,-40.9453571 -6.6218,-11.698685 -15.8924,-17.548033 -15.8924,-17.548033 0,0 -41.05582,46.144817 -44.36675,54.5938601 -3.31092,8.449055 -0.66218,36.3958909 0.66219,40.2954209 z"
       id="path3500"
       inkscape:connector-curvature="0" />
    <path
       style="fill:#7b8743;fill-opacity:1;fill-rule:evenodd;stroke:#c89e00;stroke-width:5.16049385px;stroke-linecap:butt;stroke-linejoin:miter;stroke-opacity:1"
       d="m 1134.5544,-3.3627569 c 1.9864,-4.549466 80.1247,-83.1905881 196.6696,-119.5864731 116.5451,-36.39588 51.6507,-45.49487 51.6507,-45.49487 0,0 -136.4106,17.54803 -168.8577,31.19649 -32.4473,13.64844 -94.6931,44.844935 -103.3015,48.744505 -8.6084,3.89953 -48.3398,26.646969 -50.3262,33.796201 -1.9865,7.149148 -8.6084,21.447552 -8.6084,21.447552 0,0 19.2032,3.899506 21.1899,10.398873 1.9866,6.499213 7.2841,24.0472461 6.622,31.8463541 -0.6623,7.7991079 0,13.6484439 0,13.6484439 0,0 43.0421,-25.3471289 54.9616,-25.9970759 z"
       id="path3502"
       inkscape:connector-curvature="0" />
    <path
       style="fill:#7b8743;fill-opacity:1;fill-rule:evenodd;stroke:#c89e00;stroke-width:5.16049385px;stroke-linecap:butt;stroke-linejoin:miter;stroke-opacity:1"
       d="m 947.81727,23.284267 c 0,0 -30.46063,-36.395891 -51.65068,-38.995586 -21.19005,-2.599706 -21.85223,1.949759 -35.09605,0.649948 -13.2437,-1.299895 -11.25714,0.649864 -23.17648,-5.199402 -11.91945,-5.849419 -15.23038,-9.099073 -31.12294,-20.147752 -15.89245,-11.048737 -23.1766,-14.948327 -51.65068,-25.997076 -28.47409,-11.04875 -68.8675,-31.196474 -93.36846,-35.096059 -24.50098,-3.89952 -28.47409,-3.89952 -35.09593,-3.89952 -6.62198,0 -66.88107,-29.24674 -22.51442,-30.54655 44.36653,-1.29988 129.78888,5.1994 162.23608,16.24815 32.44719,11.04875 62.24564,16.24816 77.47601,26.647025 15.23027,10.3988 33.10939,10.3988 53.63724,27.29683 20.52786,16.898157 47.01538,39.645533 52.31286,42.895246 5.29749,3.249571 9.93279,1.299812 4.6353,16.2481511 -5.29748,14.948327 -7.28403,26.6469529 -6.62185,29.8965949 z"
       id="path3504"
       inkscape:connector-curvature="0" />
    <path
       style="fill:#7b8743;fill-opacity:1;fill-rule:evenodd;stroke:#c89e00;stroke-width:5.16049385px;stroke-linecap:butt;stroke-linejoin:miter;stroke-opacity:1"
       d="m 990.19724,-94.352435 c 42.38006,-28.596795 138.39746,-117.636715 197.99436,-152.082845 59.5969,-34.44617 76.8137,-51.34418 145.6813,-64.99266 68.8676,-13.64847 59.5969,-25.34712 72.8405,-12.99854 13.2439,12.3486 37.0827,14.94828 15.8926,21.44754 -21.1901,6.49936 -52.3129,0.64995 -70.1918,7.79916 -17.8792,7.14922 -6.622,-1.2998 -30.4608,24.04733 -23.8388,25.3471 -49.0018,50.04431 -58.2726,56.54353 -9.2705,6.49929 -24.5007,25.3472 -36.42,38.34572 -11.9195,12.9985 -18.5414,22.74743 -28.4743,29.24665 -9.9327,6.4993 -35.0959,12.99858 -48.3396,22.74745 -13.2438,9.74892 -13.2438,11.04874 -37.7448,23.39737 -24.501,12.348625 -39.0691,10.398885 -49.0018,25.997086 -9.9329,15.598274 -13.2439,33.146237 -19.2035,25.347141 -5.9598,-7.799108 -9.2708,-22.747435 -19.8657,-22.747435 -10.595,0 -25.16315,-1.299895 -25.16315,-1.299895 0,0 -5.95967,-1.299811 -8.6084,-5.199401 -2.64887,-3.899521 -0.66231,-15.598201 -0.66231,-15.598201 z"
       id="path3506"
       inkscape:connector-curvature="0" />
    <path
       style="fill:#7b8743;fill-opacity:1;fill-rule:evenodd;stroke:#c89e00;stroke-width:5.16049385px;stroke-linecap:butt;stroke-linejoin:miter;stroke-opacity:1"
       d="m 955.7635,-34.559247 c 16.55462,-3.899507 26.48764,-5.199389 23.17659,-22.747364 -3.31093,-17.548033 -13.24382,-25.347144 -23.17659,-33.146234 -9.93291,-7.79918 15.89243,7.14915 -33.10939,-38.345725 -49.00193,-45.49488 -73.50291,-42.24524 -104.62573,-58.49339 -31.12282,-16.24814 -80.78694,-45.49487 -100.65262,-51.34422 -19.86567,-5.84934 -49.00194,-18.84789 -60.25908,-27.29689 -11.25727,-8.44902 -24.50097,-18.84796 -40.39354,-15.59831 -15.89244,3.24971 -11.25714,8.44909 1.98656,20.14774 13.24382,11.69873 -3.31093,11.04878 36.42042,42.8952 39.73123,31.84643 45.02871,38.99559 68.20532,54.59381 23.17659,15.59827 11.25726,9.74892 45.691,25.34712 34.43375,15.59828 48.33976,27.29698 83.43569,34.44614 35.09593,7.149155 39.73135,14.948335 56.2861,29.896661 16.55463,14.948339 34.43363,37.045767 36.4203,39.645462 1.98656,2.599706 10.59497,0 10.59497,0 z"
       id="path3508"
       inkscape:connector-curvature="0" />
    <path
       style="fill:#7b8743;fill-opacity:1;fill-rule:evenodd;stroke:#c89e00;stroke-width:5.16049385px;stroke-linecap:butt;stroke-linejoin:miter;stroke-opacity:1"
       d="m 972.31812,-93.702485 c -2.64874,-10.398885 -23.83878,-41.595375 -31.78501,-48.094595 -7.94622,-6.49928 -43.04215,-18.19798 -60.92127,-30.54654 -17.87912,-12.34863 -52.97505,-46.79475 -56.94816,-49.39446 -3.97311,-2.5997 -2.64874,2.59971 -7.94622,-14.2984 -5.2976,-16.89806 -66.88106,-100.08863 -84.76018,-108.53774 -17.879,-8.449 11.91946,-19.4978 37.08261,-8.449 25.16315,11.0487 80.12476,27.94681 98.00388,34.44607 17.879,6.49927 38.40686,29.24669 56.94816,48.7445 18.54118,19.49779 33.77157,25.99706 38.40686,37.69576 4.6353,11.6987 22.51441,45.49488 23.83878,61.09308 1.32437,15.59829 13.24382,32.4963 5.29748,47.44464 -7.94621,14.94834 -17.21693,29.896685 -17.21693,29.896685 z"
       id="path3510"
       inkscape:connector-curvature="0" />
    <path
       style="fill:#7b8743;fill-opacity:1;fill-rule:evenodd;stroke:#c89e00;stroke-width:5.16049385px;stroke-linecap:butt;stroke-linejoin:miter;stroke-opacity:1"
       d="m 1008.0765,-133.34802 c -0.6623,-15.59828 7.9461,-14.2984 -1.9867,-38.34572 -9.93277,-24.04726 -12.58152,-24.04726 -13.90589,-32.4963 -1.32436,-8.44905 -16.55475,-27.94685 60.25909,-72.14188 76.8139,-44.19506 90.0575,-72.14187 116.5451,-85.14042 26.4875,-12.99852 54.9616,-23.39737 65.5566,-25.99705 10.595,-2.59969 44.3665,-13.6484 29.1361,2.59968 -15.2301,16.24817 -31.7847,26.6471 -54.2992,53.29403 -22.5144,26.64701 -14.568,16.24816 -39.7312,46.79465 -25.1633,30.54669 -34.4339,43.54515 -40.3935,54.5939 -5.9597,11.04876 1.3243,15.59821 -23.1767,29.24673 -24.5008,13.64844 -40.3935,19.49779 -51.6507,29.24666 -11.2571,9.74892 -16.5547,14.29839 -23.1765,20.79767 -6.6219,6.49929 -22.5143,20.14774 -22.5143,20.14774 z"
       id="path3512"
       inkscape:connector-curvature="0" />
    <path
       style="fill:#7b8743;fill-opacity:1;fill-rule:evenodd;stroke:#c89e00;stroke-width:5.16049385px;stroke-linecap:butt;stroke-linejoin:miter;stroke-opacity:1"
       d="m 977.61573,-225.63767 c 0,-2.59969 -46.35321,-37.69572 -54.29943,-53.94388 -7.94634,-16.24817 9.93277,-59.79329 9.93277,-74.74157 0,-14.94836 3.97312,-40.94534 4.63543,-55.24376 0.66218,-14.29842 -21.19017,-59.79328 -7.94634,-79.94103 13.2437,-20.14774 19.20348,-36.39582 26.48752,-1.94975 7.28403,34.44617 24.50096,55.24377 31.785,70.19213 7.28416,14.94828 22.51452,33.79614 25.16312,49.39436 2.6488,15.59831 15.2304,23.39738 22.5145,49.39444 7.2841,25.99715 2.6487,40.29548 -4.6353,46.79475 -7.2841,6.49926 -25.8254,27.29695 -33.10954,33.14622 -7.28391,5.84934 -20.52773,16.89809 -20.52773,16.89809 z"
       id="path3514"
       inkscape:connector-curvature="0" />
    <path
       style="fill:#7b8743;fill-opacity:1;fill-rule:evenodd;stroke:#c89e00;stroke-width:5.16049385px;stroke-linecap:butt;stroke-linejoin:miter;stroke-opacity:1"
       d="m 1061.0515,-302.97894 c -1.9867,-18.19789 -21.1901,-29.89654 -20.5279,-37.04575 0.6623,-7.14921 12.5816,-24.69728 22.5144,-38.99561 9.9328,-14.29841 23.1766,-34.44615 33.7716,-38.9956 10.595,-4.54951 17.8792,-5.8494 17.8792,-5.8494 0,0 -1.9867,4.54952 -3.9733,35.74596 -1.9865,31.19653 -3.3109,25.34712 -1.9865,34.44617 1.3244,9.09895 4.6353,9.09895 1.3244,15.59823 -3.3109,6.49926 -17.217,12.99853 -27.8119,21.44763 -10.5952,8.44901 -21.19,13.64837 -21.19,13.64837 z"
       id="path3516"
       inkscape:connector-curvature="0" />
    <path
       style="fill:#7b8743;fill-opacity:1;fill-rule:evenodd;stroke:#c89e00;stroke-width:5.16049385px;stroke-linecap:butt;stroke-linejoin:miter;stroke-opacity:1"
       d="m 914.04559,-301.02919 c 1.98656,-27.9468 2.64874,-25.34712 1.32437,-44.19497 -1.32437,-18.84786 5.2976,-14.29833 -7.28403,-26.64701 -12.58152,-12.34859 13.24382,0 -25.82535,-27.94682 -39.06904,-27.94689 -61.58345,-33.14627 -61.58345,-33.14627 0,0 -3.31093,29.2467 7.94622,42.89518 11.25726,13.64848 26.48753,5.19937 28.47408,29.24669 1.98656,24.04733 -1.32437,28.59676 12.58163,35.74598 13.90589,7.14921 41.71791,24.04722 41.71791,24.04722 z"
       id="path3518"
       inkscape:connector-curvature="0" />
    <path
       inkscape:connector-curvature="0"
       style="fill:#c89e00;fill-opacity:1;fill-rule:evenodd;stroke:#7b8743;stroke-width:5.16049385px;stroke-linecap:butt;stroke-linejoin:miter;stroke-opacity:1"
       d="m 914.39473,668.36867 c 2.80949,1.83823 90.52677,88.34115 90.52677,88.34115 l 100.2432,-85.97778 -89.0595,53.09297 -6.4198,-143.50657 -21.25629,144.22756 z"
       id="path3414-0-4"
       sodipodi:nodetypes="ccccccc" />
    <path
       style="fill:#000000;fill-opacity:1;fill-rule:evenodd;stroke:#c89e00;stroke-width:5.16049385px;stroke-linecap:butt;stroke-linejoin:miter;stroke-opacity:1"
       d="m 1040.8293,421.63945 191.2824,-41.56088 86.1499,47.2934 c 0,0 -1.4601,94.58693 -23.3627,110.35139 -21.9026,15.76444 -115.3534,41.56091 -150.3976,24.36327 -35.044,-17.19765 -96.3712,-94.58684 -103.672,-140.44718 z"
       id="path5077"
       inkscape:connector-curvature="0" />
    <path
       style="fill:#000000;fill-opacity:1;fill-rule:evenodd;stroke:#c89e00;stroke-width:5.16049385px;stroke-linecap:butt;stroke-linejoin:miter;stroke-opacity:1"
       d="m 979.34039,423.83688 -191.28243,-41.56085 -86.15019,47.29346 c 0,0 1.46026,94.58684 23.36281,110.35129 21.90255,15.76446 115.35356,41.56093 150.3976,24.36328 35.04428,-17.19756 96.37141,-94.58684 103.67221,-140.44718 z"
       id="path5077-4"
       inkscape:connector-curvature="0" />
    <path
       style="fill:#c89e00;fill-opacity:1;fill-rule:evenodd;stroke:#7b8743;stroke-width:5.16049385px;stroke-linecap:butt;stroke-linejoin:miter;stroke-opacity:1"
       d="m 1025.1437,817.14206 93.9572,-35.46839 -8.2598,58.77598 -94.9899,-10.13381 z"
       id="path5111"
       inkscape:connector-curvature="0" />
    <path
       style="fill:#c89e00;fill-opacity:1;fill-rule:evenodd;stroke:#7b8743;stroke-width:5.16049385px;stroke-linecap:butt;stroke-linejoin:miter;stroke-opacity:1"
       d="m 1126.3284,781.67367 c 0,4.05352 -7.2275,56.74922 -7.2275,56.74922 l 71.2424,-3.04009 18.5849,-87.15065 z"
       id="path5115"
       inkscape:connector-curvature="0" />
    <path
       style="fill:#c89e00;fill-opacity:1;fill-rule:evenodd;stroke:#7b8743;stroke-width:5.16049385px;stroke-linecap:butt;stroke-linejoin:miter;stroke-opacity:1"
       d="m 1188.7945,842.47641 2.5813,22.80099 -13.4224,15.70749 -35.6212,-38.00176 z"
       id="path5117"
       inkscape:connector-curvature="0" />
    <path
       style="fill:#c89e00;fill-opacity:1;fill-rule:evenodd;stroke:#7b8743;stroke-width:5.16049385px;stroke-linecap:butt;stroke-linejoin:miter;stroke-opacity:1"
       d="m 1218.2208,743.1653 -3.6138,19.7609 25.8123,-23.81442 42.8486,-1.01332 -2.065,-18.24086 z"
       id="path5119"
       inkscape:connector-curvature="0" />
    <path
       style="fill:#c89e00;fill-opacity:1;fill-rule:evenodd;stroke:#7b8743;stroke-width:5.16049385px;stroke-linecap:butt;stroke-linejoin:miter;stroke-opacity:1"
       d="m 1288.4303,716.31079 2.5812,24.82775 22.1989,6.58701 12.906,-2.53348 z"
       id="path5121"
       inkscape:connector-curvature="0" />
    <path
       style="fill:#c89e00;fill-opacity:1;fill-rule:evenodd;stroke:#7b8743;stroke-width:5.16049385px;stroke-linecap:butt;stroke-linejoin:miter;stroke-opacity:1"
       d="m 1301.8528,713.77731 24.7799,21.78767 10.8412,-22.29439 -0.5161,-13.68061 z"
       id="path5123"
       inkscape:connector-curvature="0" />
    <path
       style="fill:#c89e00;fill-opacity:1;fill-rule:evenodd;stroke:#7b8743;stroke-width:5.16049385px;stroke-linecap:butt;stroke-linejoin:miter;stroke-opacity:1"
       d="m 1345.1687,698.27355 0,10.13369 34.0724,-12.16045 1.5487,-11.65386 z"
       id="path5125"
       inkscape:connector-curvature="0" />
    <path
       style="fill:#c89e00;fill-opacity:1;fill-rule:evenodd;stroke:#7b8743;stroke-width:5.16049385px;stroke-linecap:butt;stroke-linejoin:miter;stroke-opacity:1"
       d="m 992.60655,817.11908 -93.95716,-35.46839 8.25988,58.77598 94.98973,-10.13369 z"
       id="path5111-9"
       inkscape:connector-curvature="0" />
    <path
       style="fill:#c89e00;fill-opacity:1;fill-rule:evenodd;stroke:#7b8743;stroke-width:5.16049385px;stroke-linecap:butt;stroke-linejoin:miter;stroke-opacity:1"
       d="m 891.42183,781.65069 c 0,4.05364 7.22756,56.74922 7.22756,56.74922 L 827.40698,835.35982 808.822,748.20929 Z"
       id="path5115-8"
       inkscape:connector-curvature="0" />
    <path
       style="fill:#c89e00;fill-opacity:1;fill-rule:evenodd;stroke:#7b8743;stroke-width:5.16049385px;stroke-linecap:butt;stroke-linejoin:miter;stroke-opacity:1"
       d="m 828.95571,842.45343 -2.58129,22.80099 13.42256,15.70749 35.62115,-38.00176 z"
       id="path5117-5"
       inkscape:connector-curvature="0" />
    <path
       style="fill:#c89e00;fill-opacity:1;fill-rule:evenodd;stroke:#7b8743;stroke-width:5.16049385px;stroke-linecap:butt;stroke-linejoin:miter;stroke-opacity:1"
       d="m 799.52957,743.14232 3.61371,19.76091 -25.81243,-23.81443 -42.84857,-1.01332 2.065,-18.24086 z"
       id="path5119-1"
       inkscape:connector-curvature="0" />
    <path
       style="fill:#c89e00;fill-opacity:1;fill-rule:evenodd;stroke:#7b8743;stroke-width:5.16049385px;stroke-linecap:butt;stroke-linejoin:miter;stroke-opacity:1"
       d="m 729.31972,716.28782 -2.58116,24.82774 -22.19871,6.58701 -12.90628,-2.53336 z"
       id="path5121-6"
       inkscape:connector-curvature="0" />
    <path
       style="fill:#c89e00;fill-opacity:1;fill-rule:evenodd;stroke:#7b8743;stroke-width:5.16049385px;stroke-linecap:butt;stroke-linejoin:miter;stroke-opacity:1"
       d="m 715.89729,713.75433 -24.78,21.78767 -10.84115,-22.29427 0.51616,-13.68073 z"
       id="path5123-2"
       inkscape:connector-curvature="0" />
    <path
       style="fill:#c89e00;fill-opacity:1;fill-rule:evenodd;stroke:#7b8743;stroke-width:5.16049385px;stroke-linecap:butt;stroke-linejoin:miter;stroke-opacity:1"
       d="m 673.02892,694.1197 0,10.13381 -34.07243,-12.16057 -1.54872,-11.65386 z"
       id="path5125-8"
       inkscape:connector-curvature="0" />
    <path
       inkscape:connector-curvature="0"
       style="fill:#7b8743;fill-opacity:1;fill-rule:evenodd;stroke:#000000;stroke-width:2.33779526px;stroke-linecap:butt;stroke-linejoin:miter;stroke-opacity:1"
       d="m 1075.6019,869.21389 -4.6346,29.09993 c 0,0 29.8603,1.28244 31.7633,0.63263 1.9029,-0.64981 3.8267,-37.62202 -1.0665,-45.41992 -4.8932,-7.79778 0.5224,-3.87419 -2.1959,-9.72244 -2.7186,-5.84848 -8.9219,-0.53349 -8.9219,-0.53349 0,0 -9.0616,-1.64891 -10.4209,2.57494 -1.3592,4.22386 -5.0672,21.41894 -4.5235,23.36835 z"
       id="path3500-3"
       sodipodi:nodetypes="ccssscsc" />
    <path
       inkscape:connector-curvature="0"
       style="fill:#7b8743;fill-opacity:1;fill-rule:evenodd;stroke:#000000;stroke-width:2.33779526px;stroke-linecap:butt;stroke-linejoin:miter;stroke-opacity:1"
       d="m 917.78168,869.10137 -4.63445,29.09992 c 0,0 29.86036,1.28244 31.76329,0.63263 1.90279,-0.6498 3.82659,-37.62189 -1.06648,-45.41979 -4.8932,-7.7979 0.52243,-3.8742 -2.19606,-9.72256 -2.71837,-5.84849 -8.92194,-0.53349 -8.92194,-0.53349 0,0 -9.06157,-1.64891 -10.4207,2.57506 -1.35912,4.22373 -5.06734,21.41881 -4.52366,23.36823 z"
       id="path3500-3-8"
       sodipodi:nodetypes="ccssscsc" />
    <path
       inkscape:connector-curvature="0"
       style="fill:#7b8743;fill-opacity:1;fill-rule:evenodd;stroke:#000000;stroke-width:2.33779526px;stroke-linecap:butt;stroke-linejoin:miter;stroke-opacity:1"
       d="m 954.09204,865.04666 -1.86467,33.82931 c 0,0 6.72866,4.69907 13.27497,5.05749 6.48934,0.35535 12.79271,-3.62841 13.73995,-3.95189 1.90291,-0.64993 3.82671,-37.62214 -1.06648,-45.41992 -4.89308,-7.79778 0.52243,-3.87419 -2.19594,-9.72256 -2.71849,-5.84825 -8.92182,-0.53337 -8.92182,-0.53337 0,0 -14.20566,-4.48657 -15.56491,-0.26272 -1.35912,4.22374 2.5989,21.00366 2.5989,21.00366 z"
       id="path3500-3-8-7"
       sodipodi:nodetypes="ccsssscscc" />
    <path
       inkscape:connector-curvature="0"
       style="fill:#7b8743;fill-opacity:1;fill-rule:evenodd;stroke:#000000;stroke-width:2.33779526px;stroke-linecap:butt;stroke-linejoin:miter;stroke-opacity:1"
       d="m 1065.0952,863.58916 1.8647,33.82919 c 0,0 -6.7287,4.69919 -13.275,5.05761 -6.4891,0.35523 -12.7926,-3.62853 -13.7399,-3.95201 -1.9028,-0.64981 -3.8267,-37.62202 1.0665,-45.41992 4.8931,-7.79766 -0.5224,-3.87419 2.1959,-9.72256 2.7186,-5.84825 8.9219,-0.53337 8.9219,-0.53337 0,0 14.2057,-4.48657 15.5649,-0.26272 1.3592,4.22374 -2.599,21.00366 -2.599,21.00366 z"
       id="path3500-3-8-7-3"
       sodipodi:nodetypes="ccsssscscc" />
    <path
       inkscape:connector-curvature="0"
       style="fill:#7b8743;fill-opacity:1;fill-rule:evenodd;stroke:#000000;stroke-width:2.33779526px;stroke-linecap:butt;stroke-linejoin:miter;stroke-opacity:1"
       d="m 984.83025,859.56915 -1.27103,44.47032 c 0,0 5.73942,0.44264 12.28572,0.80107 6.48936,0.35534 9.82496,1.10085 10.77226,0.77737 3.4528,-18.07124 -0.5069,-61.43881 -3.2623,-67.67521 -10.19852,-0.479 -20.07711,-1.63032 -21.12344,0.62256 -1.35912,4.22373 2.59879,21.00366 2.59879,21.00366 z"
       id="path3500-3-8-7-9"
       sodipodi:nodetypes="ccsccccc" />
    <path
       inkscape:connector-curvature="0"
       style="fill:#7b8743;fill-opacity:1;fill-rule:evenodd;stroke:#000000;stroke-width:2.33779526px;stroke-linecap:butt;stroke-linejoin:miter;stroke-opacity:1"
       d="m 1033.9952,859.90946 1.2711,44.47043 c 0,0 -5.7395,0.44276 -12.2856,0.80107 -6.4894,0.35534 -9.8251,1.10085 -10.7724,0.77737 -3.4529,-18.07112 0.507,-61.43893 3.2624,-67.67521 10.1986,-0.47901 20.077,-1.63044 21.1235,0.62244 1.3591,4.22385 -2.599,21.00366 -2.599,21.00366 z"
       id="path3500-3-8-7-9-2"
       sodipodi:nodetypes="ccsccccc" />
    <path
       inkscape:connector-curvature="0"
       style="fill:#7b8743;fill-opacity:1;fill-rule:evenodd;stroke:#000000;stroke-width:2.33779526px;stroke-linecap:butt;stroke-linejoin:miter;stroke-opacity:1"
       d="m 1113.5771,868.78772 -1.271,44.4702 c 0,0 5.7394,0.44276 12.2857,0.8013 6.4892,0.35522 9.8251,1.10073 10.7721,0.77725 3.4531,-18.07124 -0.5066,-61.43893 -3.2623,-67.67521 -10.1983,-0.479 -20.0769,-1.63043 -21.1233,0.62245 -1.3592,4.22385 2.5988,21.00365 2.5988,21.00365 z"
       id="path3500-3-8-7-9-0"
       sodipodi:nodetypes="ccsccccc" />
    <path
       inkscape:connector-curvature="0"
       style="fill:#7b8743;fill-opacity:1;fill-rule:evenodd;stroke:#000000;stroke-width:2.33779526px;stroke-linecap:butt;stroke-linejoin:miter;stroke-opacity:1"
       d="m 905.6374,870.81436 1.27102,44.47044 c 0,0 -5.73942,0.44264 -12.28572,0.80106 -6.48935,0.35535 -9.82501,1.10086 -10.77224,0.77738 -3.45286,-18.07113 0.50686,-61.43893 3.26241,-67.67522 10.1984,-0.479 20.07699,-1.63043 21.12342,0.62245 1.35913,4.22385 -2.59889,21.00365 -2.59889,21.00365 z"
       id="path3500-3-8-7-9-2-2"
       sodipodi:nodetypes="ccsccccc" />
    <path
       inkscape:connector-curvature="0"
       style="fill:#7b8743;fill-opacity:1;fill-rule:evenodd;stroke:#000000;stroke-width:2.33779526px;stroke-linecap:butt;stroke-linejoin:miter;stroke-opacity:1"
       d="m 1145.5846,899.18891 c 2.6448,27.34204 -0.9127,3.84376 25.8025,5.9211 3.4528,-18.07113 -1.0545,-22.20686 -3.8102,-28.44302 -9.2858,-8.89875 -27.5602,-27.42685 -28.6066,-25.17409 -1.3592,4.22385 6.6143,47.69589 6.6143,47.69589 z"
       id="path3500-3-8-7-9-0-4"
       sodipodi:nodetypes="cccccc" />
    <path
       inkscape:connector-curvature="0"
       style="fill:#7b8743;fill-opacity:1;fill-rule:evenodd;stroke:#000000;stroke-width:2.33779526px;stroke-linecap:butt;stroke-linejoin:miter;stroke-opacity:1"
       d="m 873.62369,902.51363 c -2.64475,27.34204 0.91272,3.84375 -25.80228,5.92109 -3.45298,-18.07124 1.05439,-22.20685 3.80995,-28.44301 9.28579,-8.89876 27.56026,-27.42685 28.60671,-25.17397 1.35912,4.22373 -6.61438,47.69565 -6.61438,47.69565 z"
       id="path3500-3-8-7-9-0-4-2"
       sodipodi:nodetypes="cccccc" />
    <path
       style="fill:#c89e00;fill-opacity:1;fill-rule:evenodd;stroke:#7b8743;stroke-width:5.16049385px;stroke-linecap:butt;stroke-linejoin:miter;stroke-opacity:1"
       d="m 962.6185,798.71713 46.3303,17.05638 40.4519,-20.5866 -44.8739,-27.54245 z"
       id="path3424-9"
       inkscape:connector-curvature="0"
       sodipodi:nodetypes="ccccc" />
  </g>
</svg>
