<?xml version="1.0" encoding="UTF-8" standalone="no"?>
<!-- Created with Inkscape (http://www.inkscape.org/) -->

<svg
   xmlns:dc="http://purl.org/dc/elements/1.1/"
   xmlns:cc="http://creativecommons.org/ns#"
   xmlns:rdf="http://www.w3.org/1999/02/22-rdf-syntax-ns#"
   xmlns:svg="http://www.w3.org/2000/svg"
   xmlns="http://www.w3.org/2000/svg"
   xmlns:sodipodi="http://sodipodi.sourceforge.net/DTD/sodipodi-0.dtd"
   xmlns:inkscape="http://www.inkscape.org/namespaces/inkscape"
   id="svg3390"
   version="1.1"
   inkscape:version="0.91 r13725"
   width="236"
   height="329"
   viewBox="0 0 236 329"
   sodipodi:docname="delete.svg">
  <metadata
     id="metadata3396">
    <rdf:RDF>
      <cc:Work
         rdf:about="">
        <dc:format>image/svg+xml</dc:format>
        <dc:type
           rdf:resource="http://purl.org/dc/dcmitype/StillImage" />
        <dc:title />
      </cc:Work>
    </rdf:RDF>
  </metadata>
  <defs
     id="defs3394" />
  <sodipodi:namedview
     pagecolor="#ffffff"
     bordercolor="#666666"
     borderopacity="1"
     objecttolerance="10"
     gridtolerance="10"
     guidetolerance="10"
     inkscape:pageopacity="0"
     inkscape:pageshadow="2"
     inkscape:window-width="1600"
     inkscape:window-height="836"
     id="namedview3392"
     showgrid="false"
     inkscape:zoom="1.6430726"
     inkscape:cx="219.5131"
     inkscape:cy="46.097786"
     inkscape:window-x="0"
     inkscape:window-y="27"
     inkscape:window-maximized="1"
     inkscape:current-layer="svg3390" />
  <path
     style="fill:#c8c8c8;fill-rule:evenodd;stroke:#000000;stroke-width:1px;stroke-linecap:butt;stroke-linejoin:miter;stroke-opacity:1;fill-opacity:1"
     d="m 122.80294,225.01159 15.50927,20.08578 13.72952,-19.06878 -13.72952,-16.78052 z"
     id="path3400" />
  <path
     style="fill:#c8c8c8;fill-rule:evenodd;stroke:#000000;stroke-width:1px;stroke-linecap:butt;stroke-linejoin:miter;stroke-opacity:1;fill-opacity:1"
     d="m 98.9034,209.24807 15.76352,16.52627 -13.98377,18.56028 -16.526272,-18.56028 z"
     id="path3402" />
  <path
     style="fill:#c8c8c8;fill-rule:evenodd;stroke:#000000;stroke-width:1px;stroke-linecap:butt;stroke-linejoin:miter;stroke-opacity:1;fill-opacity:1"
     d="m 56.697836,226.02859 c 0,0 7.881762,19.32303 9.153014,18.05178 1.271252,-1.27125 10.932767,-20.59428 10.932767,-20.59428 l -9.915765,-13.98377 z"
     id="path3404" />
  <path
     style="fill:#c8c8c8;fill-rule:evenodd;stroke:#000000;stroke-width:1px;stroke-linecap:butt;stroke-linejoin:miter;stroke-opacity:1;fill-opacity:1"
     d="m 159.16074,225.26584 11.44127,19.32303 10.67852,-18.56028 -11.44127,-17.28902 z"
     id="path3406" />
  <path
     style="fill:#c8c8c8;fill-rule:evenodd;stroke:#000000;stroke-width:1px;stroke-linecap:butt;stroke-linejoin:miter;stroke-opacity:1;fill-opacity:1"
     d="m 50.069335,216.18669 c 0,0.44945 2.157386,9.70823 2.157386,9.70823 l -4.045099,17.88833 -2.966406,-14.38257 z"
     id="path3408" />
  <path
     style="fill:#c8c8c8;fill-rule:evenodd;stroke:#000000;stroke-width:1px;stroke-linecap:butt;stroke-linejoin:miter;stroke-opacity:1;fill-opacity:1"
     d="m 54.384107,234.61436 9.528455,14.92192 -5.213683,16.00061 -8.449762,-15.28148 z"
     id="path3410" />
  <path
     style="fill:#c8c8c8;fill-rule:evenodd;stroke:#000000;stroke-width:1px;stroke-linecap:butt;stroke-linejoin:miter;stroke-opacity:1;fill-opacity:1"
     d="m 70.204938,250.97454 c 0,0 11.146495,14.56235 11.595951,14.65224 0.449455,0.0899 13.034207,-15.64104 13.034207,-15.64104 0,0 -13.573554,-16.45007 -13.933118,-16.09051 -0.359565,0.35957 -10.69704,17.07931 -10.69704,17.07931 z"
     id="path3412" />
  <path
     style="fill:#c8c8c8;fill-rule:evenodd;stroke:#000000;stroke-width:1px;stroke-linecap:butt;stroke-linejoin:miter;stroke-opacity:1;fill-opacity:1"
     d="m 103.37475,250.43519 c 0.53935,0.35956 15.55116,15.28149 15.55116,15.28149 l 15.82083,-15.1916 -15.64105,-16.62985 z"
     id="path3414" />
  <path
     style="fill:#c8c8c8;fill-rule:evenodd;stroke:#000000;stroke-width:1px;stroke-linecap:butt;stroke-linejoin:miter;stroke-opacity:1;fill-opacity:1"
     d="m 142.29759,250.79475 11.95551,14.29269 12.85443,-14.92192 -10.24758,-16.09051 z"
     id="path3416" />
  <path
     style="fill:#c8c8c8;fill-rule:evenodd;stroke:#000000;stroke-width:1px;stroke-linecap:butt;stroke-linejoin:miter;stroke-opacity:1;fill-opacity:1"
     d="m 173.4898,250.07563 5.0339,15.01181 c 0,0 8.18009,-14.47247 8.18009,-14.83203 0,-0.35957 -4.13499,-17.1692 -4.13499,-17.1692 z"
     id="path3418" />
  <path
     style="fill:#c8c8c8;fill-rule:evenodd;stroke:#000000;stroke-width:1px;stroke-linecap:butt;stroke-linejoin:miter;stroke-opacity:1;fill-opacity:1"
     d="m 50.850077,258.31839 c 0,0 6.991886,11.44127 6.864761,11.94977 -0.127125,0.5085 0.381375,12.96677 0.381375,12.96677 l -6.356259,-9.15301 z"
     id="path3420" />
  <path
     style="fill:#c8c8c8;fill-rule:evenodd;stroke:#000000;stroke-width:1px;stroke-linecap:butt;stroke-linejoin:miter;stroke-opacity:1;fill-opacity:1"
     d="m 62.291345,271.15804 c 0.25425,0.5085 10.424266,12.20402 10.424266,12.20402 l 7.881762,-13.47527 -12.458269,-13.22103 z"
     id="path3422" />
  <path
     style="fill:#c8c8c8;fill-rule:evenodd;stroke:#000000;stroke-width:1px;stroke-linecap:butt;stroke-linejoin:miter;stroke-opacity:1;fill-opacity:1"
     d="m 87.335008,270.52241 14.873652,12.45827 12.71251,-12.71252 -15.255018,-15.00077 z"
     id="path3424" />
  <path
     style="fill:#c8c8c8;fill-rule:evenodd;stroke:#000000;stroke-width:1px;stroke-linecap:butt;stroke-linejoin:miter;stroke-opacity:1;fill-opacity:1"
     d="m 122.29444,270.26816 12.33114,12.58539 15.50927,-13.34814 -12.07689,-13.72952 z"
     id="path3426" />
  <path
     style="fill:#c8c8c8;fill-rule:evenodd;stroke:#000000;stroke-width:1px;stroke-linecap:butt;stroke-linejoin:miter;stroke-opacity:1;fill-opacity:1"
     d="m 156.74536,271.41229 6.10201,11.94977 13.22102,-13.0939 -6.10201,-13.72952 z"
     id="path3428" />
  <path
     style="fill:#c8c8c8;fill-rule:evenodd;stroke:#000000;stroke-width:1px;stroke-linecap:butt;stroke-linejoin:miter;stroke-opacity:1;fill-opacity:1"
     d="m 180.00927,270.64954 c 0,0.5085 -1.017,11.31414 -1.017,11.31414 l 7.62751,-10.04289 0.88988,-14.1109 z"
     id="path3430" />
  <path
     style="fill:#c8c8c8;fill-rule:evenodd;stroke:#000000;stroke-width:1px;stroke-linecap:butt;stroke-linejoin:miter;stroke-opacity:1;fill-opacity:1"
     d="m 164.37287,287.17581 1.01701,9.66152 10.67851,-9.91577 c 0,0 0.88988,-11.05989 -0.63562,-10.04289 -1.52551,1.017 -11.0599,10.29714 -11.0599,10.29714 z"
     id="path3432" />
  <path
     style="fill:#c8c8c8;fill-rule:evenodd;stroke:#000000;stroke-width:1px;stroke-linecap:butt;stroke-linejoin:miter;stroke-opacity:1;fill-opacity:1"
     d="m 137.93083,286.66731 c 0,0.88988 7.37327,9.66152 7.37327,9.66152 l 14.61939,-9.91577 -8.39026,-11.44127 z"
     id="path3434" />
  <path
     style="fill:#c8c8c8;fill-rule:evenodd;stroke:#000000;stroke-width:1px;stroke-linecap:butt;stroke-linejoin:miter;stroke-opacity:1;fill-opacity:1"
     d="m 84.284003,276.11592 14.365147,10.67852 -7.627512,9.53439 -12.966769,-9.66152 z"
     id="path3438" />
  <path
     style="fill:#c8c8c8;fill-rule:evenodd;stroke:#000000;stroke-width:1px;stroke-linecap:butt;stroke-linejoin:miter;stroke-opacity:1;fill-opacity:1"
     d="m 62.67272,276.75155 8.898764,9.78864 -1.144127,10.04289 -9.280139,-9.02589 z"
     id="path3440" />
  <path
     style="fill:#c8c8c8;fill-rule:evenodd;stroke:#000000;stroke-width:1px;stroke-linecap:butt;stroke-linejoin:miter;stroke-opacity:1;fill-opacity:1"
     d="m 77.216443,291.06596 c 0,0 12.674643,8.98911 12.135297,9.16889 -0.539347,0.17978 -2.786624,7.1014 -2.786624,7.1014 l -11.416168,-7.37107 z"
     id="path3442" />
  <path
     style="fill:#c8c8c8;fill-rule:evenodd;stroke:#000000;stroke-width:1px;stroke-linecap:butt;stroke-linejoin:miter;stroke-opacity:1;fill-opacity:1"
     d="m 93.217056,303.20126 c 0,0 12.135294,6.47216 11.595954,6.92161 -0.53935,0.44946 -2.69674,2.0675 -2.69674,2.0675 l -9.43856,-1.97761 -2.157386,-3.14619 z"
     id="path3444" />
  <path
     style="fill:#c8c8c8;fill-rule:evenodd;stroke:#000000;stroke-width:1px;stroke-linecap:butt;stroke-linejoin:miter;stroke-opacity:1;fill-opacity:1"
     d="m 133.39837,309.8532 c 0,0 1.97761,3.50575 2.15739,3.0563 0.17978,-0.44946 12.22519,-4.58445 12.22519,-4.58445 l -2.87652,-5.93281 z"
     id="path3452" />
  <path
     style="fill:#c8c8c8;fill-rule:evenodd;stroke:#000000;stroke-width:1px;stroke-linecap:butt;stroke-linejoin:miter;stroke-opacity:1;fill-opacity:1"
     d="m 149.2192,300.05507 c 0.17979,0.89891 1.88772,6.92161 1.88772,6.92161 l 12.0454,-7.55085 -0.89891,-7.82052 -1.70793,-0.26968 z"
     id="path3454" />
  <path
     style="fill:#c8c8c8;fill-rule:evenodd;stroke:#000000;stroke-width:1px;stroke-linecap:butt;stroke-linejoin:miter;stroke-opacity:1;fill-opacity:1"
     d="m 184.09694,227.24329 4.0451,15.73094 c 0,0 4.49456,-15.28148 3.95521,-15.73094 -0.53935,-0.44946 -4.67434,-10.78693 -4.67434,-10.78693 z"
     id="path3456" />
  <path
     style="fill:#c8c8c8;fill-rule:evenodd;stroke:#000000;stroke-width:1px;stroke-linecap:butt;stroke-linejoin:miter;stroke-opacity:1;fill-opacity:1"
     d="m 172.05154,201.9839 c 0,0.35956 9.34867,17.16919 9.34867,17.16919 0,0 5.48336,-18.158 5.0339,-18.33778 -0.44945,-0.17978 -9.16889,-10.87682 -9.16889,-10.87682 z"
     id="path3458" />
  <path
     style="fill:#c8c8c8;fill-rule:evenodd;stroke:#000000;stroke-width:1px;stroke-linecap:butt;stroke-linejoin:miter;stroke-opacity:1;fill-opacity:1"
     d="m 141.12901,203.06259 c 0.62923,0.35956 14.92192,17.61865 14.92192,17.61865 0,0 12.0454,-18.33778 11.68584,-18.33778 -0.35957,0 -14.20279,-12.76453 -14.20279,-12.76453 z"
     id="path3460" />
  <path
     style="fill:#c8c8c8;fill-rule:evenodd;stroke:#000000;stroke-width:1px;stroke-linecap:butt;stroke-linejoin:miter;stroke-opacity:1;fill-opacity:1"
     d="m 102.38595,203.42215 c 0,0 15.64105,16.98942 16.00061,17.07931 0.35956,0.0899 16.89952,-16.89953 16.45007,-17.07931 -0.44946,-0.17978 -15.55116,-14.20279 -15.55116,-14.20279 z"
     id="path3462" />
  <path
     style="fill:#c8c8c8;fill-rule:evenodd;stroke:#000000;stroke-width:1px;stroke-linecap:butt;stroke-linejoin:miter;stroke-opacity:1;fill-opacity:1"
     d="m 69.845374,203.51204 10.517257,16.36018 16.090505,-17.43887 c 0,0 -11.326277,-13.57355 -12.225188,-13.30388 -0.898911,0.26967 -14.382574,14.38257 -14.382574,14.38257 z"
     id="path3464" />
  <path
     style="fill:#c8c8c8;fill-rule:evenodd;stroke:#000000;stroke-width:1px;stroke-linecap:butt;stroke-linejoin:miter;stroke-opacity:1;fill-opacity:1"
     d="m 58.968553,190.02838 5.393465,13.1241 -10.337475,17.34898 -3.415861,-17.61865 z"
     id="path3466" />
  <path
     style="fill:#c8c8c8;fill-rule:evenodd;stroke:#000000;stroke-width:1px;stroke-linecap:butt;stroke-linejoin:miter;stroke-opacity:1;fill-opacity:1"
     d="m 62.114741,185.17426 5.663138,13.1241 13.21399,-13.84323 -7.281178,-11.23638 z"
     id="path3468" />
  <path
     style="fill:#c8c8c8;fill-rule:evenodd;stroke:#000000;stroke-width:1px;stroke-linecap:butt;stroke-linejoin:miter;stroke-opacity:1;fill-opacity:1"
     d="M 85.935878,184.99448 98.610522,198.56803 115.59994,183.736 101.75671,172.94907 Z"
     id="path3470" />
  <path
     style="fill:#c8c8c8;fill-rule:evenodd;stroke:#000000;stroke-width:1px;stroke-linecap:butt;stroke-linejoin:miter;stroke-opacity:1;fill-opacity:1"
     d="m 121.9822,184.09557 15.10171,14.29268 13.84322,-14.65225 -15.46126,-10.69703 z"
     id="path3472" />
  <path
     style="fill:#c8c8c8;fill-rule:evenodd;stroke:#000000;stroke-width:1px;stroke-linecap:butt;stroke-linejoin:miter;stroke-opacity:1;fill-opacity:1"
     d="m 157.03973,184.54502 11.14649,13.66345 6.74183,-13.57355 c 0,0 -10.33747,-12.40497 -10.87682,-11.77574 -0.53934,0.62924 -7.0115,11.68584 -7.0115,11.68584 z"
     id="path3474" />
  <path
     style="fill:#c8c8c8;fill-rule:evenodd;stroke:#000000;stroke-width:1px;stroke-linecap:butt;stroke-linejoin:miter;stroke-opacity:1;fill-opacity:1"
     d="m 165.48949,170.25234 c 0,0 8.18009,10.96671 9.25878,10.51726 1.07869,-0.44946 2.33717,-9.52846 2.33717,-9.52846 l -10.0678,-10.0678 z"
     id="path3476" />
  <path
     style="fill:#c8c8c8;fill-rule:evenodd;stroke:#000000;stroke-width:1px;stroke-linecap:butt;stroke-linejoin:miter;stroke-opacity:1;fill-opacity:1"
     d="m 137.89293,169.53321 c 0,0 13.84322,11.50606 14.20279,11.50606 0.35956,0 8.44976,-12.40497 8.0902,-12.40497 -0.35957,0 -13.66345,-8.53965 -13.66345,-8.53965 z"
     id="path3478" />
  <path
     style="fill:#c8c8c8;fill-rule:evenodd;stroke:#000000;stroke-width:1px;stroke-linecap:butt;stroke-linejoin:miter;stroke-opacity:1;fill-opacity:1"
     d="m 105.32322,169.90282 c 0.38138,0.25425 12.01333,11.31414 12.5854,11.31414 0.57206,0 15.31858,-12.64895 15.31858,-12.64895 l -14.61939,-8.70808 z"
     id="path3480" />
  <path
     style="fill:#c8c8c8;fill-rule:evenodd;stroke:#000000;stroke-width:1px;stroke-linecap:butt;stroke-linejoin:miter;stroke-opacity:1;fill-opacity:1"
     d="m 77.10143,169.58501 c 0,0 6.419822,12.3947 6.801198,11.8862 0.381375,-0.5085 15.064335,-11.25058 14.93721,-11.69551 -0.127125,-0.44494 -9.407264,-10.17002 -9.407264,-10.17002 z"
     id="path3482" />
  <path
     style="fill:#c8c8c8;fill-rule:evenodd;stroke:#000000;stroke-width:1px;stroke-linecap:butt;stroke-linejoin:miter;stroke-opacity:1;fill-opacity:1"
     d="m 60.70228,171.61901 c 0,0.44494 0.444938,8.89876 0.444938,8.89876 0,0 11.886206,-10.99633 11.886206,-11.44126 0,-0.44494 -2.796755,-9.97933 -2.796755,-9.72508 0,0.25425 -9.534389,12.26758 -9.534389,12.26758 z"
     id="path3484" />
  <path
     style="fill:#c8c8c8;fill-rule:evenodd;stroke:#000000;stroke-width:1px;stroke-linecap:butt;stroke-linejoin:miter;stroke-opacity:1;fill-opacity:1"
     d="m 73.287674,157.76236 c 0,0.88988 1.017002,7.50039 1.080564,8.00889 0.06356,0.5085 14.110897,-8.64451 14.110897,-8.64451 0,0 -3.241693,-7.3097 -3.750194,-7.3097 -0.5085,0 -11.441267,7.94532 -11.441267,7.94532 z"
     id="path3486" />
  <path
     style="fill:#c8c8c8;fill-rule:evenodd;stroke:#000000;stroke-width:1px;stroke-linecap:butt;stroke-linejoin:miter;stroke-opacity:1;fill-opacity:1"
     d="m 94.390456,158.14374 8.136014,8.39026 c 0,0 12.96677,-9.15301 12.33114,-9.40726 -0.63562,-0.25425 -8.77164,-6.8012 -9.47082,-6.41982 -0.69919,0.38137 -10.996334,7.43682 -10.996334,7.43682 z"
     id="path3488" />
  <path
     style="fill:#c8c8c8;fill-rule:evenodd;stroke:#000000;stroke-width:1px;stroke-linecap:butt;stroke-linejoin:miter;stroke-opacity:1;fill-opacity:1"
     d="m 122.42156,157.76236 c 0,0 11.31414,9.02589 11.69552,8.96233 0.38137,-0.0636 9.15301,-9.66151 8.8352,-9.66151 -0.31781,0 -10.74208,-7.75464 -11.12345,-7.43683 -0.38138,0.31782 -9.40727,8.13601 -9.40727,8.13601 z"
     id="path3490" />
  <path
     style="fill:#c8c8c8;fill-rule:evenodd;stroke:#000000;stroke-width:1px;stroke-linecap:butt;stroke-linejoin:miter;stroke-opacity:1;fill-opacity:1"
     d="m 147.46522,158.01661 c 3.17813,0.63563 13.34815,9.15302 13.34815,9.15302 l 1.65263,-2.034 0.63562,-7.62752 -11.44126,-7.24613 z"
     id="path3492" />
  <path
     style="fill:#c8c8c8;fill-rule:evenodd;stroke:#000000;stroke-width:1px;stroke-linecap:butt;stroke-linejoin:miter;stroke-opacity:1;fill-opacity:1"
     d="m 88.479135,148.73648 c 0.889876,4.95788 2.034003,5.84775 2.034003,5.84775 l 3.43238,0.12713 7.373262,-5.46638 c 0,0 7.62751,-1.14413 7.75464,-0.63563 0.12712,0.5085 7.37326,5.97488 7.37326,5.97488 l 4.95788,0.38138 5.33926,-6.73763 6.61051,-0.25426 c 0,0 7.88176,6.99189 8.39026,6.99189 0.5085,0 4.32226,-0.25425 4.32226,-0.25425 l 2.92388,-6.73764 -3.30526,-1.5255 c 0,0 -2.28825,-1.39837 -0.88987,-1.90688 1.39837,-0.5085 2.5425,-0.63562 2.5425,-0.63562 0,0 15.6364,-1.65263 20.2129,0 4.57651,1.65263 2.28826,-2.92388 2.28826,-2.92388 0,0 -7.50039,-3.94088 -21.73841,-4.06801 -14.23802,-0.12712 -20.34003,1.27125 -21.35703,1.27125 -1.017,0 -18.1789,-9.66151 -18.1789,-9.66151 0,0 -3.55951,-4.06801 -3.55951,0.88988 0,4.95788 0.5085,6.10201 -0.25425,7.50038 -0.76275,1.39838 -3.81376,0.12713 -4.57651,0.12713 -0.762749,0 -6.737633,-0.25425 -11.31414,-0.25425 -4.576507,0 -8.263137,0 -12.712519,0.25425 -4.449382,0.25425 -4.830758,-0.25425 -5.212133,0.76275 -0.381376,1.017 -1.525502,3.30525 1.525502,3.94088 3.051005,0.63563 13.475271,0.63563 15.636399,1.65263 2.161128,1.017 4.322257,1.77975 0.381376,5.33926 z"
     id="path3494" />
  <path
     style="fill:#c8c8c8;fill-rule:evenodd;stroke:#000000;stroke-width:1px;stroke-linecap:butt;stroke-linejoin:miter;stroke-opacity:1;fill-opacity:1"
     d="m 125.34544,133.48145 c 0,0 9.66152,-10.67851 17.92465,-11.56839 8.26314,-0.88988 23.39104,0.12713 25.29792,2.66963 1.90687,2.5425 3.30525,5.33926 -1.90688,4.57651 -5.21213,-0.76276 -9.66152,0.25425 -13.47527,3.051 -3.81376,2.79675 -3.55951,2.79675 -4.70363,2.79675 -1.14413,0 -18.94166,0.38138 -19.95866,1.01701 -1.017,0.63562 -4.06801,1.39837 -3.17813,-2.54251 z"
     id="path3496" />
  <path
     style="fill:#c8c8c8;fill-rule:evenodd;stroke:#000000;stroke-width:1px;stroke-linecap:butt;stroke-linejoin:miter;stroke-opacity:1;fill-opacity:1"
     d="m 103.35278,125.59969 c 0,0 -5.593506,-6.35626 -8.644511,-6.10201 -3.051005,0.25425 -9.78864,1.14413 -12.204019,-0.12712 -2.415378,-1.27126 -9.025888,-5.08501 -13.602395,-4.44939 -4.576507,0.63563 -4.195132,0.76276 -1.906878,2.92388 2.288253,2.16113 12.96677,6.86476 15.382148,11.44127 2.415379,4.57651 3.813756,5.21213 6.737636,5.46638 2.923879,0.25425 11.949769,0.76276 12.966769,0.76276 1.017,0 1.27125,-9.91577 1.27125,-9.91577 z"
     id="path3498" />
  <path
     style="fill:#c8c8c8;fill-rule:evenodd;stroke:#000000;stroke-width:1px;stroke-linecap:butt;stroke-linejoin:miter;stroke-opacity:1;fill-opacity:1"
     d="m 110.85317,126.61669 11.56839,7.88176 c 0,0 5.97489,-7.62751 6.86476,-7.88176 0.88988,-0.25425 3.05101,-4.068 0.76275,-7.11901 -2.28825,-3.051 -6.48338,-5.72063 -7.75463,-8.00889 -1.27126,-2.28825 -3.05101,-3.43238 -3.05101,-3.43238 0,0 -7.88176,9.02589 -8.51739,10.67852 -0.63562,1.65263 -0.12712,7.11901 0.12713,7.88176 z"
     id="path3500" />
  <path
     style="fill:#c8c8c8;fill-rule:evenodd;stroke:#000000;stroke-width:1px;stroke-linecap:butt;stroke-linejoin:miter;stroke-opacity:1;fill-opacity:1"
     d="m 143.01584,120.00618 c 0.38138,-0.88987 15.38215,-16.27202 37.75618,-23.391033 22.37404,-7.119011 9.91577,-8.898764 9.91577,-8.898764 0,0 -26.18779,3.43238 -32.41692,6.102009 -6.22914,2.669629 -18.17891,8.771638 -19.83153,9.534388 -1.65263,0.76275 -9.28014,5.21213 -9.66152,6.61051 -0.38137,1.39838 -1.65263,4.19513 -1.65263,4.19513 0,0 3.68663,0.76275 4.06801,2.03401 0.38138,1.27125 1.39838,4.70363 1.27125,6.22913 -0.12712,1.5255 0,2.66963 0,2.66963 0,0 8.26314,-4.95788 10.55139,-5.08501 z"
     id="path3502" />
  <rect
     style="fill:#ff0000;fill-opacity:1;stroke:#000000;stroke-width:1;stroke-miterlimit:4;stroke-dasharray:none;stroke-opacity:1"
     id="rect4199"
     width="159.66222"
     height="26.682095"
     x="-144.13412"
     y="208.82617"
     transform="matrix(0.68761497,-0.72607552,0.72607552,0.68761497,0,0)" />
  <path
     style="fill:#c8c8c8;fill-rule:evenodd;stroke:#000000;stroke-width:1px;stroke-linecap:butt;stroke-linejoin:miter;stroke-opacity:1;fill-opacity:1"
     d="m 107.16654,125.21832 c 0,0 -5.84776,-7.11902 -9.915767,-7.62752 -4.068006,-0.5085 -4.195131,0.38138 -6.737635,0.12713 -2.542504,-0.25425 -2.161129,0.12712 -4.449382,-1.017 -2.288254,-1.14413 -2.92388,-1.77976 -5.974884,-3.94088 -3.051005,-2.16113 -4.449382,-2.92388 -9.915765,-5.08501 -5.466384,-2.16113 -13.22102,-6.10201 -17.924653,-6.86476 -4.703632,-0.76275 -5.466383,-0.76275 -6.737635,-0.76275 -1.271252,0 -12.839644,-5.720637 -4.322256,-5.974887 8.517388,-0.254251 24.916538,1.017001 31.145672,3.17813 6.229134,2.161128 11.949768,3.178127 14.873648,5.212137 2.923879,2.034 6.356259,2.034 10.29714,5.33925 3.940877,3.30526 9.025887,7.75464 10.042887,8.39027 1.01701,0.63562 1.90688,0.25425 0.88988,3.17813 -1.017,2.92388 -1.39838,5.21213 -1.27125,5.84776 z"
     id="path3504" />
  <path
     style="fill:#c8c8c8;fill-rule:evenodd;stroke:#000000;stroke-width:1px;stroke-linecap:butt;stroke-linejoin:miter;stroke-opacity:1;fill-opacity:1"
     d="m 115.30255,102.20866 c 8.13601,-5.593513 26.56917,-23.009665 38.01043,-29.7473 11.44127,-6.737635 14.74653,-10.04289 27.96755,-12.712519 13.22102,-2.66963 11.44126,-4.957883 13.98377,-2.542504 2.5425,2.415378 7.11901,2.923879 3.051,4.195131 -4.068,1.271252 -10.04289,0.127125 -13.47527,1.525502 -3.43238,1.398377 -1.27125,-0.25425 -5.84776,4.703633 -4.5765,4.957882 -9.40726,9.788639 -11.18701,11.059891 -1.77976,1.271252 -4.70364,4.957883 -6.99189,7.500387 -2.28825,2.542504 -3.55951,4.449381 -5.46638,5.720633 -1.90688,1.271252 -6.73764,2.542504 -9.28014,4.449382 -2.54251,1.906878 -2.54251,2.161128 -7.24614,4.576504 -4.70363,2.41538 -7.50039,2.03401 -9.40726,5.08501 -1.90688,3.05101 -2.54251,6.48339 -3.68663,4.95788 -1.14413,-1.5255 -1.77976,-4.44938 -3.81376,-4.44938 -2.034,0 -4.83076,-0.25425 -4.83076,-0.25425 0,0 -1.14412,-0.25425 -1.65262,-1.017 -0.50851,-0.76275 -0.12713,-3.051 -0.12713,-3.051 z"
     id="path3506" />
  <path
     style="fill:#c8c8c8;fill-rule:evenodd;stroke:#000000;stroke-width:1px;stroke-linecap:butt;stroke-linejoin:miter;stroke-opacity:1;fill-opacity:1"
     d="m 108.69204,113.90417 c 3.17813,-0.76275 5.08501,-1.017 4.44938,-4.44938 -0.63562,-3.43238 -2.5425,-4.95788 -4.44938,-6.48338 -1.90688,-1.52551 3.051,1.39837 -6.35626,-7.50039 C 92.928516,86.572256 88.224884,87.207882 82.25,84.029752 76.275116,80.851623 66.740727,75.130989 62.926971,73.986862 59.113215,72.842735 53.519706,70.300232 51.358578,68.647604 49.19745,66.994977 46.654946,64.960973 43.603941,65.596599 c -3.051004,0.635626 -2.161128,1.652628 0.381376,3.940881 2.542504,2.288254 -0.635626,2.161129 6.991886,8.390263 7.627511,6.229135 8.644513,7.627512 13.093894,10.678516 4.449382,3.051005 2.161129,1.906878 8.771639,4.957883 6.61051,3.051005 9.280139,5.339258 16.017774,6.737638 6.737635,1.39837 7.627512,2.92388 10.805642,5.84776 3.178128,2.92388 6.610508,7.24613 6.991888,7.75463 0.38137,0.5085 2.034,0 2.034,0 z"
     id="path3508" />
  <path
     style="fill:#c8c8c8;fill-rule:evenodd;stroke:#000000;stroke-width:1px;stroke-linecap:butt;stroke-linejoin:miter;stroke-opacity:1;fill-opacity:1"
     d="m 111.87017,102.33578 c -0.5085,-2.034 -4.57651,-8.136012 -6.10201,-9.407264 -1.5255,-1.271252 -8.263137,-3.559505 -11.695517,-5.974884 -3.43238,-2.415379 -10.170015,-9.153014 -10.932767,-9.661515 -0.762751,-0.508501 -0.5085,0.508501 -1.525502,-2.796754 -1.017001,-3.305255 -12.839644,-19.57728 -16.272025,-21.229907 -3.43238,-1.652628 2.288254,-3.813756 7.119011,-1.652628 4.830758,2.161128 15.382149,5.466383 18.814529,6.737635 3.43238,1.271252 7.373261,5.720634 10.932771,9.53439 3.5595,3.813756 6.48338,5.085008 7.37326,7.373261 0.88987,2.288254 4.32225,8.898764 4.5765,11.949768 0.25425,3.051005 2.54251,6.35626 1.01701,9.280139 -1.52551,2.92388 -3.30526,5.847759 -3.30526,5.847759 z"
     id="path3510" />
  <path
     style="fill:#c8c8c8;fill-rule:evenodd;stroke:#000000;stroke-width:1px;stroke-linecap:butt;stroke-linejoin:miter;stroke-opacity:1;fill-opacity:1"
     d="m 118.73493,94.581143 c -0.12712,-3.051004 1.5255,-2.796754 -0.38138,-7.500386 -1.90687,-4.703632 -2.41537,-4.703632 -2.66962,-6.35626 -0.25425,-1.652627 -3.17813,-5.466383 11.56839,-14.110896 14.74652,-8.644513 17.28902,-14.110897 22.37403,-16.6534 5.08501,-2.542504 10.55139,-4.576507 12.5854,-5.085008 2.034,-0.508501 8.51738,-2.669629 5.59351,0.508501 -2.92388,3.17813 -6.10201,5.212133 -10.42427,10.424266 -4.32226,5.212132 -2.79675,3.178129 -7.62751,9.153013 -4.83076,5.974885 -6.61051,8.517388 -7.75464,10.678517 -1.14413,2.161128 0.25425,3.051004 -4.44938,5.720633 -4.70363,2.669629 -7.75464,3.813756 -9.91577,5.720634 -2.16112,1.906878 -3.17813,2.796754 -4.44938,4.068006 -1.27125,1.271252 -4.32225,3.940881 -4.32225,3.940881 z"
     id="path3512" />
  <path
     style="fill:#c8c8c8;fill-rule:evenodd;stroke:#000000;stroke-width:1px;stroke-linecap:butt;stroke-linejoin:miter;stroke-opacity:1;fill-opacity:1"
     d="m 112.88717,76.529366 c 0,-0.508501 -8.89876,-7.373261 -10.42426,-10.551391 -1.52551,-3.17813 1.90687,-11.695518 1.90687,-14.619397 0,-2.92388 0.76275,-8.008887 0.88988,-10.805642 0.12713,-2.796754 -4.06801,-11.695517 -1.5255,-15.636398 2.5425,-3.940881 3.68663,-7.119011 5.08501,-0.381376 1.39837,6.737635 4.70363,10.805641 6.102,13.729521 1.39838,2.923879 4.32226,6.61051 4.83076,9.661515 0.5085,3.051004 2.92388,4.576506 4.32226,9.661514 1.39838,5.085008 0.5085,7.881762 -0.88988,9.153014 -1.39837,1.271252 -4.95788,5.339258 -6.35626,6.483385 -1.39837,1.144127 -3.94088,3.305255 -3.94088,3.305255 z"
     id="path3514" />
  <path
     style="fill:#c8c8c8;fill-rule:evenodd;stroke:#000000;stroke-width:1px;stroke-linecap:butt;stroke-linejoin:miter;stroke-opacity:1;fill-opacity:1"
     d="m 128.90495,61.401468 c -0.38138,-3.559505 -4.06801,-5.847759 -3.94088,-7.246136 0.12712,-1.398377 2.41537,-4.830757 4.32225,-7.627512 1.90688,-2.796754 4.44938,-6.737635 6.48339,-7.627511 2.034,-0.889877 3.43238,-1.144127 3.43238,-1.144127 0,0 -0.38138,0.889876 -0.76275,6.991886 -0.38138,6.102009 -0.63563,4.957882 -0.38138,6.737635 0.25425,1.779753 0.88988,1.779753 0.25425,3.051005 -0.63563,1.271252 -3.30525,2.542503 -5.33926,4.195131 -2.034,1.652627 -4.068,2.669629 -4.068,2.669629 z"
     id="path3516" />
  <path
     style="fill:#c8c8c8;fill-rule:evenodd;stroke:#000000;stroke-width:1px;stroke-linecap:butt;stroke-linejoin:miter;stroke-opacity:1;fill-opacity:1"
     d="m 100.68315,61.782844 c 0.38138,-5.466384 0.5085,-4.957883 0.25425,-8.644514 -0.25425,-3.68663 1.01701,-2.796754 -1.398374,-5.212132 -2.415378,-2.415379 2.542504,0 -4.957882,-5.466384 -7.500387,-5.466383 -11.822643,-6.483385 -11.822643,-6.483385 0,0 -0.635626,5.720634 1.525502,8.390263 2.161128,2.669629 5.085008,1.017002 5.466383,5.720634 0.381376,4.703632 -0.25425,5.593508 2.415379,6.991885 2.669629,1.398378 8.008885,4.703633 8.008885,4.703633 z"
     id="path3518" />
  <rect
     style="fill:#ff0000;fill-opacity:1;stroke:#000000;stroke-width:1;stroke-miterlimit:4;stroke-dasharray:none;stroke-opacity:1"
     id="rect4199-2"
     width="159.66222"
     height="26.682095"
     x="145.86736"
     y="52.619987"
     inkscape:transform-center-x="17.892596"
     inkscape:transform-center-y="-14.277607"
     transform="matrix(0.72607552,0.68761497,-0.68761497,0.72607552,0,0)" />
  <circle
     style="fill:none;fill-opacity:1;stroke:#ff0000;stroke-width:15.34300041;stroke-miterlimit:4;stroke-dasharray:none;stroke-opacity:1"
     id="path4654"
     cx="120.63384"
     cy="202.38918"
     r="82.52002" />
  <rect
     style="fill:#ff0000;fill-opacity:1;stroke:none;stroke-width:0.42256132;stroke-miterlimit:4;stroke-dasharray:none;stroke-opacity:1"
     id="rect4199-3"
     width="28.638615"
     height="25.661917"
     x="-80.212845"
     y="209.27322"
     transform="matrix(0.68761497,-0.72607552,0.72607552,0.68761497,0,0)" />
</svg>
