<?xml version="1.0" encoding="UTF-8" standalone="no"?>
<!-- Created with Inkscape (http://www.inkscape.org/) -->

<svg
   xmlns:dc="http://purl.org/dc/elements/1.1/"
   xmlns:cc="http://creativecommons.org/ns#"
   xmlns:rdf="http://www.w3.org/1999/02/22-rdf-syntax-ns#"
   xmlns:svg="http://www.w3.org/2000/svg"
   xmlns="http://www.w3.org/2000/svg"
   xmlns:sodipodi="http://sodipodi.sourceforge.net/DTD/sodipodi-0.dtd"
   xmlns:inkscape="http://www.inkscape.org/namespaces/inkscape"
   width="1920"
   height="1080"
   id="svg6509"
   version="1.1"
   inkscape:version="0.91 r13725"
   viewBox="0 0 1920 1080"
   sodipodi:docname="fondananascontact.svg">
  <defs
     id="defs6511" />
  <sodipodi:namedview
     id="base"
     pagecolor="#ffffff"
     bordercolor="#666666"
     borderopacity="1.0"
     inkscape:pageopacity="0.0"
     inkscape:pageshadow="2"
     inkscape:zoom="0.36001285"
     inkscape:cx="736.71512"
     inkscape:cy="710.7183"
     inkscape:document-units="px"
     inkscape:current-layer="layer1"
     showgrid="false"
     inkscape:window-width="1600"
     inkscape:window-height="836"
     inkscape:window-x="0"
     inkscape:window-y="27"
     inkscape:window-maximized="1" />
  <metadata
     id="metadata6514">
    <rdf:RDF>
      <cc:Work
         rdf:about="">
        <dc:format>image/svg+xml</dc:format>
        <dc:type
           rdf:resource="http://purl.org/dc/dcmitype/StillImage" />
        <dc:title />
      </cc:Work>
    </rdf:RDF>
  </metadata>
  <g
     id="layer1"
     inkscape:label="Layer 1"
     inkscape:groupmode="layer">
    <rect
       style="fill:#ffff00;fill-opacity:0.79005528;stroke:none;stroke-width:12.80000019;stroke-miterlimit:4;stroke-dasharray:none;stroke-opacity:1"
       id="rect6470"
       width="1951.5713"
       height="1454.7605"
       x="166.72633"
       y="-685.8656"
       transform="scale(-1,-1)" />
    <ellipse
       style="fill:#ff5500;fill-opacity:0.4198895;stroke:none;stroke-width:12.80000019;stroke-miterlimit:4;stroke-dasharray:none;stroke-opacity:1"
       id="path6468"
       cx="-1133.2483"
       cy="585.85059"
       rx="330.40845"
       ry="324.29037" />
    <path
       style="fill:#ff5500;fill-opacity:0.4198895;fill-rule:evenodd;stroke:none;stroke-width:1px;stroke-linecap:butt;stroke-linejoin:miter;stroke-opacity:1"
       d="m -1459.9872,636.4728 -769.4758,55.4543 -6.1759,-406.12074 791.593,187.36459 c 17.3706,-46.74408 29.8102,-55.23991 46.6344,-79.98127 l -881.4584,-465.011921 30.8793,-545.535199 914.6204,947.38966 c 14.5722,-13.20445 27.2341,-28.59202 53.2449,-28.72369 l -739.3586,-1197.49506 487.8928,12.12301 333.4964,1151.83512 113.9451,0.6707 126.91339,-1152.50582 611.4099,0 -648.465,1242.60791 907.851195,-1036.51684 0,575.84269 -783.080795,488.63037 c 14.6951,27.46389 35.6633,57.43701 42.7963,81.87607 L -67.912615,122.14582 -117.31941,691.9271 -1185.743,752.5421 Z"
       id="path6472"
       inkscape:connector-curvature="0"
       sodipodi:nodetypes="cccccccccccccccccccccccc" />
    <path
       style="fill:#c89e00;fill-opacity:1;fill-rule:evenodd;stroke:#7b8743;stroke-width:5.16049385px;stroke-linecap:butt;stroke-linejoin:miter;stroke-opacity:1"
       d="m 1018.4106,442.2028 80.787,102.68836 71.5163,-97.48899 -71.5163,-85.79039 z"
       id="path3400"
       inkscape:connector-curvature="0" />
    <path
       style="fill:#c89e00;fill-opacity:1;fill-rule:evenodd;stroke:#7b8743;stroke-width:5.16049385px;stroke-linecap:butt;stroke-linejoin:miter;stroke-opacity:1"
       d="m 894.95183,358.57172 82.11132,84.49039 -72.84073,94.88931 -86.08443,-94.88931 z"
       id="path3402"
       inkscape:connector-curvature="0" />
    <path
       style="fill:#c89e00;fill-opacity:1;fill-rule:evenodd;stroke:#7b8743;stroke-width:5.16049385px;stroke-linecap:butt;stroke-linejoin:miter;stroke-opacity:1"
       d="m 674.07284,466.6564 c 0,0 41.0556,98.7888 47.67757,92.28953 6.62185,-6.49926 56.94817,-105.28806 56.94817,-105.28806 l -51.65069,-71.49196 z"
       id="path3404"
       inkscape:connector-curvature="0" />
    <path
       style="fill:#c89e00;fill-opacity:1;fill-rule:evenodd;stroke:#7b8743;stroke-width:5.16049385px;stroke-linecap:butt;stroke-linejoin:miter;stroke-opacity:1"
       d="m 1207.7965,462.75682 59.5966,98.78889 55.624,-94.88931 -59.5971,-88.39007 z"
       id="path3406"
       inkscape:connector-curvature="0" />
    <path
       style="fill:#c89e00;fill-opacity:1;fill-rule:evenodd;stroke:#7b8743;stroke-width:5.16049385px;stroke-linecap:butt;stroke-linejoin:miter;stroke-opacity:1"
       d="m 639.54533,416.33972 c 0,2.29782 11.23771,49.63328 11.23771,49.63328 l -21.07069,91.45398 -15.45182,-73.53085 z"
       id="path3408"
       inkscape:connector-curvature="0" />
    <path
       style="fill:#c89e00;fill-opacity:1;fill-rule:evenodd;stroke:#7b8743;stroke-width:5.16049385px;stroke-linecap:butt;stroke-linejoin:miter;stroke-opacity:1"
       d="m 662.02077,510.55103 52.5535,71.27224 -9.63578,43.82502 -64.45666,-35.13245 z"
       id="path3410"
       inkscape:connector-curvature="0"
       sodipodi:nodetypes="ccccc" />
    <path
       style="fill:#c89e00;fill-opacity:1;fill-rule:evenodd;stroke:#7b8743;stroke-width:5.82103682;stroke-linecap:butt;stroke-linejoin:miter;stroke-miterlimit:4;stroke-dasharray:none;stroke-opacity:1"
       d="m 744.80151,572.99361 c 0,0 57.72619,95.2341 60.05392,95.82184 2.32773,0.58797 67.50246,-102.28836 67.50246,-102.28836 0,0 -70.29565,-107.57905 -72.15778,-105.22759 -1.86214,2.35146 -55.3986,111.69411 -55.3986,111.69411 z"
       id="path3412"
       inkscape:connector-curvature="0" />
    <path
       style="fill:#000000;fill-opacity:1;fill-rule:evenodd;stroke:#c89e00;stroke-width:5.16049385px;stroke-linecap:butt;stroke-linejoin:miter;stroke-opacity:1"
       d="M 898.08306,593.82566 995.13775,687.05654 1100.4524,594.8391 995.13775,448.91251 Z"
       id="path5075"
       inkscape:connector-curvature="0" />
    <path
       style="fill:#c89e00;fill-opacity:1;fill-rule:evenodd;stroke:#7b8743;stroke-width:5.16049385px;stroke-linecap:butt;stroke-linejoin:miter;stroke-opacity:1"
       d="m 905.85296,577.24763 c 2.80937,1.83824 91.33009,-90.09433 91.33009,-90.09433 l 99.96205,99.67431 -101.09065,-136.70232 z"
       id="path3414"
       inkscape:connector-curvature="0"
       sodipodi:nodetypes="ccccc" />
    <path
       style="fill:#c89e00;fill-opacity:1;fill-rule:evenodd;stroke:#7b8743;stroke-width:5.66338491px;stroke-linecap:butt;stroke-linejoin:miter;stroke-opacity:1"
       d="m 1120.3225,577.4188 61.923,88.50818 66.5789,-92.40471 -53.0768,-99.64111 z"
       id="path3416"
       inkscape:connector-curvature="0" />
    <path
       style="fill:#c89e00;fill-opacity:1;fill-rule:evenodd;stroke:#7b8743;stroke-width:5.16049385px;stroke-linecap:butt;stroke-linejoin:miter;stroke-opacity:1"
       d="m 1282.4356,589.59667 7.9692,35.18683 c 0,0 44.5709,-14.59124 63.0519,-22.80264 l -23.7291,-99.24244 z"
       id="path3418"
       inkscape:connector-curvature="0"
       sodipodi:nodetypes="ccccc" />
    <path
       style="fill:#c89e00;fill-opacity:1;fill-rule:evenodd;stroke:#7b8743;stroke-width:4.79505968px;stroke-linecap:butt;stroke-linejoin:miter;stroke-opacity:1"
       d="m 719.00114,627.35572 c 1.33185,2.23191 32.70292,18.4556 32.70292,18.4556 l 24.49518,9.6432 -47.00814,-77.37869 z"
       id="path3422"
       inkscape:connector-curvature="0"
       sodipodi:nodetypes="ccccc" />
    <path
       style="fill:#c89e00;fill-opacity:1;fill-rule:evenodd;stroke:#7b8743;stroke-width:5.16049385px;stroke-linecap:butt;stroke-linejoin:miter;stroke-opacity:1"
       d="m 835.85045,674.06695 101.56885,51.5111 39.93565,-32.74717 -89.78757,-89.86524 z"
       id="path3424"
       inkscape:connector-curvature="0"
       sodipodi:nodetypes="ccccc" />
    <path
       style="fill:#c89e00;fill-opacity:1;fill-rule:evenodd;stroke:#7b8743;stroke-width:5.16049385px;stroke-linecap:butt;stroke-linejoin:miter;stroke-opacity:1"
       d="m 1015.7618,692.83088 26.9979,24.21501 105.6099,-41.72931 -44.3014,-70.76469 z"
       id="path3426"
       inkscape:connector-curvature="0"
       sodipodi:nodetypes="ccccc" />
    <path
       style="fill:#c89e00;fill-opacity:1;fill-rule:evenodd;stroke:#7b8743;stroke-width:5.16049385px;stroke-linecap:butt;stroke-linejoin:miter;stroke-opacity:1"
       d="m 1198.1352,663.56856 c 51.082,-17.32135 52.5061,-19.3095 84.5905,-29.49625 l -20.8338,-47.97843 z"
       id="path3428"
       inkscape:connector-curvature="0"
       sodipodi:nodetypes="cccc" />
    <path
       style="fill:#c89e00;fill-opacity:1;fill-rule:evenodd;stroke:#7b8743;stroke-width:5.16049385px;stroke-linecap:butt;stroke-linejoin:miter;stroke-opacity:1"
       d="m 1337.6876,472.86654 21.0707,80.42429 c 0,0 23.4119,-78.12648 20.6025,-80.42429 -2.8095,-2.29791 -24.3484,-55.14817 -24.3484,-55.14817 z"
       id="path3456"
       inkscape:connector-curvature="0" />
    <path
       style="fill:#c89e00;fill-opacity:1;fill-rule:evenodd;stroke:#7b8743;stroke-width:5.16049385px;stroke-linecap:butt;stroke-linejoin:miter;stroke-opacity:1"
       d="m 1274.9438,343.72804 c 0,1.83823 48.6966,87.77736 48.6966,87.77736 0,0 28.5625,-92.83267 26.2214,-93.75183 -2.3411,-0.91907 -47.7603,-55.60762 -47.7603,-55.60762 z"
       id="path3458"
       inkscape:connector-curvature="0" />
    <path
       style="fill:#c89e00;fill-opacity:1;fill-rule:evenodd;stroke:#7b8743;stroke-width:5.16049385px;stroke-linecap:butt;stroke-linejoin:miter;stroke-opacity:1"
       d="m 1113.8702,349.24283 c 3.2776,1.83824 77.7274,90.07526 77.7274,90.07526 0,0 62.7437,-93.75182 60.8707,-93.75182 -1.873,0 -73.9813,-65.25857 -73.9813,-65.25857 z"
       id="path3460"
       inkscape:connector-curvature="0" />
    <path
       style="fill:#c89e00;fill-opacity:1;fill-rule:evenodd;stroke:#7b8743;stroke-width:5.16049385px;stroke-linecap:butt;stroke-linejoin:miter;stroke-opacity:1"
       d="m 909.99466,339.93387 c 0,0 81.47351,86.85833 83.34639,87.31783 1.8728,0.45967 88.02855,-86.39868 85.68745,-87.31783 -2.3412,-0.91908 -81.00515,-72.61164 -81.00515,-72.61164 z"
       id="path3462"
       inkscape:connector-curvature="0" />
    <path
       style="fill:#c89e00;fill-opacity:1;fill-rule:evenodd;stroke:#7b8743;stroke-width:5.16049385px;stroke-linecap:butt;stroke-linejoin:miter;stroke-opacity:1"
       d="m 742.55765,351.54065 54.78372,83.6413 83.81464,-89.15609 c 0,0 -58.99796,-69.3947 -63.68032,-68.01601 -4.68236,1.37868 -74.91804,73.5308 -74.91804,73.5308 z"
       id="path3464"
       inkscape:connector-curvature="0" />
    <path
       style="fill:#c89e00;fill-opacity:1;fill-rule:evenodd;stroke:#7b8743;stroke-width:5.16049385px;stroke-linecap:butt;stroke-linejoin:miter;stroke-opacity:1"
       d="m 685.90082,282.60552 28.0943,67.09689 -53.84736,88.69653 -17.79306,-90.07528 z"
       id="path3466"
       inkscape:connector-curvature="0" />
    <path
       style="fill:#c89e00;fill-opacity:1;fill-rule:evenodd;stroke:#7b8743;stroke-width:5.16049385px;stroke-linecap:butt;stroke-linejoin:miter;stroke-opacity:1"
       d="m 702.28915,257.78887 29.49904,67.09688 68.83092,-70.77343 -37.92726,-57.44592 z"
       id="path3468"
       inkscape:connector-curvature="0" />
    <path
       style="fill:#c89e00;fill-opacity:1;fill-rule:evenodd;stroke:#7b8743;stroke-width:5.16049385px;stroke-linecap:butt;stroke-linejoin:miter;stroke-opacity:1"
       d="m 826.37216,256.86974 66.02156,69.39466 88.49687,-75.82862 -72.10866,-55.14812 z"
       id="path3470"
       inkscape:connector-curvature="0" />
    <path
       style="fill:#c89e00;fill-opacity:1;fill-rule:evenodd;stroke:#7b8743;stroke-width:5.16049385px;stroke-linecap:butt;stroke-linejoin:miter;stroke-opacity:1"
       d="m 1014.1354,252.27407 78.664,73.07126 72.1086,-74.90955 -80.5369,-54.6885 z"
       id="path3472"
       inkscape:connector-curvature="0" />
    <path
       style="fill:#c89e00;fill-opacity:1;fill-rule:evenodd;stroke:#7b8743;stroke-width:5.16049385px;stroke-linecap:butt;stroke-linejoin:miter;stroke-opacity:1"
       d="m 1196.7483,254.57188 58.0612,69.85428 35.1179,-69.39466 c 0,0 -53.8473,-63.42033 -56.6567,-60.2034 -2.8095,3.21698 -36.5224,59.74378 -36.5224,59.74378 z"
       id="path3474"
       inkscape:connector-curvature="0" />
    <path
       style="fill:#c89e00;fill-opacity:1;fill-rule:evenodd;stroke:#7b8743;stroke-width:5.16049385px;stroke-linecap:butt;stroke-linejoin:miter;stroke-opacity:1"
       d="m 1240.7625,181.50065 c 0,0 42.6096,56.06723 48.2283,53.76941 5.619,-2.29785 12.1742,-48.71417 12.1742,-48.71417 l -52.4426,-51.47157 z"
       id="path3476"
       inkscape:connector-curvature="0" />
    <path
       style="fill:#c89e00;fill-opacity:1;fill-rule:evenodd;stroke:#7b8743;stroke-width:5.16049385px;stroke-linecap:butt;stroke-linejoin:miter;stroke-opacity:1"
       d="m 1097.0135,177.8241 c 0,0 72.1086,58.82466 73.9816,58.82466 1.8729,0 44.0144,-63.42032 42.1414,-63.42032 -1.8728,0 -71.1722,-43.65891 -71.1722,-43.65891 z"
       id="path3478"
       inkscape:connector-curvature="0" />
    <path
       style="fill:#c89e00;fill-opacity:1;fill-rule:evenodd;stroke:#7b8743;stroke-width:5.16049385px;stroke-linecap:butt;stroke-linejoin:miter;stroke-opacity:1"
       d="m 927.3598,179.71373 c 1.98655,1.29985 62.57677,57.84347 65.55665,57.84347 2.9798,0 79.79355,-64.66767 79.79355,-64.66767 l -76.15155,-44.52001 z"
       id="path3480"
       inkscape:connector-curvature="0" />
    <path
       style="fill:#c89e00;fill-opacity:1;fill-rule:evenodd;stroke:#7b8743;stroke-width:5.16049385px;stroke-linecap:butt;stroke-linejoin:miter;stroke-opacity:1"
       d="m 780.35398,178.08893 c 0,0 33.44053,63.36782 35.42708,60.76811 1.98656,-2.59969 78.46936,-57.5185 77.80706,-59.79321 -0.66207,-2.27476 -49.00182,-51.99414 -49.00182,-51.99414 z"
       id="path3482"
       inkscape:connector-curvature="0" />
    <path
       style="fill:#c89e00;fill-opacity:1;fill-rule:evenodd;stroke:#7b8743;stroke-width:5.16049385px;stroke-linecap:butt;stroke-linejoin:miter;stroke-opacity:1"
       d="m 694.93174,188.48774 c 0,2.27475 2.3177,45.49484 2.3177,45.49484 0,0 61.91449,-56.21864 61.91449,-58.49334 0,-2.27476 -14.56807,-51.01926 -14.56807,-49.71941 0,1.29986 -49.66412,62.71791 -49.66412,62.71791 z"
       id="path3484"
       inkscape:connector-curvature="0" />
    <path
       style="fill:#c89e00;fill-opacity:1;fill-rule:evenodd;stroke:#7b8743;stroke-width:5.16049385px;stroke-linecap:butt;stroke-linejoin:miter;stroke-opacity:1"
       d="m 760.48843,117.64573 c 0,4.5495 5.29748,38.34568 5.62851,40.94538 0.33115,2.5997 73.50291,-44.19499 73.50291,-44.19499 0,0 -16.88578,-37.37079 -19.53453,-37.37079 -2.64873,0 -59.59689,40.6204 -59.59689,40.6204 z"
       id="path3486"
       inkscape:connector-curvature="0" />
    <path
       style="fill:#c89e00;fill-opacity:1;fill-rule:evenodd;stroke:#7b8743;stroke-width:5.16049385px;stroke-linecap:butt;stroke-linejoin:miter;stroke-opacity:1"
       d="m 870.41164,119.59552 42.38009,42.89515 c 0,0 67.54312,-46.7947 64.23219,-48.09455 -3.31093,-1.29985 -45.69101,-34.77108 -49.33297,-32.82129 -3.64208,1.94975 -57.27931,38.02069 -57.27931,38.02069 z"
       id="path3488"
       inkscape:connector-curvature="0" />
    <path
       style="fill:#c89e00;fill-opacity:1;fill-rule:evenodd;stroke:#7b8743;stroke-width:5.16049385px;stroke-linecap:butt;stroke-linejoin:miter;stroke-opacity:1"
       d="m 1016.4241,117.64573 c 0,0 58.9347,46.14479 60.9212,45.81984 1.9867,-0.32515 47.6776,-49.3944 46.0222,-49.3944 -1.6555,0 -55.955,-39.64555 -57.9416,-38.02075 -1.9864,1.62486 -49.0018,41.59531 -49.0018,41.59531 z"
       id="path3490"
       inkscape:connector-curvature="0" />
    <path
       style="fill:#c89e00;fill-opacity:1;fill-rule:evenodd;stroke:#7b8743;stroke-width:5.16049385px;stroke-linecap:butt;stroke-linejoin:miter;stroke-opacity:1"
       d="m 1146.8751,118.94557 c 16.5546,3.24966 69.5299,46.79474 69.5299,46.79474 l 8.6083,-10.3988 3.311,-38.99564 -59.597,-37.04579 z"
       id="path3492"
       inkscape:connector-curvature="0" />
    <path
       style="fill:#7b8743;fill-opacity:1;fill-rule:evenodd;stroke:#c89e00;stroke-width:5.16049385px;stroke-linecap:butt;stroke-linejoin:miter;stroke-opacity:1"
       d="m 839.61985,71.50097 c 4.6353,25.34713 10.59496,29.89658 10.59496,29.89658 l 17.87912,0.64996 38.40698,-27.94684 c 0,0 39.73122,-5.84936 40.39341,-3.24965 0.66218,2.59969 38.40698,30.54653 38.40698,30.54653 l 25.8253,1.94981 27.8119,-34.44609 34.4337,-1.2999 c 0,0 41.0557,35.74599 43.7044,35.74599 2.6488,0 22.5145,-1.29985 22.5145,-1.29985 l 15.2302,-34.44614 -17.2169,-7.79911 c 0,0 -11.9194,-7.14916 -4.6352,-9.7489 7.284,-2.59971 13.2437,-3.24961 13.2437,-3.24961 0,0 81.4491,-8.44907 105.2878,0 23.8388,8.44905 11.9193,-14.94832 11.9193,-14.94832 0,0 -39.0689,-20.14773 -113.234,-20.79767 -74.1651,-0.6499 -105.95,6.49925 -111.2475,6.49925 -5.2975,0 -94.69292,-49.3944 -94.69292,-49.3944 0,0 -18.54131,-20.79768 -18.54131,4.54951 0,25.34712 2.64875,31.19649 -1.32425,38.34564 -3.97323,7.1492 -19.86579,0.64994 -23.83878,0.64994 -3.97323,0 -35.09605,-1.29984 -58.93484,-1.29984 -23.83878,0 -43.04227,0 -66.21875,1.29984 -23.1766,1.29986 -25.16316,-1.29984 -27.14971,3.89956 -1.98668,5.19941 -7.94634,16.89807 7.94622,20.14772 15.89244,3.24966 70.19199,3.24966 81.44913,8.44906 11.25715,5.1994 22.51441,9.09896 1.98656,27.29693 z"
       id="path3494"
       inkscape:connector-curvature="0" />
    <path
       style="fill:#7b8743;fill-opacity:1;fill-rule:evenodd;stroke:#c89e00;stroke-width:5.16049385px;stroke-linecap:butt;stroke-linejoin:miter;stroke-opacity:1"
       d="m 1031.6543,-6.49027 c 0,0 50.3263,-54.59377 93.3686,-59.1433 43.0423,-4.54953 121.8426,0.64994 131.7754,13.64845 9.9326,12.99851 17.2168,27.29693 -9.9328,23.39738 -27.1496,-3.8996 -50.3262,1.29986 -70.1918,15.59821 -19.8658,14.29837 -18.5414,14.29837 -24.5011,14.29837 -5.9597,0 -98.666,1.9498 -103.9636,5.19946 -5.2974,3.24961 -21.19,7.14916 -16.5547,-12.99857 z"
       id="path3496"
       inkscape:connector-curvature="0" />
    <path
       style="fill:#7b8743;fill-opacity:1;fill-rule:evenodd;stroke:#c89e00;stroke-width:5.16049385px;stroke-linecap:butt;stroke-linejoin:miter;stroke-opacity:1"
       d="m 917.09586,-46.78572 c 0,0 -29.13626,-32.4963 -45.02882,-31.19648 -15.89244,1.29987 -50.9885,5.84934 -63.57001,-0.64988 -12.58164,-6.49929 -47.01539,-25.99707 -70.85418,-22.74751 -23.83878,3.24965 -21.85223,3.89966 -9.93277,14.94834 11.91933,11.04875 67.54313,35.09607 80.12476,58.49341 12.58152,23.39738 19.86567,26.64699 35.09593,27.94684 15.23038,1.29984 62.24565,3.89961 67.54325,3.89961 5.29748,0 6.62184,-50.69433 6.62184,-50.69433 z"
       id="path3498"
       inkscape:connector-curvature="0" />
    <path
       style="fill:#7b8743;fill-opacity:1;fill-rule:evenodd;stroke:#c89e00;stroke-width:5.16049385px;stroke-linecap:butt;stroke-linejoin:miter;stroke-opacity:1"
       d="m 956.16491,-41.58631 60.25919,40.29546 c 0,0 31.1229,-38.99559 35.7581,-40.29546 4.6353,-1.29982 15.8925,-20.79762 3.9732,-36.39589 -11.9194,-15.59821 -33.7717,-29.24666 -40.3936,-40.94536 -6.6218,-11.69868 -15.89235,-17.54803 -15.89235,-17.54803 0,0 -41.0558,46.14482 -44.36673,54.59386 -3.31092,8.44906 -0.66218,36.39589 0.66219,40.29542 z"
       id="path3500"
       inkscape:connector-curvature="0" />
    <path
       style="fill:#7b8743;fill-opacity:1;fill-rule:evenodd;stroke:#c89e00;stroke-width:5.16049385px;stroke-linecap:butt;stroke-linejoin:miter;stroke-opacity:1"
       d="m 1123.6986,-75.3825 c 1.9864,-4.54947 80.1247,-83.19059 196.6696,-119.58648 116.5451,-36.39588 51.6507,-45.49487 51.6507,-45.49487 0,0 -136.4106,17.54803 -168.8577,31.19649 -32.4473,13.64844 -94.6931,44.84494 -103.3015,48.74451 -8.6084,3.89953 -48.3398,26.64697 -50.3262,33.7962 -1.9865,7.14915 -8.6084,21.44755 -8.6084,21.44755 0,0 19.2032,3.89951 21.1899,10.39887 1.9866,6.49922 7.2841,24.04725 6.622,31.84636 -0.6623,7.79911 0,13.64844 0,13.64844 0,0 43.0421,-25.34713 54.9616,-25.99707 z"
       id="path3502"
       inkscape:connector-curvature="0" />
    <path
       style="fill:#7b8743;fill-opacity:1;fill-rule:evenodd;stroke:#c89e00;stroke-width:5.16049385px;stroke-linecap:butt;stroke-linejoin:miter;stroke-opacity:1"
       d="m 936.96154,-48.73548 c 0,0 -30.46063,-36.39589 -51.65068,-38.99559 -21.19005,-2.5997 -21.85223,1.94976 -35.09605,0.64995 -13.2437,-1.29989 -11.25714,0.64987 -23.17648,-5.1994 -11.91945,-5.84942 -15.23038,-9.09907 -31.12294,-20.14775 -15.89245,-11.04874 -23.1766,-14.94833 -51.65068,-25.99708 -28.47409,-11.04875 -68.8675,-31.19647 -93.36846,-35.09606 -24.50098,-3.89952 -28.47409,-3.89952 -35.09593,-3.89952 -6.62198,0 -66.88107,-29.24674 -22.51442,-30.54655 44.36653,-1.29988 129.78888,5.1994 162.23608,16.24815 32.44719,11.04875 62.24564,16.24816 77.47601,26.64703 15.23027,10.3988 33.10939,10.3988 53.63724,27.29683 20.52786,16.89815 47.01538,39.64553 52.31286,42.89524 5.29749,3.24957 9.93279,1.29982 4.6353,16.24815 -5.29748,14.94833 -7.28403,26.64696 -6.62185,29.8966 z"
       id="path3504"
       inkscape:connector-curvature="0" />
    <path
       style="fill:#7b8743;fill-opacity:1;fill-rule:evenodd;stroke:#c89e00;stroke-width:5.16049385px;stroke-linecap:butt;stroke-linejoin:miter;stroke-opacity:1"
       d="m 979.34151,-166.37218 c 42.37999,-28.5968 138.39739,-117.63672 197.99429,-152.08285 59.5969,-34.44617 76.8137,-51.34418 145.6813,-64.99266 68.8676,-13.64847 59.5969,-25.34712 72.8405,-12.99854 13.2439,12.3486 37.0827,14.94828 15.8926,21.44754 -21.1901,6.49936 -52.3129,0.64995 -70.1918,7.79916 -17.8792,7.14922 -6.622,-1.2998 -30.4608,24.04733 -23.8388,25.3471 -49.0018,50.04431 -58.2726,56.54353 -9.2705,6.49929 -24.5007,25.3472 -36.42,38.34572 -11.9195,12.9985 -18.5414,22.74743 -28.4743,29.24665 -9.9327,6.4993 -35.0959,12.99858 -48.3396,22.74745 -13.2438,9.74892 -13.2438,11.04874 -37.7448,23.39737 -24.501,12.34863 -39.0691,10.39889 -49.0018,25.99709 -9.9329,15.59827 -13.2439,33.14623 -19.2035,25.34714 -5.9598,-7.79911 -9.2708,-22.74744 -19.8657,-22.74744 -10.595,0 -25.16308,-1.29989 -25.16308,-1.29989 0,0 -5.95967,-1.29981 -8.6084,-5.1994 -2.64887,-3.89952 -0.66231,-15.5982 -0.66231,-15.5982 z"
       id="path3506"
       inkscape:connector-curvature="0" />
    <path
       style="fill:#7b8743;fill-opacity:1;fill-rule:evenodd;stroke:#c89e00;stroke-width:5.16049385px;stroke-linecap:butt;stroke-linejoin:miter;stroke-opacity:1"
       d="m 944.90777,-106.57899 c 16.55462,-3.89951 26.48764,-5.19939 23.17659,-22.74737 -3.31093,-17.54803 -13.24382,-25.34714 -23.17659,-33.14623 -9.93291,-7.79918 15.89243,7.14915 -33.10939,-38.34573 -49.00193,-45.49488 -73.50291,-42.24524 -104.62573,-58.49339 -31.12282,-16.24814 -80.78694,-45.49487 -100.65262,-51.34422 -19.86567,-5.84934 -49.00194,-18.84789 -60.25908,-27.29689 -11.25727,-8.44902 -24.50097,-18.84796 -40.39354,-15.59831 -15.89244,3.24971 -11.25714,8.44909 1.98656,20.14774 13.24382,11.69873 -3.31093,11.04878 36.42042,42.8952 39.73123,31.84643 45.02871,38.99559 68.20532,54.59381 23.17659,15.59827 11.25726,9.74892 45.691,25.34712 34.43375,15.59828 48.33976,27.29698 83.43569,34.44614 35.09593,7.14916 39.73135,14.94834 56.2861,29.89666 16.55463,14.94834 34.43363,37.04577 36.4203,39.64547 1.98656,2.5997 10.59497,0 10.59497,0 z"
       id="path3508"
       inkscape:connector-curvature="0" />
    <path
       style="fill:#7b8743;fill-opacity:1;fill-rule:evenodd;stroke:#c89e00;stroke-width:5.16049385px;stroke-linecap:butt;stroke-linejoin:miter;stroke-opacity:1"
       d="m 961.46239,-165.72223 c -2.64874,-10.39889 -23.83878,-41.59538 -31.78501,-48.0946 -7.94622,-6.49928 -43.04215,-18.19798 -60.92127,-30.54654 -17.87912,-12.34863 -52.97505,-46.79475 -56.94816,-49.39446 -3.97311,-2.5997 -2.64874,2.59971 -7.94622,-14.2984 -5.2976,-16.89806 -66.88106,-100.08863 -84.76018,-108.53774 -17.879,-8.449 11.91946,-19.4978 37.08261,-8.449 25.16315,11.0487 80.12476,27.94681 98.00388,34.44607 17.879,6.49927 38.40686,29.24669 56.94816,48.7445 18.54118,19.49779 33.77157,25.99706 38.40686,37.69576 4.6353,11.6987 22.51441,45.49488 23.83878,61.09308 1.32437,15.59829 13.24382,32.4963 5.29748,47.44464 -7.94621,14.94834 -17.21693,29.89669 -17.21693,29.89669 z"
       id="path3510"
       inkscape:connector-curvature="0" />
    <path
       style="fill:#7b8743;fill-opacity:1;fill-rule:evenodd;stroke:#c89e00;stroke-width:5.16049385px;stroke-linecap:butt;stroke-linejoin:miter;stroke-opacity:1"
       d="m 997.22075,-205.36777 c -0.6623,-15.59828 7.94605,-14.2984 -1.9867,-38.34572 -9.93275,-24.04726 -12.5815,-24.04726 -13.90587,-32.4963 -1.32436,-8.44905 -16.55475,-27.94685 60.25902,-72.14188 76.8139,-44.19506 90.0575,-72.14187 116.5451,-85.14042 26.4875,-12.99852 54.9616,-23.39737 65.5566,-25.99705 10.595,-2.59969 44.3665,-13.6484 29.1361,2.59968 -15.2301,16.24817 -31.7847,26.6471 -54.2992,53.29403 -22.5144,26.64701 -14.568,16.24816 -39.7312,46.79465 -25.1633,30.54669 -34.4339,43.54515 -40.3935,54.5939 -5.9597,11.04876 1.3243,15.59821 -23.1767,29.24673 -24.5008,13.64844 -40.3935,19.49779 -51.6507,29.24666 -11.2571,9.74892 -16.5547,14.29839 -23.1765,20.79767 -6.6219,6.49929 -22.51425,20.14774 -22.51425,20.14774 z"
       id="path3512"
       inkscape:connector-curvature="0" />
    <path
       style="fill:#7b8743;fill-opacity:1;fill-rule:evenodd;stroke:#c89e00;stroke-width:5.16049385px;stroke-linecap:butt;stroke-linejoin:miter;stroke-opacity:1"
       d="m 966.76,-297.65742 c 0,-2.59969 -46.35321,-37.69572 -54.29943,-53.94388 -7.94634,-16.24817 9.93277,-59.79329 9.93277,-74.74157 0,-14.94836 3.97312,-40.94534 4.63543,-55.24376 0.66218,-14.29842 -21.19017,-59.79328 -7.94634,-79.94103 13.2437,-20.14774 19.20348,-36.39582 26.48752,-1.94975 7.28403,34.44617 24.50096,55.24377 31.785,70.19213 7.28416,14.94828 22.5145,33.79614 25.16305,49.39436 2.6488,15.59831 15.2304,23.39738 22.5145,49.39444 7.2841,25.99715 2.6487,40.29548 -4.6353,46.79475 -7.2841,6.49926 -25.82535,27.29695 -33.10947,33.14622 -7.28391,5.84934 -20.52773,16.89809 -20.52773,16.89809 z"
       id="path3514"
       inkscape:connector-curvature="0" />
    <path
       style="fill:#7b8743;fill-opacity:1;fill-rule:evenodd;stroke:#c89e00;stroke-width:5.16049385px;stroke-linecap:butt;stroke-linejoin:miter;stroke-opacity:1"
       d="m 1050.1957,-374.99869 c -1.9867,-18.19789 -21.1901,-29.89654 -20.5279,-37.04575 0.6623,-7.14921 12.5816,-24.69728 22.5144,-38.99561 9.9328,-14.29841 23.1766,-34.44615 33.7716,-38.9956 10.595,-4.54951 17.8792,-5.8494 17.8792,-5.8494 0,0 -1.9867,4.54952 -3.9733,35.74596 -1.9865,31.19653 -3.3109,25.34712 -1.9865,34.44617 1.3244,9.09895 4.6353,9.09895 1.3244,15.59823 -3.3109,6.49926 -17.217,12.99853 -27.8119,21.44763 -10.5952,8.44901 -21.19,13.64837 -21.19,13.64837 z"
       id="path3516"
       inkscape:connector-curvature="0" />
    <path
       style="fill:#7b8743;fill-opacity:1;fill-rule:evenodd;stroke:#c89e00;stroke-width:5.16049385px;stroke-linecap:butt;stroke-linejoin:miter;stroke-opacity:1"
       d="m 903.18986,-373.04894 c 1.98656,-27.9468 2.64874,-25.34712 1.32437,-44.19497 -1.32437,-18.84786 5.2976,-14.29833 -7.28403,-26.64701 -12.58152,-12.34859 13.24382,0 -25.82535,-27.94682 -39.06904,-27.94689 -61.58345,-33.14627 -61.58345,-33.14627 0,0 -3.31093,29.2467 7.94622,42.89518 11.25726,13.64848 26.48753,5.19937 28.47408,29.24669 1.98656,24.04733 -1.32437,28.59676 12.58163,35.74598 13.90589,7.14921 41.71791,24.04722 41.71791,24.04722 z"
       id="path3518"
       inkscape:connector-curvature="0" />
    <path
       inkscape:connector-curvature="0"
       style="fill:#c89e00;fill-opacity:1;fill-rule:evenodd;stroke:#7b8743;stroke-width:5.16049385px;stroke-linecap:butt;stroke-linejoin:miter;stroke-opacity:1"
       d="m 903.539,596.34892 c 2.80949,1.83823 90.52675,88.34115 90.52675,88.34115 l 100.24315,-85.97778 -89.0595,53.09297 -6.41975,-143.50657 -21.25627,144.22756 z"
       id="path3414-0-4"
       sodipodi:nodetypes="ccccccc" />
    <path
       style="fill:#c89e00;fill-opacity:1;fill-rule:evenodd;stroke:#7b8743;stroke-width:5.16049385px;stroke-linecap:butt;stroke-linejoin:miter;stroke-opacity:1"
       d="m 1014.2879,745.12231 93.9572,-35.46839 -8.2598,58.77598 -94.9899,-10.13381 z"
       id="path5111"
       inkscape:connector-curvature="0" />
    <path
       style="fill:#c89e00;fill-opacity:1;fill-rule:evenodd;stroke:#7b8743;stroke-width:5.16049385px;stroke-linecap:butt;stroke-linejoin:miter;stroke-opacity:1"
       d="m 1115.4726,709.65392 c 0,4.05352 -7.2275,56.74922 -7.2275,56.74922 l 71.2424,-3.04009 18.5849,-87.15065 z"
       id="path5115"
       inkscape:connector-curvature="0" />
    <path
       style="fill:#c89e00;fill-opacity:1;fill-rule:evenodd;stroke:#7b8743;stroke-width:5.16049385px;stroke-linecap:butt;stroke-linejoin:miter;stroke-opacity:1"
       d="m 1177.9387,770.45666 2.5813,22.80094 -13.4224,15.7075 -35.6212,-38.00172 z"
       id="path5117"
       inkscape:connector-curvature="0" />
    <path
       style="fill:#c89e00;fill-opacity:1;fill-rule:evenodd;stroke:#7b8743;stroke-width:5.16049385px;stroke-linecap:butt;stroke-linejoin:miter;stroke-opacity:1"
       d="m 1207.365,671.14555 -3.6138,19.7609 25.8123,-23.81442 42.8486,-1.01332 -2.065,-18.24086 z"
       id="path5119"
       inkscape:connector-curvature="0" />
    <path
       style="fill:#c89e00;fill-opacity:1;fill-rule:evenodd;stroke:#7b8743;stroke-width:5.16049385px;stroke-linecap:butt;stroke-linejoin:miter;stroke-opacity:1"
       d="m 1277.5745,644.29104 2.5812,24.82775 22.1989,6.58701 12.906,-2.53348 z"
       id="path5121"
       inkscape:connector-curvature="0" />
    <path
       style="fill:#c89e00;fill-opacity:1;fill-rule:evenodd;stroke:#7b8743;stroke-width:5.16049385px;stroke-linecap:butt;stroke-linejoin:miter;stroke-opacity:1"
       d="m 1290.997,641.75756 24.7799,21.78767 10.8412,-22.29439 -0.5161,-13.68061 z"
       id="path5123"
       inkscape:connector-curvature="0" />
    <path
       style="fill:#c89e00;fill-opacity:1;fill-rule:evenodd;stroke:#7b8743;stroke-width:5.16049385px;stroke-linecap:butt;stroke-linejoin:miter;stroke-opacity:1"
       d="m 1334.3129,626.2538 0,10.13369 34.0724,-12.16045 1.5487,-11.65386 z"
       id="path5125"
       inkscape:connector-curvature="0" />
    <path
       style="fill:#c89e00;fill-opacity:1;fill-rule:evenodd;stroke:#7b8743;stroke-width:5.16049385px;stroke-linecap:butt;stroke-linejoin:miter;stroke-opacity:1"
       d="m 981.75082,745.09933 -93.95716,-35.46839 8.25988,58.77598 94.98973,-10.13369 z"
       id="path5111-9"
       inkscape:connector-curvature="0" />
    <path
       style="fill:#c89e00;fill-opacity:1;fill-rule:evenodd;stroke:#7b8743;stroke-width:5.16049385px;stroke-linecap:butt;stroke-linejoin:miter;stroke-opacity:1"
       d="m 880.5661,709.63094 c 0,4.05364 7.22756,56.74922 7.22756,56.74922 l -71.24241,-3.04009 -18.58498,-87.15053 z"
       id="path5115-8"
       inkscape:connector-curvature="0" />
    <path
       style="fill:#c89e00;fill-opacity:1;fill-rule:evenodd;stroke:#7b8743;stroke-width:5.16049385px;stroke-linecap:butt;stroke-linejoin:miter;stroke-opacity:1"
       d="m 818.09998,770.43368 -2.58129,22.80102 13.42256,15.7075 35.62115,-38.0018 z"
       id="path5117-5"
       inkscape:connector-curvature="0" />
    <path
       style="fill:#c89e00;fill-opacity:1;fill-rule:evenodd;stroke:#7b8743;stroke-width:5.16049385px;stroke-linecap:butt;stroke-linejoin:miter;stroke-opacity:1"
       d="m 788.67384,671.12257 3.61371,19.76091 -25.81243,-23.81443 -42.84857,-1.01332 2.065,-18.24086 z"
       id="path5119-1"
       inkscape:connector-curvature="0" />
    <path
       style="fill:#c89e00;fill-opacity:1;fill-rule:evenodd;stroke:#7b8743;stroke-width:5.16049385px;stroke-linecap:butt;stroke-linejoin:miter;stroke-opacity:1"
       d="m 718.46399,644.26807 -2.58116,24.82774 -22.19871,6.58701 -12.90628,-2.53336 z"
       id="path5121-6"
       inkscape:connector-curvature="0" />
    <path
       style="fill:#c89e00;fill-opacity:1;fill-rule:evenodd;stroke:#7b8743;stroke-width:5.16049385px;stroke-linecap:butt;stroke-linejoin:miter;stroke-opacity:1"
       d="m 705.04156,641.73458 -24.78,21.78767 -10.84115,-22.29427 0.51616,-13.68073 z"
       id="path5123-2"
       inkscape:connector-curvature="0" />
    <path
       style="fill:#c89e00;fill-opacity:1;fill-rule:evenodd;stroke:#7b8743;stroke-width:5.16049385px;stroke-linecap:butt;stroke-linejoin:miter;stroke-opacity:1"
       d="m 662.17319,622.09995 0,10.13381 -34.07243,-12.16057 -1.54872,-11.65386 z"
       id="path5125-8"
       inkscape:connector-curvature="0" />
    <path
       inkscape:connector-curvature="0"
       style="fill:#7b8743;fill-opacity:1;fill-rule:evenodd;stroke:#000000;stroke-width:2.33779526px;stroke-linecap:butt;stroke-linejoin:miter;stroke-opacity:1"
       d="m 1064.7461,797.1941 -4.6346,29.1 c 0,0 29.8603,1.2824 31.7633,0.6326 1.9029,-0.6498 3.8267,-37.622 -1.0665,-45.4199 -4.8932,-7.7978 0.5224,-3.8742 -2.1959,-9.72246 -2.7186,-5.84848 -8.9219,-0.53349 -8.9219,-0.53349 0,0 -9.0616,-1.64891 -10.4209,2.57494 -1.3592,4.22381 -5.0672,21.41891 -4.5235,23.36831 z"
       id="path3500-3"
       sodipodi:nodetypes="ccssscsc" />
    <path
       inkscape:connector-curvature="0"
       style="fill:#7b8743;fill-opacity:1;fill-rule:evenodd;stroke:#000000;stroke-width:2.33779526px;stroke-linecap:butt;stroke-linejoin:miter;stroke-opacity:1"
       d="m 906.92595,797.0816 -4.63445,29.0999 c 0,0 29.86036,1.2825 31.76329,0.6327 1.90279,-0.6498 3.82659,-37.6219 -1.06648,-45.4198 -4.8932,-7.79792 0.52243,-3.8742 -2.19606,-9.72258 -2.71837,-5.84849 -8.92194,-0.53349 -8.92194,-0.53349 0,0 -9.06157,-1.64891 -10.4207,2.57506 -1.35912,4.22371 -5.06734,21.41881 -4.52366,23.36821 z"
       id="path3500-3-8"
       sodipodi:nodetypes="ccssscsc" />
    <path
       inkscape:connector-curvature="0"
       style="fill:#7b8743;fill-opacity:1;fill-rule:evenodd;stroke:#000000;stroke-width:2.33779526px;stroke-linecap:butt;stroke-linejoin:miter;stroke-opacity:1"
       d="m 943.23631,793.0269 -1.86467,33.8293 c 0,0 6.72866,4.6991 13.27497,5.0575 6.48934,0.3554 12.79271,-3.6284 13.73995,-3.9519 1.90291,-0.6499 3.82671,-37.6221 -1.06648,-45.4199 -4.89308,-7.79778 0.52243,-3.8742 -2.19594,-9.72256 -2.71849,-5.84825 -8.92182,-0.53337 -8.92182,-0.53337 0,0 -14.20566,-4.48657 -15.56491,-0.26272 -1.35912,4.22375 2.5989,21.00365 2.5989,21.00365 z"
       id="path3500-3-8-7"
       sodipodi:nodetypes="ccsssscscc" />
    <path
       inkscape:connector-curvature="0"
       style="fill:#7b8743;fill-opacity:1;fill-rule:evenodd;stroke:#000000;stroke-width:2.33779526px;stroke-linecap:butt;stroke-linejoin:miter;stroke-opacity:1"
       d="m 1054.2394,791.5694 1.8647,33.8292 c 0,0 -6.7287,4.6992 -13.275,5.0576 -6.4891,0.3552 -12.7926,-3.6285 -13.7399,-3.952 -1.9028,-0.6498 -3.8267,-37.622 1.0665,-45.4199 4.8931,-7.79768 -0.5224,-3.8742 2.1959,-9.72258 2.7186,-5.84825 8.9219,-0.53337 8.9219,-0.53337 0,0 14.2057,-4.48657 15.5649,-0.26272 1.3592,4.22374 -2.599,21.00367 -2.599,21.00367 z"
       id="path3500-3-8-7-3"
       sodipodi:nodetypes="ccsssscscc" />
    <path
       inkscape:connector-curvature="0"
       style="fill:#7b8743;fill-opacity:1;fill-rule:evenodd;stroke:#000000;stroke-width:2.33779526px;stroke-linecap:butt;stroke-linejoin:miter;stroke-opacity:1"
       d="m 973.97452,787.5494 -1.27103,44.4703 c 0,0 5.73942,0.4427 12.28572,0.8011 6.48936,0.3553 9.82494,1.1008 10.77224,0.7774 3.4528,-18.0713 -0.5069,-61.43885 -3.26228,-67.67525 -10.19852,-0.479 -20.07711,-1.63032 -21.12344,0.62256 -1.35912,4.22373 2.59879,21.00369 2.59879,21.00369 z"
       id="path3500-3-8-7-9"
       sodipodi:nodetypes="ccsccccc" />
    <path
       inkscape:connector-curvature="0"
       style="fill:#7b8743;fill-opacity:1;fill-rule:evenodd;stroke:#000000;stroke-width:2.33779526px;stroke-linecap:butt;stroke-linejoin:miter;stroke-opacity:1"
       d="m 1023.1394,787.8897 1.2711,44.4704 c 0,0 -5.7395,0.4428 -12.2856,0.8011 -6.4894,0.3553 -9.8251,1.1009 -10.7724,0.7774 -3.45285,-18.0711 0.507,-61.43895 3.2624,-67.67523 10.1986,-0.47901 20.077,-1.63044 21.1235,0.62244 1.3591,4.22385 -2.599,21.00369 -2.599,21.00369 z"
       id="path3500-3-8-7-9-2"
       sodipodi:nodetypes="ccsccccc" />
    <path
       inkscape:connector-curvature="0"
       style="fill:#7b8743;fill-opacity:1;fill-rule:evenodd;stroke:#000000;stroke-width:2.33779526px;stroke-linecap:butt;stroke-linejoin:miter;stroke-opacity:1"
       d="m 1102.7213,796.768 -1.271,44.4702 c 0,0 5.7394,0.4427 12.2857,0.8013 6.4892,0.3552 9.8251,1.1007 10.7721,0.7772 3.4531,-18.0712 -0.5066,-61.4389 -3.2623,-67.67519 -10.1983,-0.479 -20.0769,-1.63043 -21.1233,0.62245 -1.3592,4.22384 2.5988,21.00364 2.5988,21.00364 z"
       id="path3500-3-8-7-9-0"
       sodipodi:nodetypes="ccsccccc" />
    <path
       inkscape:connector-curvature="0"
       style="fill:#7b8743;fill-opacity:1;fill-rule:evenodd;stroke:#000000;stroke-width:2.33779526px;stroke-linecap:butt;stroke-linejoin:miter;stroke-opacity:1"
       d="m 894.78167,798.7946 1.27102,44.4704 c 0,0 -5.73942,0.4427 -12.28572,0.8011 -6.48935,0.3554 -9.82501,1.1009 -10.77224,0.7774 -3.45286,-18.0711 0.50686,-61.4389 3.26241,-67.6752 10.1984,-0.479 20.07699,-1.63046 21.12342,0.6224 1.35913,4.2239 -2.59889,21.0037 -2.59889,21.0037 z"
       id="path3500-3-8-7-9-2-2"
       sodipodi:nodetypes="ccsccccc" />
    <path
       inkscape:connector-curvature="0"
       style="fill:#7b8743;fill-opacity:1;fill-rule:evenodd;stroke:#000000;stroke-width:2.33779526px;stroke-linecap:butt;stroke-linejoin:miter;stroke-opacity:1"
       d="m 1134.7288,827.1692 c 2.6448,27.342 -0.9127,3.8437 25.8025,5.9211 3.4528,-18.0712 -1.0545,-22.2069 -3.8102,-28.4431 -9.2858,-8.8987 -27.5602,-27.4268 -28.6066,-25.1741 -1.3592,4.2239 6.6143,47.6959 6.6143,47.6959 z"
       id="path3500-3-8-7-9-0-4"
       sodipodi:nodetypes="cccccc" />
    <path
       inkscape:connector-curvature="0"
       style="fill:#7b8743;fill-opacity:1;fill-rule:evenodd;stroke:#000000;stroke-width:2.33779526px;stroke-linecap:butt;stroke-linejoin:miter;stroke-opacity:1"
       d="m 862.76796,830.4939 c -2.64475,27.342 0.91272,3.8437 -25.80228,5.9211 -3.45298,-18.0713 1.05439,-22.2069 3.80995,-28.443 9.28579,-8.8988 27.56026,-27.4269 28.60671,-25.174 1.35912,4.2237 -6.61438,47.6956 -6.61438,47.6956 z"
       id="path3500-3-8-7-9-0-4-2"
       sodipodi:nodetypes="cccccc" />
    <path
       style="fill:#c89e00;fill-opacity:1;fill-rule:evenodd;stroke:#7b8743;stroke-width:5.16049385px;stroke-linecap:butt;stroke-linejoin:miter;stroke-opacity:1"
       d="m 951.76277,726.69738 46.33028,17.05638 40.45185,-20.5866 -44.87385,-27.54245 z"
       id="path3424-9"
       inkscape:connector-curvature="0"
       sodipodi:nodetypes="ccccc" />
    <path
       inkscape:connector-curvature="0"
       id="path4003"
       d="m 1327.5619,333.05982 c 0,0 -17.8453,19.8295 -16.2936,40.42166 1.5517,20.59214 -14.7418,53.38715 -20.9489,61.77648 -6.207,8.38939 -30.2594,50.33648 -83.7955,46.52304 -53.536,-3.81334 -105.5202,-16.01615 -118.7102,-25.93088 -13.19,-9.91468 -50.4325,-80.08061 -51.9843,-89.99538 -1.5518,-9.91472 -8.5346,-31.26967 -13.9659,-32.79492 -5.4312,-1.52539 -16.2935,-3.81338 -16.2935,-3.81338 0,0 -23.27663,-4.57601 -27.93188,7.62672 -4.65532,12.20273 -15.51764,71.69123 -22.50062,80.0807 -6.98298,8.38942 -61.29478,56.43781 -72.93302,60.25111 -11.63829,3.81338 -120.26203,22.1175 -148.1939,-6.86404 -27.93181,-28.98157 -41.12185,-90.75808 -42.67363,-102.1982 -1.55177,-11.4401 -6.983,-44.99772 -27.15594,-54.1498 -20.17299,-9.15203 -7.7588,-39.65892 -7.7588,-39.65892 0,0 29.48352,-14.49081 128.02087,-14.49081 98.53722,0 152.84908,8.38938 182.3327,28.98158 29.48355,20.59215 64.39832,3.05065 64.39832,3.05065 0,0 15.5178,-16.77872 69.0538,-25.16819 53.5359,-8.38938 175.3498,-3.81335 220.3509,-1.5253 45.0015,2.28796 32.5873,0 32.5873,0 0,0 0.7759,35.84556 -4.6553,41.18429 -5.4313,5.33879 -19.3971,19.82951 -20.9489,26.69359 z"
       style="fill:#000000;fill-opacity:1;fill-rule:evenodd;stroke:#000000;stroke-width:6.71217251px;stroke-linecap:butt;stroke-linejoin:miter;stroke-opacity:1" />
    <path
       inkscape:connector-curvature="0"
       id="path3986"
       d="m 869.79028,453.56212 c 0,0 58.9672,-18.30416 65.17422,-70.16592 6.20715,-51.86177 10.86244,-83.89404 -80.69187,-96.09677 -91.55433,-12.20272 -128.7968,4.576 -135.00382,16.77877 -6.20709,12.20281 -7.75887,91.52077 -1.55178,103.72359 6.20704,12.20272 4.65528,45.76033 72.9331,53.38707 68.27777,7.62673 79.14015,-7.62674 79.14015,-7.62674 z"
       style="fill:#c8c8c8;fill-opacity:1;fill-rule:evenodd;stroke:#000000;stroke-width:6.71217251px;stroke-linecap:butt;stroke-linejoin:miter;stroke-opacity:1" />
    <path
       inkscape:connector-curvature="0"
       id="path3986-9"
       d="m 1129.9847,448.51475 c 0,0 -58.9672,-18.30416 -65.1743,-70.16592 -6.2071,-51.86178 -10.8624,-83.89401 80.692,-96.09677 91.5543,-12.20277 128.7968,4.57599 135.0037,16.77875 6.2071,12.20279 7.7589,91.52073 1.5519,103.72355 -6.2071,12.20277 -4.6554,45.76039 -72.9332,53.38712 -68.2778,7.62668 -79.1401,-7.62673 -79.1401,-7.62673 z"
       style="fill:#c8c8c8;fill-opacity:1;fill-rule:evenodd;stroke:#000000;stroke-width:6.71217251px;stroke-linecap:butt;stroke-linejoin:miter;stroke-opacity:1" />
    <path
       style="fill:#000000;fill-opacity:1;fill-rule:evenodd;stroke:#000000;stroke-width:1px;stroke-linecap:butt;stroke-linejoin:miter;stroke-opacity:1"
       d="m 629.83863,449.7645 5.55536,-214.57568 c 0,0 -2.08326,-12.49956 -24.30469,-13.19398 -22.22143,-0.69441 -59.72009,-1.38883 -59.72009,-1.38883 0,0 -13.19397,3.47209 -13.88839,17.36049 -0.69442,13.88839 -3.4721,212.49241 -3.4721,212.49241 0,0 -1.38884,20.83259 15.27723,20.83259 16.66608,0 65.27545,0 65.27545,0 0,0 15.27723,0 15.27723,-21.527 z"
       id="path14536"
       inkscape:connector-curvature="0" />
    <path
       style="fill:#000000;fill-opacity:1;fill-rule:evenodd;stroke:#000000;stroke-width:1px;stroke-linecap:butt;stroke-linejoin:miter;stroke-opacity:1"
       d="m 1458.8781,457.05651 5.5553,-214.57568 c 0,0 -2.0832,-12.49956 -24.3046,-13.19398 -22.2215,-0.69441 -59.7201,-1.38883 -59.7201,-1.38883 0,0 -13.194,3.47209 -13.8884,17.36049 -0.6944,13.88839 -3.4721,212.49241 -3.4721,212.49241 0,0 -1.3889,20.83259 15.2772,20.83259 16.6661,0 65.2755,0 65.2755,0 0,0 15.2772,0 15.2772,-21.527 z"
       id="path14536-2"
       inkscape:connector-curvature="0" />
    <path
       style="fill:#000000;fill-opacity:1;fill-rule:evenodd;stroke:#000000;stroke-width:1px;stroke-linecap:butt;stroke-linejoin:miter;stroke-opacity:1"
       d="m 636.08841,286.57587 c 0,0 -15.27723,-162.4942 29.16563,-188.88214 44.44286,-26.38795 481.92726,-144.43929 662.47636,-5.55536 0,0 62.4978,82.63594 52.0815,190.96541 l -46.5261,-4.86094 c 0,0 -2.2158,-155.03414 -117.357,-193.74309 -152.7537,-51.35379 -421.5127,9.02745 -421.5127,9.02745 0,0 -154.16117,36.10983 -117.35693,194.43751 z"
       id="path14553"
       inkscape:connector-curvature="0"
       sodipodi:nodetypes="cscccsccc" />
    <path
       style="fill:none;fill-rule:evenodd;stroke:#000000;stroke-width:8.69999981;stroke-linecap:butt;stroke-linejoin:miter;stroke-miterlimit:4;stroke-dasharray:none;stroke-opacity:1"
       d="m 597.20091,458.79195 c 0,0 36.10982,280.54555 181.93795,333.32145"
       id="path14557"
       inkscape:connector-curvature="0" />
    <path
       style="fill:#000000;fill-opacity:1;fill-rule:evenodd;stroke:#000000;stroke-width:1px;stroke-linecap:butt;stroke-linejoin:miter;stroke-opacity:1"
       d="m 778.44444,775.44732 -18.05491,22.91588 36.10983,35.4154 24.30468,-43.7485 z"
       id="path14563"
       inkscape:connector-curvature="0" />
    <text
       xml:space="preserve"
       style="font-style:normal;font-weight:normal;font-size:158.23498535px;line-height:125%;font-family:sans-serif;letter-spacing:0px;word-spacing:0px;fill:#000000;fill-opacity:1;stroke:none;stroke-width:1px;stroke-linecap:butt;stroke-linejoin:miter;stroke-opacity:1"
       x="734.00952"
       y="411.05139"
       id="text14565"
       sodipodi:linespacing="125%"><tspan
         sodipodi:role="line"
         id="tspan14567"
         x="734.00952"
         y="411.05139">@</tspan></text>
    <text
       xml:space="preserve"
       style="font-style:normal;font-weight:normal;font-size:158.23498535px;line-height:125%;font-family:sans-serif;letter-spacing:0px;word-spacing:0px;fill:#000000;fill-opacity:1;stroke:none;stroke-width:1px;stroke-linecap:butt;stroke-linejoin:miter;stroke-opacity:1"
       x="1097.6967"
       y="407.9071"
       id="text14565-8"
       sodipodi:linespacing="125%"><tspan
         sodipodi:role="line"
         id="tspan14567-3"
         x="1097.6967"
         y="407.9071">@</tspan></text>
  </g>
</svg>
