<?xml version="1.0" encoding="UTF-8" standalone="no"?>
<!-- Created with Inkscape (http://www.inkscape.org/) -->

<svg
   xmlns:dc="http://purl.org/dc/elements/1.1/"
   xmlns:cc="http://creativecommons.org/ns#"
   xmlns:rdf="http://www.w3.org/1999/02/22-rdf-syntax-ns#"
   xmlns:svg="http://www.w3.org/2000/svg"
   xmlns="http://www.w3.org/2000/svg"
   xmlns:sodipodi="http://sodipodi.sourceforge.net/DTD/sodipodi-0.dtd"
   xmlns:inkscape="http://www.inkscape.org/namespaces/inkscape"
   width="1920"
   height="1080"
   id="svg9999"
   version="1.1"
   inkscape:version="0.91 r13725"
   viewBox="0 0 1920 1080"
   sodipodi:docname="fondananaslunettes.svg">
  <defs
     id="defs10001" />
  <sodipodi:namedview
     id="base"
     pagecolor="#ffffff"
     bordercolor="#666666"
     borderopacity="1.0"
     inkscape:pageopacity="0.0"
     inkscape:pageshadow="2"
     inkscape:zoom="0.27635169"
     inkscape:cx="1066.3013"
     inkscape:cy="834.5163"
     inkscape:document-units="px"
     inkscape:current-layer="g10777"
     showgrid="false"
     inkscape:window-width="1600"
     inkscape:window-height="836"
     inkscape:window-x="0"
     inkscape:window-y="27"
     inkscape:window-maximized="1" />
  <metadata
     id="metadata10004">
    <rdf:RDF>
      <cc:Work
         rdf:about="">
        <dc:format>image/svg+xml</dc:format>
        <dc:type
           rdf:resource="http://purl.org/dc/dcmitype/StillImage" />
        <dc:title></dc:title>
      </cc:Work>
    </rdf:RDF>
  </metadata>
  <g
     id="layer1"
     inkscape:label="Layer 1"
     inkscape:groupmode="layer">
    <g
       id="g10777"
       transform="matrix(3.36305,0,0,3.3057872,617.23902,-122.269)">
      <path
         id="path3400"
         d="M 117.87401,218.19373 136.0729,241.76278 152.18339,219.3871 136.0729,199.69651 Z"
         style="fill:#c89e00;fill-opacity:1;fill-rule:evenodd;stroke:#7b8743;stroke-width:1.17341971px;stroke-linecap:butt;stroke-linejoin:miter;stroke-opacity:1"
         inkscape:connector-curvature="0" />
      <path
         id="path3402"
         d="m 89.829829,199.69651 18.497221,19.39225 -16.408831,21.779 -19.39225,-21.779 z"
         style="fill:#c89e00;fill-opacity:1;fill-rule:evenodd;stroke:#7b8743;stroke-width:1.17341971px;stroke-linecap:butt;stroke-linejoin:miter;stroke-opacity:1"
         inkscape:connector-curvature="0" />
      <path
         id="path3404"
         d="m 40.304987,219.3871 c 0,0 9.248616,22.67402 10.740328,21.18231 1.491712,-1.49171 12.828724,-24.16573 12.828724,-24.16573 L 52.238685,199.99485 Z"
         style="fill:#c89e00;fill-opacity:1;fill-rule:evenodd;stroke:#7b8743;stroke-width:1.17341971px;stroke-linecap:butt;stroke-linejoin:miter;stroke-opacity:1"
         inkscape:connector-curvature="0" />
      <path
         id="path3406"
         d="m 160.53697,218.49207 13.42542,22.67403 12.53038,-21.779 -13.42541,-20.28728 z"
         style="fill:#c89e00;fill-opacity:1;fill-rule:evenodd;stroke:#7b8743;stroke-width:1.17341971px;stroke-linecap:butt;stroke-linejoin:miter;stroke-opacity:1"
         inkscape:connector-curvature="0" />
      <path
         id="path3408"
         d="m 32.526973,207.83842 c 0,0.52739 2.53152,11.39183 2.53152,11.39183 l -4.746599,20.99052 -3.48084,-16.87679 z"
         style="fill:#c89e00;fill-opacity:1;fill-rule:evenodd;stroke:#7b8743;stroke-width:1.17341971px;stroke-linecap:butt;stroke-linejoin:miter;stroke-opacity:1"
         inkscape:connector-curvature="0" />
      <path
         id="path3410"
         d="m 37.590012,229.46181 11.180877,17.50968 -6.117838,18.77543 -9.915118,-17.93159 z"
         style="fill:#c89e00;fill-opacity:1;fill-rule:evenodd;stroke:#7b8743;stroke-width:1.17341971px;stroke-linecap:butt;stroke-linejoin:miter;stroke-opacity:1"
         inkscape:connector-curvature="0" />
      <path
         id="path3412"
         d="m 56.154488,248.65917 c 0,0 13.079517,17.08775 13.606917,17.19323 0.5274,0.10549 15.294594,-18.35351 15.294594,-18.35351 0,0 -15.927474,-19.30283 -16.349394,-18.88092 -0.42192,0.42193 -12.552117,20.0412 -12.552117,20.0412 z"
         style="fill:#c89e00;fill-opacity:1;fill-rule:evenodd;stroke:#7b8743;stroke-width:1.17341971px;stroke-linecap:butt;stroke-linejoin:miter;stroke-opacity:1"
         inkscape:connector-curvature="0" />
      <path
         id="path3414"
         d="m 95.076599,248.02629 c 0.63288,0.42191 18.248031,17.9316 18.248031,17.9316 l 18.56447,-17.82613 -18.35351,-19.51379 z"
         style="fill:#c89e00;fill-opacity:1;fill-rule:evenodd;stroke:#7b8743;stroke-width:1.17341971px;stroke-linecap:butt;stroke-linejoin:miter;stroke-opacity:1"
         inkscape:connector-curvature="0" />
      <path
         id="path3416"
         d="m 140.74942,248.4482 14.02883,16.77133 15.08364,-17.50968 -12.02471,-18.88092 z"
         style="fill:#c89e00;fill-opacity:1;fill-rule:evenodd;stroke:#7b8743;stroke-width:1.17341971px;stroke-linecap:butt;stroke-linejoin:miter;stroke-opacity:1"
         inkscape:connector-curvature="0" />
      <path
         id="path3418"
         d="m 177.35097,247.60437 5.90688,17.61516 c 0,0 9.59868,-16.98229 9.59868,-17.4042 0,-0.42193 -4.85208,-20.14668 -4.85208,-20.14668 z"
         style="fill:#c89e00;fill-opacity:1;fill-rule:evenodd;stroke:#7b8743;stroke-width:1.17341971px;stroke-linecap:butt;stroke-linejoin:miter;stroke-opacity:1"
         inkscape:connector-curvature="0" />
      <path
         id="path3420"
         d="m 33.443111,257.27659 c 0,0 8.204418,13.42541 8.055247,14.02209 -0.149171,0.59669 0.447513,15.21547 0.447513,15.21547 l -7.45856,-10.74032 z"
         style="fill:#c89e00;fill-opacity:1;fill-rule:evenodd;stroke:#7b8743;stroke-width:1.17341971px;stroke-linecap:butt;stroke-linejoin:miter;stroke-opacity:1"
         inkscape:connector-curvature="0" />
      <path
         id="path3422"
         d="m 46.868521,272.34289 c 0.298342,0.59668 12.23204,14.32044 12.23204,14.32044 l 9.248615,-15.81215 -14.618779,-15.51382 z"
         style="fill:#c89e00;fill-opacity:1;fill-rule:evenodd;stroke:#7b8743;stroke-width:1.17341971px;stroke-linecap:butt;stroke-linejoin:miter;stroke-opacity:1"
         inkscape:connector-curvature="0" />
      <path
         id="path3424"
         d="m 76.25525,271.59703 17.453039,14.61878 14.917101,-14.91713 -17.900531,-17.6022 z"
         style="fill:#c89e00;fill-opacity:1;fill-rule:evenodd;stroke:#7b8743;stroke-width:1.17341971px;stroke-linecap:butt;stroke-linejoin:miter;stroke-opacity:1"
         inkscape:connector-curvature="0" />
      <path
         id="path3426"
         d="m 117.27733,271.29868 14.4696,14.76795 18.19889,-15.66297 -14.17127,-16.11049 z"
         style="fill:#c89e00;fill-opacity:1;fill-rule:evenodd;stroke:#7b8743;stroke-width:1.17341971px;stroke-linecap:butt;stroke-linejoin:miter;stroke-opacity:1"
         inkscape:connector-curvature="0" />
      <path
         id="path3428"
         d="m 157.70272,272.64123 7.16022,14.0221 15.5138,-15.36465 -7.16022,-16.11049 z"
         style="fill:#c89e00;fill-opacity:1;fill-rule:evenodd;stroke:#7b8743;stroke-width:1.17341971px;stroke-linecap:butt;stroke-linejoin:miter;stroke-opacity:1"
         inkscape:connector-curvature="0" />
      <path
         id="path3430"
         d="m 185.00105,271.7462 c 0,0.59669 -1.19337,13.27624 -1.19337,13.27624 l 8.95027,-11.78453 1.04421,-16.55801 z"
         style="fill:#c89e00;fill-opacity:1;fill-rule:evenodd;stroke:#7b8743;stroke-width:1.17341971px;stroke-linecap:butt;stroke-linejoin:miter;stroke-opacity:1"
         inkscape:connector-curvature="0" />
      <path
         id="path3432"
         d="m 166.65299,291.13845 1.19338,11.33702 12.53037,-11.63536 c 0,0 1.04421,-12.97789 -0.74585,-11.78452 -1.79006,1.19337 -12.9779,12.08286 -12.9779,12.08286 z"
         style="fill:#c89e00;fill-opacity:1;fill-rule:evenodd;stroke:#7b8743;stroke-width:1.17341971px;stroke-linecap:butt;stroke-linejoin:miter;stroke-opacity:1"
         inkscape:connector-curvature="0" />
      <path
         id="path3434"
         d="m 135.62538,290.54177 c 0,1.0442 8.65194,11.33702 8.65194,11.33702 l 17.15468,-11.63536 -9.8453,-13.42541 z"
         style="fill:#c89e00;fill-opacity:1;fill-rule:evenodd;stroke:#7b8743;stroke-width:1.17341971px;stroke-linecap:butt;stroke-linejoin:miter;stroke-opacity:1"
         inkscape:connector-curvature="0" />
      <path
         id="path3438"
         d="m 72.67514,278.16056 16.856349,12.53039 -8.95027,11.18784 -15.215467,-11.33702 z"
         style="fill:#c89e00;fill-opacity:1;fill-rule:evenodd;stroke:#7b8743;stroke-width:1.17341971px;stroke-linecap:butt;stroke-linejoin:miter;stroke-opacity:1"
         inkscape:connector-curvature="0" />
      <path
         id="path3440"
         d="M 47.316034,278.90642 57.75802,290.39261 56.415478,302.17713 45.52598,291.58597 Z"
         style="fill:#c89e00;fill-opacity:1;fill-rule:evenodd;stroke:#7b8743;stroke-width:1.17341971px;stroke-linecap:butt;stroke-linejoin:miter;stroke-opacity:1"
         inkscape:connector-curvature="0" />
      <path
         id="path3442"
         d="m 64.381926,295.70323 c 0,0 14.872676,10.548 14.239797,10.75896 -0.63288,0.21096 -3.26988,8.33292 -3.26988,8.33292 l -13.395957,-8.64936 z"
         style="fill:#c89e00;fill-opacity:1;fill-rule:evenodd;stroke:#7b8743;stroke-width:1.17341971px;stroke-linecap:butt;stroke-linejoin:miter;stroke-opacity:1"
         inkscape:connector-curvature="0" />
      <path
         id="path3444"
         d="m 83.157359,309.94303 c 0,0 14.239801,7.59456 13.606923,8.12196 -0.632883,0.5274 -3.164403,2.42604 -3.164403,2.42604 l -11.0754,-2.32056 -2.531516,-3.6918 z"
         style="fill:#c89e00;fill-opacity:1;fill-rule:evenodd;stroke:#7b8743;stroke-width:1.17341971px;stroke-linecap:butt;stroke-linejoin:miter;stroke-opacity:1"
         inkscape:connector-curvature="0" />
      <path
         id="path3452"
         d="m 130.3069,317.74855 c 0,0 2.32057,4.11372 2.53152,3.58632 0.21096,-0.5274 14.34528,-5.37948 14.34528,-5.37948 l -3.37536,-6.96168 z"
         style="fill:#c89e00;fill-opacity:1;fill-rule:evenodd;stroke:#7b8743;stroke-width:1.17341971px;stroke-linecap:butt;stroke-linejoin:miter;stroke-opacity:1"
         inkscape:connector-curvature="0" />
      <path
         id="path3454"
         d="m 148.87137,306.25123 c 0.21097,1.0548 2.21509,8.12196 2.21509,8.12196 l 14.13431,-8.86032 -1.0548,-9.17675 -2.00412,-0.31645 z"
         style="fill:#c89e00;fill-opacity:1;fill-rule:evenodd;stroke:#7b8743;stroke-width:1.17341971px;stroke-linecap:butt;stroke-linejoin:miter;stroke-opacity:1"
         inkscape:connector-curvature="0" />
      <path
         id="path3456"
         d="m 189.7976,220.81245 4.7466,18.459 c 0,0 5.27401,-17.93159 4.64112,-18.459 -0.63288,-0.5274 -5.48496,-12.65759 -5.48496,-12.65759 z"
         style="fill:#c89e00;fill-opacity:1;fill-rule:evenodd;stroke:#7b8743;stroke-width:1.17341971px;stroke-linecap:butt;stroke-linejoin:miter;stroke-opacity:1"
         inkscape:connector-curvature="0" />
      <path
         id="path3458"
         d="m 175.66329,191.17259 c 0,0.42191 10.96992,20.14666 10.96992,20.14666 0,0 6.43428,-21.30695 5.90687,-21.51791 -0.52739,-0.21096 -10.75895,-12.76308 -10.75895,-12.76308 z"
         style="fill:#c89e00;fill-opacity:1;fill-rule:evenodd;stroke:#7b8743;stroke-width:1.17341971px;stroke-linecap:butt;stroke-linejoin:miter;stroke-opacity:1"
         inkscape:connector-curvature="0" />
      <path
         id="path3460"
         d="m 139.37819,192.43834 c 0.73835,0.42192 17.50967,20.67407 17.50967,20.67407 0,0 14.13431,-21.51791 13.7124,-21.51791 -0.42193,0 -16.66584,-14.97815 -16.66584,-14.97815 z"
         style="fill:#c89e00;fill-opacity:1;fill-rule:evenodd;stroke:#7b8743;stroke-width:1.17341971px;stroke-linecap:butt;stroke-linejoin:miter;stroke-opacity:1"
         inkscape:connector-curvature="0" />
      <path
         id="path3462"
         d="m 93.916319,192.86026 c 0,0 18.353511,19.93572 18.775431,20.0412 0.42191,0.10549 19.83023,-19.83025 19.30283,-20.0412 -0.5274,-0.21096 -18.24804,-16.66584 -18.24804,-16.66584 z"
         style="fill:#c89e00;fill-opacity:1;fill-rule:evenodd;stroke:#7b8743;stroke-width:1.17341971px;stroke-linecap:butt;stroke-linejoin:miter;stroke-opacity:1"
         inkscape:connector-curvature="0" />
      <path
         id="path3464"
         d="m 55.732568,192.96574 12.341157,19.19735 18.880914,-20.46311 c 0,0 -13.290475,-15.92747 -14.345275,-15.61104 -1.0548,0.31644 -16.876796,16.8768 -16.876796,16.8768 z"
         style="fill:#c89e00;fill-opacity:1;fill-rule:evenodd;stroke:#7b8743;stroke-width:1.17341971px;stroke-linecap:butt;stroke-linejoin:miter;stroke-opacity:1"
         inkscape:connector-curvature="0" />
      <path
         id="path3466"
         d="m 42.969492,177.14374 6.328798,15.40008 -12.130197,20.35764 -4.008239,-20.67408 z"
         style="fill:#c89e00;fill-opacity:1;fill-rule:evenodd;stroke:#7b8743;stroke-width:1.17341971px;stroke-linecap:butt;stroke-linejoin:miter;stroke-opacity:1"
         inkscape:connector-curvature="0" />
      <path
         id="path3468"
         d="m 46.661291,171.44782 6.645238,15.40008 15.505556,-16.24392 -8.543878,-13.18499 z"
         style="fill:#c89e00;fill-opacity:1;fill-rule:evenodd;stroke:#7b8743;stroke-width:1.17341971px;stroke-linecap:butt;stroke-linejoin:miter;stroke-opacity:1"
         inkscape:connector-curvature="0" />
      <path
         id="path3470"
         d="m 74.613483,171.23686 14.872676,15.92748 19.935711,-17.4042 -16.243911,-12.6576 z"
         style="fill:#c89e00;fill-opacity:1;fill-rule:evenodd;stroke:#7b8743;stroke-width:1.17341971px;stroke-linecap:butt;stroke-linejoin:miter;stroke-opacity:1"
         inkscape:connector-curvature="0" />
      <path
         id="path3472"
         d="m 116.91094,170.18207 17.72064,16.77131 16.24391,-17.19324 -18.14255,-12.55211 z"
         style="fill:#c89e00;fill-opacity:1;fill-rule:evenodd;stroke:#7b8743;stroke-width:1.17341971px;stroke-linecap:butt;stroke-linejoin:miter;stroke-opacity:1"
         inkscape:connector-curvature="0" />
      <path
         id="path3474"
         d="m 158.04814,170.70946 13.07951,16.03296 7.911,-15.92747 c 0,0 -12.1302,-14.55624 -12.76308,-13.81789 -0.63287,0.73837 -8.22743,13.7124 -8.22743,13.7124 z"
         style="fill:#c89e00;fill-opacity:1;fill-rule:evenodd;stroke:#7b8743;stroke-width:1.17341971px;stroke-linecap:butt;stroke-linejoin:miter;stroke-opacity:1"
         inkscape:connector-curvature="0" />
      <path
         id="path3476"
         d="m 167.96325,153.93815 c 0,0 9.59868,12.86855 10.86444,12.34116 1.26575,-0.52741 2.74248,-11.18089 2.74248,-11.18089 l -11.81376,-11.81375 z"
         style="fill:#c89e00;fill-opacity:1;fill-rule:evenodd;stroke:#7b8743;stroke-width:1.17341971px;stroke-linecap:butt;stroke-linejoin:miter;stroke-opacity:1"
         inkscape:connector-curvature="0" />
      <path
         id="path3478"
         d="m 135.5809,153.09431 c 0,0 16.24391,13.50143 16.66584,13.50143 0.42191,0 9.91511,-14.55623 9.4932,-14.55623 -0.42193,0 -16.03296,-10.0206 -16.03296,-10.0206 z"
         style="fill:#c89e00;fill-opacity:1;fill-rule:evenodd;stroke:#7b8743;stroke-width:1.17341971px;stroke-linecap:butt;stroke-linejoin:miter;stroke-opacity:1"
         inkscape:connector-curvature="0" />
      <path
         id="path3480"
         d="m 97.36297,153.52801 c 0.447518,0.29834 14.09667,13.27624 14.76795,13.27624 0.67127,0 17.97513,-14.84253 17.97513,-14.84253 l -17.15469,-10.21823 z"
         style="fill:#c89e00;fill-opacity:1;fill-rule:evenodd;stroke:#7b8743;stroke-width:1.17341971px;stroke-linecap:butt;stroke-linejoin:miter;stroke-opacity:1"
         inkscape:connector-curvature="0" />
      <path
         id="path3482"
         d="m 64.246967,153.15509 c 0,0 7.533146,14.54418 7.98066,13.9475 0.447513,-0.59668 17.676792,-13.20165 17.527622,-13.72374 -0.14918,-0.5221 -11.038674,-11.9337 -11.038674,-11.9337 z"
         style="fill:#c89e00;fill-opacity:1;fill-rule:evenodd;stroke:#7b8743;stroke-width:1.17341971px;stroke-linecap:butt;stroke-linejoin:miter;stroke-opacity:1"
         inkscape:connector-curvature="0" />
      <path
         id="path3484"
         d="m 45.003881,155.54182 c 0,0.52211 0.522099,10.44198 0.522099,10.44198 0,0 13.947509,-12.90331 13.947509,-13.4254 0,-0.5221 -3.281768,-11.70994 -3.281768,-11.4116 0,0.29835 -11.18784,14.39502 -11.18784,14.39502 z"
         style="fill:#c89e00;fill-opacity:1;fill-rule:evenodd;stroke:#7b8743;stroke-width:1.17341971px;stroke-linecap:butt;stroke-linejoin:miter;stroke-opacity:1"
         inkscape:connector-curvature="0" />
      <path
         id="path3486"
         d="m 59.771831,139.28216 c 0,1.0442 1.19337,8.8011 1.267955,9.39779 0.07458,0.59668 16.558005,-10.14364 16.558005,-10.14364 0,0 -3.803866,-8.57735 -4.400552,-8.57735 -0.596684,0 -13.425408,9.3232 -13.425408,9.3232 z"
         style="fill:#c89e00;fill-opacity:1;fill-rule:evenodd;stroke:#7b8743;stroke-width:1.17341971px;stroke-linecap:butt;stroke-linejoin:miter;stroke-opacity:1"
         inkscape:connector-curvature="0" />
      <path
         id="path3488"
         d="m 84.534249,139.72968 9.54696,9.84529 c 0,0 15.215461,-10.74032 14.469601,-11.03866 -0.74585,-0.29834 -10.292814,-7.98066 -11.11324,-7.53315 -0.820448,0.44751 -12.903321,8.72652 -12.903321,8.72652 z"
         style="fill:#c89e00;fill-opacity:1;fill-rule:evenodd;stroke:#7b8743;stroke-width:1.17341971px;stroke-linecap:butt;stroke-linejoin:miter;stroke-opacity:1"
         inkscape:connector-curvature="0" />
      <path
         id="path3490"
         d="m 117.42649,139.28216 c 0,0 13.27624,10.59115 13.72376,10.51657 0.4475,-0.0746 10.74032,-11.337 10.3674,-11.337 -0.37293,0 -12.60497,-9.09945 -13.05248,-8.72653 -0.44752,0.37294 -11.03868,9.54696 -11.03868,9.54696 z"
         style="fill:#c89e00;fill-opacity:1;fill-rule:evenodd;stroke:#7b8743;stroke-width:1.17341971px;stroke-linecap:butt;stroke-linejoin:miter;stroke-opacity:1"
         inkscape:connector-curvature="0" />
      <path
         id="path3492"
         d="m 146.81322,139.5805 c 3.72928,0.74586 15.66298,10.74033 15.66298,10.74033 l 1.93923,-2.38673 0.74585,-8.95028 -13.4254,-8.50276 z"
         style="fill:#c89e00;fill-opacity:1;fill-rule:evenodd;stroke:#7b8743;stroke-width:1.17341971px;stroke-linecap:butt;stroke-linejoin:miter;stroke-opacity:1"
         inkscape:connector-curvature="0" />
      <path
         id="path3494"
         d="m 77.597791,128.69101 c 1.044198,5.81768 2.386739,6.86187 2.386739,6.86187 l 4.027619,0.14917 8.65194,-6.41435 c 0,0 8.950261,-1.34255 9.099431,-0.74587 0.14917,0.59669 8.65193,7.01105 8.65193,7.01105 l 5.81768,0.44752 6.26519,-7.90607 7.7569,-0.29836 c 0,0 9.24861,8.20443 9.8453,8.20443 0.59668,0 5.07182,-0.29835 5.07182,-0.29835 l 3.43094,-7.90608 -3.87845,-1.79005 c 0,0 -2.68508,-1.64087 -1.0442,-2.23757 1.64088,-0.59668 2.98342,-0.74585 2.98342,-0.74585 0,0 18.34806,-1.93923 23.71822,0 5.37017,1.93923 2.68509,-3.43094 2.68509,-3.43094 0,0 -8.80111,-4.6243 -25.50828,-4.77348 -16.70717,-0.14916 -23.86739,1.49171 -25.06076,1.49171 -1.19337,0 -21.33148,-11.33701 -21.33148,-11.33701 0,0 -4.176788,-4.77348 -4.176788,1.04421 0,5.81767 0.596678,7.16022 -0.29834,8.80109 -0.895033,1.64089 -4.475143,0.14918 -5.370173,0.14918 -0.89502,0 -7.90607,-0.29834 -13.276235,-0.29834 -5.370164,0 -9.696128,0 -14.917121,0.29834 -5.220992,0.29834 -5.668507,-0.29834 -6.11602,0.89502 -0.447514,1.19337 -1.790054,3.87845 1.790055,4.62431 3.580109,0.74586 15.812149,0.74586 18.348059,1.93923 2.53591,1.19337 5.071822,2.08839 0.447514,6.26519 z"
         style="fill:#7b8743;fill-opacity:1;fill-rule:evenodd;stroke:#c89e00;stroke-width:1.17341971px;stroke-linecap:butt;stroke-linejoin:miter;stroke-opacity:1"
         inkscape:connector-curvature="0" />
      <path
         id="path3496"
         d="m 120.85743,110.79046 c 0,0 11.33702,-12.53038 21.03314,-13.57458 9.69613,-1.0442 27.44751,0.14918 29.68508,3.1326 2.23756,2.98342 3.87845,6.26519 -2.23757,5.37016 -6.11602,-0.89503 -11.33702,0.29835 -15.81215,3.58011 -4.47514,3.28176 -4.1768,3.28176 -5.51933,3.28176 -1.34255,0 -22.22652,0.44752 -23.41989,1.19338 -1.19337,0.74585 -4.77348,1.64087 -3.72928,-2.98343 z"
         style="fill:#7b8743;fill-opacity:1;fill-rule:evenodd;stroke:#c89e00;stroke-width:1.17341971px;stroke-linecap:butt;stroke-linejoin:miter;stroke-opacity:1"
         inkscape:connector-curvature="0" />
      <path
         id="path3498"
         d="m 95.050819,101.54185 c 0,0 -6.56353,-7.45857 -10.14364,-7.16022 -3.58011,0.29834 -11.486183,1.34254 -14.320436,-0.14917 -2.834252,-1.49172 -10.591155,-5.96685 -15.961319,-5.221 -5.370163,0.74586 -4.922651,0.89504 -2.237568,3.43094 2.685081,2.53591 15.215464,8.05524 18.049716,13.42541 2.834254,5.37017 4.475137,6.11602 7.906075,6.41436 3.430942,0.29834 14.022092,0.89504 15.215462,0.89504 1.19337,0 1.49171,-11.63536 1.49171,-11.63536 z"
         style="fill:#7b8743;fill-opacity:1;fill-rule:evenodd;stroke:#c89e00;stroke-width:1.17341971px;stroke-linecap:butt;stroke-linejoin:miter;stroke-opacity:1"
         inkscape:connector-curvature="0" />
      <path
         id="path3500"
         d="m 103.85192,102.73521 13.57457,9.24862 c 0,0 7.01106,-8.95027 8.05525,-9.24862 1.0442,-0.29834 3.58011,-4.77347 0.89502,-8.35358 -2.68507,-3.58011 -7.60772,-6.7127 -9.09943,-9.39779 -1.49172,-2.68508 -3.58012,-4.02763 -3.58012,-4.02763 0,0 -9.24861,10.59116 -9.99447,12.53039 -0.74585,1.93923 -0.14917,8.35359 0.14918,9.24861 z"
         style="fill:#7b8743;fill-opacity:1;fill-rule:evenodd;stroke:#c89e00;stroke-width:1.17341971px;stroke-linecap:butt;stroke-linejoin:miter;stroke-opacity:1"
         inkscape:connector-curvature="0" />
      <path
         id="path3502"
         d="m 141.59223,94.97831 c 0.44752,-1.04419 18.04972,-19.09391 44.30385,-27.4475 26.25414,-8.35359 11.63536,-10.441985 11.63536,-10.441985 0,0 -30.72927,4.027625 -38.03866,7.160215 -7.30939,3.1326 -21.33149,10.29282 -23.27071,11.18784 -1.93923,0.89503 -10.8895,6.11602 -11.33702,7.7569 -0.4475,1.64089 -1.93922,4.92265 -1.93922,4.92265 0,0 4.32596,0.89503 4.77348,2.38675 0.44752,1.49171 1.64089,5.51933 1.49171,7.30938 -0.14917,1.79006 0,3.1326 0,3.1326 0,0 9.69613,-5.81767 12.38121,-5.96685 z"
         style="fill:#7b8743;fill-opacity:1;fill-rule:evenodd;stroke:#c89e00;stroke-width:1.17341971px;stroke-linecap:butt;stroke-linejoin:miter;stroke-opacity:1"
         inkscape:connector-curvature="0" />
      <path
         id="path3504"
         d="m 99.525952,101.09434 c 0,0 -6.861863,-8.3536 -11.635343,-8.95028 -4.77348,-0.59669 -4.92265,0.44751 -7.906079,0.14917 -2.983424,-0.29834 -2.535911,0.14917 -5.220992,-1.19337 -2.685083,-1.34254 -3.430939,-2.0884 -7.011047,-4.6243 -3.58011,-2.53591 -5.220993,-3.43094 -11.635355,-5.96685 -6.414363,-2.53592 -15.513806,-7.16022 -21.033141,-8.05525 -5.519335,-0.89502 -6.414362,-0.89502 -7.906074,-0.89502 -1.491712,0 -15.066292,-6.71271 -5.071821,-7.01105 9.994471,-0.29835 29.237558,1.19336 36.546947,3.72928 7.309389,2.53591 14.022093,3.72927 17.453032,6.11602 3.430937,2.38674 7.45856,2.38674 12.08287,6.26518 4.6243,3.87846 10.591147,9.09945 11.784513,9.84531 1.193378,0.74585 2.237568,0.29834 1.044198,3.72928 -1.193368,3.43094 -1.640876,6.11602 -1.491708,6.86188 z"
         style="fill:#7b8743;fill-opacity:1;fill-rule:evenodd;stroke:#c89e00;stroke-width:1.17341971px;stroke-linecap:butt;stroke-linejoin:miter;stroke-opacity:1"
         inkscape:connector-curvature="0" />
      <path
         id="path3506"
         d="m 109.07291,74.09435 c 9.54695,-6.56354 31.17679,-26.999996 44.60219,-34.90607 13.42541,-7.906074 17.30387,-11.784526 32.81767,-14.917121 15.51381,-3.132597 13.4254,-5.817678 16.40883,-2.983425 2.98342,2.834253 8.35359,3.430938 3.58011,4.92265 -4.77347,1.491712 -11.78453,0.149171 -15.81215,1.790054 -4.02762,1.640883 -1.49171,-0.298342 -6.86188,5.519336 -5.37015,5.817677 -11.03866,11.486182 -13.12706,12.977895 -2.0884,1.491712 -5.51934,5.817677 -8.20442,8.801102 -2.68508,2.983429 -4.1768,5.220989 -6.41436,6.712699 -2.23757,1.49172 -7.90608,2.98343 -10.8895,5.221 -2.98343,2.23757 -2.98343,2.53591 -8.50276,5.37016 -5.51933,2.83425 -8.80111,2.38674 -11.03866,5.96685 -2.23758,3.58011 -2.98344,7.60774 -4.32597,5.81767 -1.34254,-1.79005 -2.0884,-5.22099 -4.47514,-5.22099 -2.38674,0 -5.66851,-0.29834 -5.66851,-0.29834 0,0 -1.34253,-0.29834 -1.93922,-1.19337 -0.59669,-0.89502 -0.14917,-3.5801 -0.14917,-3.5801 z"
         style="fill:#7b8743;fill-opacity:1;fill-rule:evenodd;stroke:#c89e00;stroke-width:1.17341971px;stroke-linecap:butt;stroke-linejoin:miter;stroke-opacity:1"
         inkscape:connector-curvature="0" />
      <path
         id="path3508"
         d="m 101.316,87.81809 c 3.72928,-0.89502 5.96686,-1.19337 5.22099,-5.22099 -0.74584,-4.02762 -2.98342,-5.81767 -5.22099,-7.60773 -2.237566,-1.79006 3.58011,1.64088 -7.458551,-8.8011 C 82.818779,55.746284 77.299448,56.49214 70.288401,52.762859 63.277354,49.03358 52.089514,42.320875 47.614377,40.978334 c -4.475136,-1.342541 -11.03867,-4.325965 -13.57458,-6.265191 -2.535911,-1.939225 -5.519335,-4.325966 -9.099445,-3.580109 -3.580108,0.745856 -2.53591,1.939226 0.447515,4.624307 2.983424,2.685083 -0.745857,2.535912 8.204417,9.8453 8.950272,7.30939 10.143642,8.950274 15.364633,12.530379 5.220993,3.58011 2.535912,2.23757 10.292815,5.81768 7.756903,3.58011 10.889498,6.26519 18.795572,7.90608 7.906075,1.64087 8.950275,3.43094 12.679555,6.86188 3.72928,3.43093 7.756897,8.50275 8.204415,9.09943 0.44751,0.59669 2.386726,0 2.386726,0 z"
         style="fill:#7b8743;fill-opacity:1;fill-rule:evenodd;stroke:#c89e00;stroke-width:1.17341971px;stroke-linecap:butt;stroke-linejoin:miter;stroke-opacity:1"
         inkscape:connector-curvature="0" />
      <path
         id="path3510"
         d="M 105.04528,74.24351 C 104.4486,71.85678 99.675122,64.69656 97.885078,63.20484 96.095019,61.71313 88.188949,59.02805 84.161319,56.193798 80.133701,53.359544 72.227627,45.45347 71.332599,44.856785 70.437572,44.2601 70.735915,45.45347 69.542545,41.575019 68.349176,37.696567 54.476253,18.602652 50.44863,16.663427 c -4.027623,-1.939226 2.685082,-4.475137 8.353588,-1.939226 5.668506,2.53591 18.049717,6.414361 22.077341,7.906074 4.02762,1.491712 8.65193,6.712704 12.82873,11.187841 4.176789,4.475137 7.607711,5.966849 8.651921,8.65193 1.04419,2.685082 5.07181,10.441985 5.37015,14.022094 0.29834,3.58011 2.98343,7.45856 1.19338,10.8895 -1.79006,3.43094 -3.87846,6.86187 -3.87846,6.86187 z"
         style="fill:#7b8743;fill-opacity:1;fill-rule:evenodd;stroke:#c89e00;stroke-width:1.17341971px;stroke-linecap:butt;stroke-linejoin:miter;stroke-opacity:1"
         inkscape:connector-curvature="0" />
      <path
         id="path3512"
         d="m 113.10053,65.14407 c -0.14917,-3.58011 1.79005,-3.28177 -0.44752,-8.801101 -2.23756,-5.519335 -2.83424,-5.519335 -3.13258,-7.458561 -0.29835,-1.939225 -3.72928,-6.414362 13.57457,-16.558004 17.30386,-10.143642 20.28728,-16.558005 26.25413,-19.541429 5.96685,-2.9834236 12.38121,-5.370161 14.76796,-5.9668456 2.38673,-0.5966846 9.99446,-3.132594 6.56353,0.5966846 -3.43094,3.729278 -7.16022,6.116018 -12.23204,12.232037 -5.07183,6.116019 -3.28176,3.72928 -8.95027,10.740326 -5.66851,7.011049 -7.7569,9.994472 -9.09945,12.530383 -1.34254,2.53591 0.29834,3.580109 -5.22099,6.712704 -5.51933,3.132595 -9.09945,4.475136 -11.63536,6.712705 -2.5359,2.237571 -3.72928,3.281771 -5.22099,4.773481 -1.49171,1.49171 -5.07181,4.6243 -5.07181,4.6243 z"
         style="fill:#7b8743;fill-opacity:1;fill-rule:evenodd;stroke:#c89e00;stroke-width:1.17341971px;stroke-linecap:butt;stroke-linejoin:miter;stroke-opacity:1"
         inkscape:connector-curvature="0" />
      <path
         id="path3514"
         d="m 106.23865,43.961758 c 0,-0.596685 -10.441971,-8.65193 -12.232021,-12.38121 -1.79006,-3.729281 2.23756,-13.723752 2.23756,-17.154689 0,-3.430939 0.895021,-9.3977834 1.044201,-12.6795484 0.14918,-3.2817637 -4.773481,-13.7237436 -1.790051,-18.3480506 2.983417,-4.624308 4.325953,-8.353588 5.966841,-0.447514 1.64088,7.9060737 5.51933,12.6795485 7.16021,16.11048552 1.64088,3.43093468 5.07182,7.75689788 5.66851,11.33700448 0.59668,3.580108 3.43094,5.370163 5.07182,11.337011 1.64089,5.966849 0.59669,9.248616 -1.0442,10.740328 -1.64088,1.491712 -5.81767,6.265191 -7.45856,7.607732 -1.64088,1.342541 -4.62431,3.878451 -4.62431,3.878451 z"
         style="fill:#7b8743;fill-opacity:1;fill-rule:evenodd;stroke:#c89e00;stroke-width:1.17341971px;stroke-linecap:butt;stroke-linejoin:miter;stroke-opacity:1"
         inkscape:connector-curvature="0" />
      <path
         id="path3516"
         d="m 125.03423,26.210384 c -0.44752,-4.176793 -4.77348,-6.861876 -4.6243,-8.502759 0.14916,-1.640883 2.83424,-5.668506 5.07181,-8.9502718 2.23757,-3.281765 5.22099,-7.90606882 7.60774,-8.95026644 2.38673,-1.04419826 4.02762,-1.34253986 4.02762,-1.34253986 0,0 -0.44752,1.04419724 -0.89503,8.2044115 -0.44752,7.1602146 -0.74586,5.8176736 -0.44752,7.9060716 0.29835,2.088397 1.04421,2.088397 0.29835,3.580109 -0.74586,1.491712 -3.87845,2.983423 -6.2652,4.92265 -2.38673,1.939225 -4.77347,3.132595 -4.77347,3.132595 z"
         style="fill:#7b8743;fill-opacity:1;fill-rule:evenodd;stroke:#c89e00;stroke-width:1.17341971px;stroke-linecap:butt;stroke-linejoin:miter;stroke-opacity:1"
         inkscape:connector-curvature="0" />
      <path
         id="path3518"
         d="m 91.918219,26.657898 c 0.44752,-6.414363 0.59669,-5.817678 0.29835,-10.143643 -0.29835,-4.325965 1.19338,-3.281767 -1.64088,-6.116019 -2.83426,-2.834251 2.98342,0 -5.81768,-6.414359 -8.801102,-6.4143577 -13.872923,-7.6077269 -13.872923,-7.6077269 0,0 -0.745856,6.7127007 1.790054,9.8452947 2.535911,3.132593 5.966849,1.1933692 6.414362,6.7127012 0.447514,5.519335 -0.298342,6.563533 2.834257,8.204416 3.13259,1.640885 9.39778,5.519336 9.39778,5.519336 z"
         style="fill:#7b8743;fill-opacity:1;fill-rule:evenodd;stroke:#c89e00;stroke-width:1.17341971px;stroke-linecap:butt;stroke-linejoin:miter;stroke-opacity:1"
         inkscape:connector-curvature="0" />
      <path
         inkscape:connector-curvature="0"
         id="path4003"
         d="m 186.65709,186.82338 c 0,0 -4.04168,4.56885 -3.69023,9.31342 0.35144,4.74457 -3.33878,12.30076 -4.74459,14.23372 -1.40579,1.93297 -6.85326,11.59786 -18.9783,10.71922 -12.12502,-0.87862 -23.89859,-3.69023 -26.88592,-5.97465 -2.9873,-2.28441 -11.42212,-18.45111 -11.77357,-20.73554 -0.35145,-2.28442 -1.93296,-7.20474 -3.16304,-7.55617 -1.23008,-0.35146 -3.69022,-0.87863 -3.69022,-0.87863 0,0 -5.27177,-1.05434 -6.32611,1.75725 -1.05435,2.81159 -3.51449,16.51814 -5.09602,18.45113 -1.58153,1.93298 -13.882261,13.00365 -16.518131,13.88226 -2.63588,0.87863 -27.237374,5.09602 -33.563483,-1.58152 -6.326097,-6.67755 -9.313424,-20.91127 -9.664875,-23.54715 -0.351451,-2.63588 -1.581535,-10.36778 -6.150374,-12.47648 -4.56885,-2.10869 -1.757243,-9.13768 -1.757243,-9.13768 0,0 6.677533,-3.33878 28.994624,-3.33878 22.317061,0 34.617808,1.93297 41.295362,6.67755 6.67754,4.74457 14.58516,0.70289 14.58516,0.70289 0,0 3.51451,-3.86593 15.63954,-5.79892 12.12501,-1.93297 39.71384,-0.87862 49.90588,-0.35144 10.19207,0.52716 7.38045,0 7.38045,0 0,0 0.17573,8.25906 -1.05434,9.48914 -1.23008,1.23009 -4.39312,4.56885 -4.74457,6.15038 z"
         style="fill:#000000;fill-opacity:1;fill-rule:evenodd;stroke:#000000;stroke-width:1.53330672px;stroke-linecap:butt;stroke-linejoin:miter;stroke-opacity:1" />
      <path
         inkscape:connector-curvature="0"
         id="path3986"
         d="m 82.979349,214.58792 c 0,0 13.3551,-4.2174 14.760889,-16.1667 1.405816,-11.9493 2.460162,-19.32975 -18.275385,-22.14134 -20.73555,-2.81159 -29.170356,1.05434 -30.576146,3.86594 -1.405804,2.81161 -1.757255,21.087 -0.351451,23.89861 1.405793,2.81159 1.054343,10.54349 16.518148,12.30074 15.463795,1.75725 17.923945,-1.75725 17.923945,-1.75725 z"
         style="fill:#c8c8c8;fill-opacity:1;fill-rule:evenodd;stroke:#000000;stroke-width:1.53330672px;stroke-linecap:butt;stroke-linejoin:miter;stroke-opacity:1" />
      <path
         inkscape:connector-curvature="0"
         id="path3986-9"
         d="m 141.9091,213.42497 c 0,0 -13.3551,-4.2174 -14.76091,-16.1667 -1.4058,-11.9493 -2.46015,-19.32974 18.27541,-22.14134 20.73554,-2.8116 29.17034,1.05434 30.57614,3.86594 1.4058,2.8116 1.75724,21.08699 0.35145,23.8986 -1.4058,2.8116 -1.05436,10.5435 -16.51815,12.30075 -15.4638,1.75724 -17.92394,-1.75725 -17.92394,-1.75725 z"
         style="fill:#c8c8c8;fill-opacity:1;fill-rule:evenodd;stroke:#000000;stroke-width:1.53330672px;stroke-linecap:butt;stroke-linejoin:miter;stroke-opacity:1" />
      <rect
         transform="matrix(0.68406069,-0.7294251,0.7294251,0.68406069,0,0)"
         y="171.12674"
         x="-95.323639"
         height="30.633595"
         width="6.0372772"
         id="rect4826"
         style="fill:#000000;fill-opacity:1" />
      <rect
         transform="matrix(0.68406069,-0.7294251,0.7294251,0.68406069,0,0)"
         y="183.22141"
         x="-108.04891"
         height="7.1552916"
         width="31.304399"
         id="rect4828"
         style="fill:#000000;fill-opacity:1" />
      <rect
         inkscape:transform-center-y="2.4252592"
         inkscape:transform-center-x="19.893154"
         transform="matrix(0.68406069,-0.7294251,0.7294251,0.68406069,0,0)"
         y="229.12729"
         x="-40.431461"
         height="30.633595"
         width="6.0372772"
         id="rect4826-9"
         style="fill:#000000;fill-opacity:1" />
      <rect
         inkscape:transform-center-y="2.7352982"
         inkscape:transform-center-x="19.696562"
         transform="matrix(0.68406069,-0.7294251,0.7294251,0.68406069,0,0)"
         y="241.22205"
         x="-53.156803"
         height="7.1552916"
         width="31.304399"
         id="rect4828-1"
         style="fill:#000000;fill-opacity:1" />
      <path
         sodipodi:nodetypes="ccccc"
         id="path3414-0"
         d="m 96.521012,289.98633 c 0.632878,0.42192 16.438898,12.83314 16.438898,12.83314 l 15.60407,-13.22106 -15.22865,-15.40213 z"
         style="fill:#c89e00;fill-opacity:1;fill-rule:evenodd;stroke:#7b8743;stroke-width:1.17341971px;stroke-linecap:butt;stroke-linejoin:miter;stroke-opacity:1"
         inkscape:connector-curvature="0" />
      <path
         sodipodi:nodetypes="ccccc"
         id="path3438-0"
         d="m 93.141009,294.17309 15.869531,11.37911 -8.62134,9.54318 -15.544381,-9.69235 z"
         style="fill:#c89e00;fill-opacity:1;fill-rule:evenodd;stroke:#7b8743;stroke-width:1.17341971px;stroke-linecap:butt;stroke-linejoin:miter;stroke-opacity:1"
         inkscape:connector-curvature="0" />
      <path
         sodipodi:nodetypes="ccccc"
         id="path3434-3"
         d="m 117.64919,305.42878 c 0,1.04421 9.63874,9.85682 9.63874,9.85682 l 13.53641,-8.83943 -9.84529,-13.42541 z"
         style="fill:#c89e00;fill-opacity:1;fill-rule:evenodd;stroke:#7b8743;stroke-width:1.17341971px;stroke-linecap:butt;stroke-linejoin:miter;stroke-opacity:1"
         inkscape:connector-curvature="0" />
      <path
         sodipodi:nodetypes="ccccc"
         id="path3414-0-5"
         d="m 97.752998,321.66036 c 0.632878,0.42191 16.603362,3.62301 16.603362,3.62301 l 14.94621,-2.53073 -16.05099,-14.0864 z"
         style="fill:#7b8743;fill-opacity:1;fill-rule:evenodd;stroke:#c89600;stroke-width:1.17341971px;stroke-linecap:butt;stroke-linejoin:miter;stroke-opacity:1"
         inkscape:connector-curvature="0" />
    </g>
  </g>
</svg>
